<?xml version="1.0" encoding="utf-8"?>
<!-- Generator: Adobe Illustrator 16.0.0, SVG Export Plug-In . SVG Version: 6.00 Build 0)  -->
<!DOCTYPE svg PUBLIC "-//W3C//DTD SVG 1.1//EN" "http://www.w3.org/Graphics/SVG/1.1/DTD/svg11.dtd">
<svg version="1.1" id="Layer_1" xmlns="http://www.w3.org/2000/svg" xmlns:xlink="http://www.w3.org/1999/xlink" x="0px" y="0px"
	 width="218.752px" height="129.834px" viewBox="0 0 218.752 129.834" enable-background="new 0 0 218.752 129.834"
	 xml:space="preserve">
<g>
	<path fill="#FFFFFF" d="M67.106,107.955c-8.259,0-15.198-3.954-20.827-11.878c-5.629-7.915-8.444-19.105-8.444-33.567
		c0-13.427,2.718-24.271,8.163-32.534c5.435-8.263,12.471-12.394,21.108-12.394c8.25,0,15.101,3.962,20.545,11.877
		c5.435,7.923,8.162,18.938,8.162,33.05c0,14.122-2.727,25.223-8.162,33.309C82.207,103.913,75.356,107.955,67.106,107.955z
		 M67.115,21.714c-5.418,0-9.964,3.704-13.641,11.104c-3.676,7.407-5.506,17.299-5.506,29.693c0,13.088,1.83,23.239,5.506,30.469
		c3.677,7.229,8.223,10.846,13.641,10.846c5.805,0,10.343-3.615,13.633-10.846c3.289-7.229,4.934-17.381,4.934-30.469
		c0-12.394-1.547-22.286-4.644-29.693C77.941,25.418,73.298,21.714,67.115,21.714z"/>
</g>
<g>
	<path fill="#FFFFFF" d="M111.043,88.266h19.666l1.648-1.512l2.308,2.117h-8.351v9.777c0,1.277,0.806,1.847,2.418,1.714h2.527
		c1.098,0,1.738-0.505,1.922-1.513c0.182-1.008,0.347-2.351,0.494-4.032h0.55c0,1.883,0.072,3.193,0.22,3.932
		c0.146,0.74,0.549,1.21,1.209,1.411c-0.733,1.008-1.796,1.512-3.188,1.512h-4.724c-2.052,0.066-3.076-0.673-3.076-2.217V88.871
		h-3.955c-0.367,4.369-1.302,7.477-2.802,9.323c-1.503,1.85-4.048,3.443-7.636,4.788l-0.221-0.302
		c3.736-2.017,6.115-4.099,7.143-6.25c1.024-2.149,1.609-4.67,1.758-7.56h-4.285c-0.953,0-1.832,0.101-2.637,0.302L111.043,88.266z
		 M114.229,81.815h14.282l1.539-1.412l2.197,2.017h-14.612c-0.953,0-1.758,0.101-2.418,0.303L114.229,81.815z"/>
</g>
</svg>
