<?xml version="1.0" encoding="utf-8"?>
<!-- Generator: Adobe Illustrator 16.0.0, SVG Export Plug-In . SVG Version: 6.00 Build 0)  -->
<!DOCTYPE svg PUBLIC "-//W3C//DTD SVG 1.1//EN" "http://www.w3.org/Graphics/SVG/1.1/DTD/svg11.dtd">
<svg version="1.1" id="图层_1" xmlns="http://www.w3.org/2000/svg" xmlns:xlink="http://www.w3.org/1999/xlink" x="0px" y="0px"
	 width="1284px" height="1027.204px" viewBox="0 0 1284 1027.204" enable-background="new 0 0 1284 1027.204" xml:space="preserve">
<rect x="61.405" y="282.074" fill="#FF9933" width="303.113" height="105.911"/>
<rect x="430.519" y="282.074" fill="#FF66CC" width="303.113" height="105.911"/>
<rect x="799.632" y="282.074" fill="#2AFF7F" width="303.113" height="105.911"/>
<rect x="61.405" y="439.875" fill="#99FF00" width="303.113" height="105.909"/>
<rect x="430.519" y="439.875" fill="#C12AFF" width="303.113" height="105.909"/>
<rect x="799.632" y="439.875" fill="#FFFF00" width="303.113" height="105.909"/>
<rect x="61.405" y="597.676" fill="#0066FF" width="303.113" height="105.91"/>
<rect x="430.519" y="597.676" fill="#FF9F54" width="303.113" height="105.91"/>
<rect x="799.632" y="597.676" fill="#FF2AEB" width="303.113" height="105.91"/>
<g>
	<path fill="#E5E5E5" d="M175.374,61.373c0.539-0.54,1.195-0.811,1.971-0.811h31.973c0.771,0,1.39,0.271,1.855,0.811
		c0.461,0.542,0.615,1.198,0.461,1.97L192.406,219.97c-0.157,0.775-0.506,1.43-1.044,1.97c-0.544,0.542-1.199,0.811-1.971,0.811
		h-30.583c-1.547,0-2.55-0.615-3.014-1.854l-40.778-88.509c-0.311-0.463-0.618-0.655-0.926-0.58c-0.31,0.08-0.464,0.427-0.464,1.042
		l-10.427,87.119c-0.153,0.775-0.502,1.43-1.041,1.97c-0.544,0.542-1.198,0.811-1.97,0.811H68.212c-0.771,0-1.39-0.268-1.852-0.811
		c-0.464-0.54-0.621-1.195-0.464-1.97L85.128,63.342c0-0.771,0.307-1.427,0.925-1.97c0.615-0.54,1.311-0.811,2.085-0.811h30.817
		c1.39,0,2.315,0.619,2.78,1.854l40.778,88.276c0.154,0.463,0.385,0.66,0.695,0.58c0.308-0.077,0.541-0.424,0.695-1.042
		l10.426-86.887C174.483,62.571,174.83,61.915,175.374,61.373z"/>
	<path fill="#E5E5E5" d="M340.343,92.653c-0.541,0.542-1.198,0.81-1.967,0.81h-70.439c-0.926,0-1.39,0.387-1.39,1.158l-3.475,28.5
		c0,0.775,0.307,1.158,0.929,1.158h45.179c0.772,0,1.391,0.272,1.855,0.812c0.464,0.542,0.616,1.198,0.464,1.969l-3.244,27.109
		c-0.157,0.774-0.502,1.43-1.044,1.969c-0.541,0.543-1.198,0.811-1.97,0.811h-45.179c-0.619,0-1.083,0.387-1.391,1.16l-3.706,30.583
		c0,0.775,0.307,1.16,0.926,1.16h70.666c0.771,0,1.39,0.271,1.855,0.81c0.464,0.543,0.615,1.198,0.464,1.97l-3.245,27.34
		c-0.156,0.775-0.502,1.43-1.041,1.97c-0.544,0.542-1.201,0.811-1.97,0.811H216.268c-0.772,0-1.391-0.268-1.852-0.811
		c-0.464-0.54-0.621-1.195-0.464-1.97l19.231-156.628c0-0.771,0.308-1.427,0.926-1.97c0.615-0.54,1.311-0.811,2.085-0.811h106.352
		c0.769,0,1.39,0.271,1.852,0.811c0.464,0.542,0.615,1.198,0.464,1.97l-3.476,27.34C341.23,91.458,340.884,92.113,340.343,92.653z"
		/>
	<path fill="#E5E5E5" d="M380.077,220.433L357.37,63.573V63.11c0-1.697,0.929-2.548,2.78-2.548h34.061
		c1.541,0,2.394,0.773,2.547,2.316l9.269,84.339c0,0.62,0.193,0.927,0.58,0.927c0.382,0,0.654-0.307,0.811-0.927L435.22,63.11
		c0.464-1.697,1.544-2.548,3.245-2.548h31.278c1.543,0,2.393,0.773,2.55,2.316l9.266,84.339c0,0.62,0.193,0.927,0.58,0.927
		c0.384,0,0.657-0.307,0.812-0.927l28.5-84.107c0.461-1.697,1.541-2.548,3.242-2.548h33.133c2.162,0,2.934,1.006,2.318,3.011
		l-57.463,156.86c-0.462,1.546-1.544,2.317-3.242,2.317h-32.207c-1.699,0-2.549-0.848-2.549-2.548l-8.571-89.437
		c-0.156-0.615-0.388-0.926-0.695-0.926c-0.312,0-0.544,0.311-0.695,0.926l-28.499,89.437c-0.464,1.701-1.547,2.548-3.244,2.548
		h-30.122C381.313,222.75,380.385,221.979,380.077,220.433z"/>
</g>
<g>
	<path fill="#0092FF" d="M237.553,158.688c0.035,0.141,0.157,0.209,0.366,0.209h25.841c0.767,0,1.151,0.418,1.151,1.255
		l-1.569,12.345c-0.07,0.35-0.227,0.646-0.471,0.889c-0.245,0.245-0.541,0.366-0.889,0.366H214.38c-0.35,0-0.628-0.121-0.837-0.366
		c-0.209-0.244-0.28-0.54-0.209-0.889l1.465-11.613c0-0.627,0.278-1.151,0.837-1.569c4.881-4.185,10.949-9.834,18.204-16.948
		c-0.141,0.141,2.127-2.022,6.8-6.486c6.974-6.625,10.635-11.403,10.985-14.333c0.278-2.022-0.227-3.696-1.517-5.021
		c-1.291-1.324-3.086-1.988-5.388-1.988c-2.372,0-4.325,0.664-5.859,1.988c-1.535,1.326-2.442,3.07-2.72,5.231l-0.314,2.511
		c-0.07,0.35-0.245,0.646-0.523,0.889c-0.28,0.245-0.594,0.366-0.942,0.366H219.82c-0.35,0-0.627-0.121-0.837-0.366
		c-0.209-0.244-0.279-0.54-0.209-0.889l0.627-5.231c0.767-3.905,2.441-7.323,5.022-10.252c2.58-2.93,5.788-5.179,9.625-6.748
		c3.835-1.569,7.985-2.354,12.449-2.354c4.672,0,8.684,0.837,12.031,2.511s5.893,3.959,7.637,6.853
		c1.743,2.895,2.615,6.12,2.615,9.677c0,3.348-0.873,6.679-2.615,9.991c-1.744,3.313-4.36,6.818-7.846,10.514
		c-3.209,3.418-9.033,8.824-17.472,16.216l-3.138,2.825C237.57,158.411,237.518,158.549,237.553,158.688z"/>
	<path fill="#0092FF" d="M279.086,169.412c-3.941-3.73-5.911-8.84-5.911-15.327c0-1.324,0.104-2.72,0.314-4.185l3.138-25.527
		c0.906-7.601,3.887-13.617,8.945-18.047c5.056-4.428,11.456-6.643,19.198-6.643c7.044,0,12.554,1.849,16.53,5.545
		c3.976,3.697,5.963,8.788,5.963,15.274c0,0.769-0.07,2.058-0.209,3.871l-3.139,25.527c-0.978,7.742-4.011,13.862-9.102,18.36
		c-5.092,4.499-11.508,6.748-19.25,6.748C288.518,175.009,283.026,173.144,279.086,169.412z M303.881,157.59
		c1.708-1.638,2.702-3.887,2.981-6.748l3.348-27.096c0.069-0.418,0.105-0.976,0.105-1.674c0-2.37-0.646-4.219-1.936-5.544
		c-1.292-1.324-3.086-1.988-5.388-1.988c-2.581,0-4.708,0.82-6.381,2.458c-1.674,1.64-2.686,3.889-3.034,6.748l-3.348,27.096
		c-0.07,0.35-0.104,0.873-0.104,1.569c0,2.372,0.644,4.237,1.935,5.597c1.29,1.36,3.05,2.04,5.284,2.04
		C299.992,160.048,302.171,159.229,303.881,157.59z"/>
	<path fill="#0092FF" d="M353.154,158.688c0.035,0.141,0.157,0.209,0.366,0.209h25.841c0.767,0,1.151,0.418,1.151,1.255
		l-1.569,12.345c-0.07,0.35-0.227,0.646-0.471,0.889c-0.245,0.245-0.541,0.366-0.889,0.366h-47.602c-0.35,0-0.628-0.121-0.837-0.366
		c-0.209-0.244-0.28-0.54-0.209-0.889l1.465-11.613c0-0.627,0.278-1.151,0.837-1.569c4.881-4.185,10.949-9.834,18.204-16.948
		c-0.141,0.141,2.127-2.022,6.8-6.486c6.974-6.625,10.635-11.403,10.985-14.333c0.278-2.022-0.227-3.696-1.517-5.021
		c-1.291-1.324-3.086-1.988-5.388-1.988c-2.372,0-4.325,0.664-5.859,1.988c-1.535,1.326-2.442,3.07-2.72,5.231l-0.314,2.511
		c-0.07,0.35-0.245,0.646-0.523,0.889c-0.28,0.245-0.594,0.366-0.942,0.366h-14.542c-0.35,0-0.627-0.121-0.837-0.366
		c-0.209-0.244-0.279-0.54-0.209-0.889l0.627-5.231c0.767-3.905,2.441-7.323,5.022-10.252c2.58-2.93,5.788-5.179,9.625-6.748
		c3.834-1.569,7.985-2.354,12.449-2.354c4.672,0,8.684,0.837,12.031,2.511s5.893,3.959,7.637,6.853
		c1.743,2.895,2.615,6.12,2.615,9.677c0,3.348-0.873,6.679-2.615,9.991c-1.744,3.313-4.36,6.818-7.846,10.514
		c-3.209,3.418-9.033,8.824-17.472,16.216l-3.138,2.825C353.171,158.411,353.119,158.549,353.154,158.688z"/>
	<path fill="#0092FF" d="M406.772,100.521h14.856c0.348,0,0.627,0.123,0.837,0.366c0.209,0.245,0.278,0.541,0.209,0.889
		l-8.683,70.722c-0.07,0.35-0.227,0.646-0.471,0.889c-0.245,0.245-0.541,0.366-0.889,0.366h-14.438c-0.35,0-0.628-0.121-0.837-0.366
		c-0.209-0.244-0.28-0.54-0.209-0.889l6.8-55.343c0-0.139-0.07-0.278-0.209-0.418c-0.141-0.139-0.28-0.173-0.418-0.104
		l-10.148,2.406l-0.418,0.104c-0.698,0-0.978-0.382-0.837-1.151l1.151-10.985c0.139-0.696,0.523-1.185,1.151-1.464l10.985-4.708
		C405.69,100.625,406.213,100.521,406.772,100.521z"/>
	<path fill="#0092FF" d="M423.719,150.476c-0.209-0.244-0.279-0.54-0.209-0.89l1.569-12.345c0.069-0.348,0.226-0.644,0.471-0.889
		c0.243-0.244,0.539-0.366,0.889-0.366h34.524c0.348,0,0.628,0.123,0.837,0.366c0.209,0.245,0.278,0.541,0.209,0.889l-1.569,12.345
		c-0.07,0.35-0.228,0.646-0.471,0.89c-0.246,0.245-0.542,0.366-0.89,0.366h-34.524C424.207,150.842,423.929,150.721,423.719,150.476
		z"/>
	<path fill="#0092FF" d="M515.469,145.611c0,0.837-0.07,2.093-0.209,3.767c-0.489,3.697-1.605,7.219-3.348,10.566
		c-2.302,4.535-5.615,8.108-9.939,10.723c-4.325,2.616-9.172,3.923-14.542,3.923c-5.301,0-9.818-1.342-13.548-4.028
		c-3.732-2.684-6.225-6.33-7.48-10.933c-0.628-2.231-0.942-4.567-0.942-7.009l0.105-2.197c0.068-0.418,0.226-0.732,0.471-0.941
		c0.244-0.209,0.539-0.314,0.889-0.314h14.646c0.767,0,1.151,0.418,1.151,1.255c-0.141,1.954,0.069,3.627,0.627,5.022
		c0.349,1.396,1.028,2.458,2.04,3.191c1.01,0.732,2.25,1.098,3.714,1.098c2.859,0,5.161-1.324,6.905-3.975
		c1.255-1.813,1.988-4.115,2.197-6.905c0.139-1.255,0.209-2.161,0.209-2.72c0-1.883-0.246-3.417-0.732-4.604
		c-0.978-2.579-2.965-3.871-5.963-3.871c-0.768,0-1.64,0.261-2.615,0.785c-0.978,0.523-2.233,1.308-3.767,2.354
		c-0.279,0.209-0.559,0.313-0.837,0.313c-0.35,0-0.627-0.209-0.837-0.627l-5.963-10.462c-0.141-0.278-0.209-0.523-0.209-0.732
		c0-0.418,0.209-0.767,0.628-1.046l17.157-12.241c0.139-0.139,0.209-0.278,0.209-0.418c0-0.139-0.104-0.209-0.313-0.209H472.89
		c-0.35,0-0.628-0.121-0.837-0.366c-0.209-0.244-0.28-0.54-0.209-0.889l1.569-12.345c0.069-0.348,0.226-0.644,0.471-0.889
		c0.244-0.244,0.54-0.366,0.889-0.366h44.254c0.348,0,0.627,0.123,0.837,0.366c0.209,0.245,0.278,0.541,0.209,0.889l-1.674,13.915
		c-0.07,0.627-0.384,1.15-0.941,1.569l-13.496,9.939c-0.35,0.35-0.313,0.593,0.105,0.732c5.299,1.464,8.788,5.021,10.461,10.671
		C515.155,140.764,515.469,143.1,515.469,145.611z"/>
	<path fill="#0092FF" d="M599.16,91.422c0.732,0.418,1.046,0.732,1.046,0.942c0,0.313-0.314,0.627-0.941,1.046l-3.557,2.825v75.113
		c0,5.126-1.15,6.8-7.637,9.938c-0.418,0.209-0.837,0.314-1.046,0.314c-0.314,0-0.523-0.314-0.628-0.942
		c-0.837-4.394-2.615-5.858-13.077-8.892l0.209-1.569c6.277,1.046,10.252,1.569,12.763,1.569c3.975,0,4.498-1.255,4.498-3.662
		v-27.095h-39.858c-1.464,17.471-6.695,28.978-26.153,41.532l-0.837-1.36c19.876-17.471,22.597-26.258,22.597-59.944v-21.132
		c0-6.381-0.105-10.147-0.314-13.705l6.381,5.335h36.092l3.452-4.917L599.16,91.422z M590.791,138.708v-20.923H551.77l-0.104,6.591
		c-0.104,5.754-0.209,10.461-0.523,14.332H590.791z M590.791,115.483V94.038h-38.603l-0.418,21.446H590.791z"/>
	<path fill="#0092FF" d="M723.551,171.243c-5.754,0.523-9.311,2.825-10.252,5.649c-0.209,0.418-0.314,0.523-0.838,0.523h-0.627
		c-23.538-3.034-35.883-6.068-44.147-11.822c-7.428,6.382-23.015,12.554-41.636,15.901l-0.418-1.674
		c20.608-5.649,31.384-10.566,38.498-17.052c-4.499-4.185-7.847-9.625-11.717-17.052l1.36-0.837
		c3.557,6.486,8.473,12.031,12.763,15.587c2.929-3.348,4.498-7.428,5.23-18.621h-24.271v3.034c0,1.36-0.418,1.883-2.092,2.511
		c-0.941,0.418-1.674,0.732-2.093,0.732c-0.732,0-0.837-0.523-0.837-1.779v-1.464c0.209-3.138,0.314-7.009,0.314-11.507V113.6
		c0-2.406-0.105-7.114-0.314-10.147l6.486,5.335h23.225c0-4.08-0.105-8.474-0.21-13.182h-34.418c-2.197,0-5.23,0.418-7.009,1.151
		l-2.93-3.871c2.616,0.209,5.231,0.418,7.637,0.418h73.648l4.395-6.591l7.113,6.486c0.941,0.941,1.465,1.464,1.465,1.883
		s-0.628,0.523-1.883,0.523h-42.684v13.182h22.283l3.453-4.813l6.485,4.813c0.523,0.418,0.837,0.732,0.837,1.046
		s-0.209,0.628-0.732,1.046l-2.929,2.511v18.831c0,4.08,0.209,8.264,0.522,11.089c0.105,0.523,0.105,0.942,0.105,1.255
		c0,2.406-3.767,3.452-4.813,3.452c-0.732,0-0.837-0.523-0.837-1.464v-4.708h-25.212c-0.838,11.612-2.615,16.947-6.277,21.236
		c7.532,4.394,21.551,7.009,39.963,7.009c4.185,0,8.683-0.104,13.286-0.418L723.551,171.243z M672.289,123.853
		c0-3.871,0-8.055-0.104-12.763h-24.689v12.763H672.289z M671.871,139.544c0.209-3.661,0.314-8.16,0.418-13.391h-24.793v13.391
		H671.871z M701.687,139.544v-13.391h-24.479c-0.105,5.231-0.21,9.625-0.523,13.391H701.687z M701.687,123.853v-12.763h-24.376
		c0,4.708,0,8.893-0.104,12.763H701.687z"/>
	<path fill="#0092FF" d="M784.021,123.643c0.837,0.837,1.256,1.36,1.256,1.674c0,0.418-0.732,0.628-2.093,0.628h-21.446v13.809
		h10.775l4.185-5.544l5.336,5.544c0.628,0.732,1.046,1.255,1.046,1.569c0,0.523-0.628,0.732-1.987,0.732h-19.354v30.233
		c0,5.231-0.313,6.382-6.172,8.997c-0.313,0.104-0.523,0.209-0.732,0.209c-0.418,0-0.627-0.209-0.732-0.837
		c-0.627-2.615-2.092-4.394-10.775-6.904l0.21-1.465c5.23,0.942,8.474,1.36,10.356,1.36c2.72,0,2.93-0.941,2.93-2.615v-28.979
		h-14.019c-1.883,0-4.394,0.314-5.963,0.941l-2.511-3.557c2.301,0.209,4.498,0.314,6.486,0.314h16.006v-13.809h-16.948
		c-1.883,0-4.394,0.313-5.963,0.941l-2.511-3.557c2.302,0.209,4.499,0.313,6.486,0.313h21.864
		c3.348-5.858,6.067-11.821,9.102-19.249l5.126,2.929c0.837,0.523,1.256,0.837,1.256,1.151s-0.419,0.628-1.047,0.941
		c-1.987,0.837-2.511,1.255-3.242,2.302c-2.616,3.348-5.964,7.846-8.997,11.926h12.239l4.289-5.44L784.021,123.643z M750.127,150.32
		c0.627,0.314,0.941,0.732,0.941,1.046c0,0.419-0.314,0.732-1.047,0.942c-1.674,0.523-2.301,1.046-3.557,3.138
		c-5.754,9.52-9.415,14.542-13.809,19.877l-1.256-0.732c5.126-8.474,9.938-19.354,13.077-27.304L750.127,150.32z M783.394,99.268
		c0.837,0.732,1.151,1.255,1.151,1.569c0,0.523-0.628,0.732-1.883,0.732h-40.904c-1.884,0-4.395,0.313-5.963,0.941l-2.512-3.557
		c2.302,0.209,4.499,0.314,6.486,0.314h34.418l3.558-5.021L783.394,99.268z M742.699,104.29c8.055,3.976,11.402,7.218,11.402,11.089
		c0,2.511-1.464,4.394-3.242,4.394c-1.047,0-2.197-1.151-2.302-2.511c-0.523-4.185-2.302-7.951-6.591-12.135L742.699,104.29z
		 M751.695,84.936c8.265,2.615,11.508,5.23,11.508,9.206c0,2.72-1.778,4.708-3.557,4.708c-1.046,0-1.674-0.627-1.883-1.988
		c-0.837-4.917-2.302-7.428-6.8-10.88L751.695,84.936z M766.028,148.855c7.009,3.662,10.461,6.905,11.612,9.311
		c0.522,1.046,0.731,2.092,0.731,3.034c0,3.034-1.987,5.44-3.766,5.44c-1.046,0-1.674-0.627-1.778-2.197
		c-0.419-5.231-2.511-9.938-7.428-14.646L766.028,148.855z M827.228,123.12c0.837,0.837,1.255,1.464,1.255,1.778
		c0,0.418-0.522,0.523-1.569,0.523h-14.541v32.64c0,7.951,0.104,13.496,0.419,18.203v0.837c0,1.36-0.314,1.778-2.512,2.72
		c-0.941,0.419-1.674,0.628-2.196,0.628c-0.732,0-0.941-0.628-0.941-2.406v-0.941c0.209-6.172,0.313-11.821,0.313-19.249v-32.431
		h-14.123c0,29.292-1.569,38.08-24.898,57.957l-1.15-1.36c17.994-16.843,21.236-27.305,21.342-48.959
		c0-4.394,0.104-10.043,0.104-15.901c0-8.369-0.104-17.157-0.21-23.748l5.859,4.603c7.846-2.197,16.006-5.44,23.224-9.52
		l4.917,6.068c0.314,0.418,0.419,0.627,0.419,0.837c0,0.209-0.104,0.314-0.419,0.314c-0.418,0-2.511-0.419-3.033-0.419
		c-1.151,0-2.721,0.209-4.917,0.628l-20.923,4.185c-0.105,6.8-0.105,14.437-0.314,23.015h24.375l4.185-5.231L827.228,123.12z"/>
</g>
<g>
	<path fill="#FFFFFF" d="M142.533,349.857c-2.259,0-3.861,0.616-4.396,1.52c-0.082,0.123-0.164,0.205-0.288,0.205
		c-0.082,0-0.123,0-0.205-0.041c-6.901-2.752-10.393-5.545-13.227-11.625h-0.945c-2.218,6.531-8.092,9.94-18.238,11.83l-0.164-0.616
		c9.201-2.588,14.212-5.34,16.225-11.214h-12.118c-0.863,0-2.054,0.164-2.752,0.452l-1.15-1.52c1.027,0.083,2.054,0.165,2.999,0.165
		h13.309c0.37-1.232,0.493-2.464,0.534-3.574l2.793,0.945c0.206,0.082,0.329,0.165,0.329,0.247c0,0.123-0.123,0.205-1.191,0.945
		c-0.082,0.575-0.205,1.027-0.329,1.438h13.556l1.807-2.218l2.136,2.136c0.164,0.164,0.246,0.37,0.246,0.493
		c0,0.288-0.205,0.493-0.575,0.493h-15.65c3.204,5.463,7.271,8.215,17.293,9.447V349.857z M137.316,317.981
		c0.205,0.123,0.288,0.247,0.288,0.411c0,0.165-0.083,0.288-0.288,0.452l-1.109,0.821v9.489c0,2.095,0.083,4.478,0.165,5.833v0.205
		c0,0.452-0.165,0.575-1.109,0.986c-0.328,0.124-0.575,0.206-0.739,0.206c-0.246,0-0.288-0.165-0.288-0.616
		c0-0.821,0.042-4.765,0.042-5.668V319.09h-20.785v11.337c0,0.739,0.082,4.436,0.082,5.299c0,0.37-0.164,0.534-0.985,0.904
		c-0.37,0.164-0.616,0.246-0.781,0.246c-0.247,0-0.37-0.205-0.37-0.657c0-0.164,0.041-0.328,0.041-0.534
		c0.082-1.602,0.123-3.122,0.123-5.011v-9.407c0-1.355,0-3.327-0.082-4.56l1.972,1.479h5.463c0.698-1.808,1.273-3.697,1.684-5.628
		l2.465,0.945c0.287,0.083,0.411,0.206,0.411,0.329c0,0.124-0.124,0.247-0.411,0.411c-0.822,0.493-1.644,1.479-3.245,3.943h13.555
		l1.438-1.931L137.316,317.981z M132.263,327.552c0.206,0.206,0.288,0.37,0.288,0.493c0,0.164-0.123,0.246-0.411,0.246h-7.517v1.232
		c0,0.616,0.082,3.574,0.082,4.272c0,0.739-1.355,1.109-1.684,1.109c-0.247,0-0.288-0.123-0.288-0.37
		c0-0.698,0.083-4.107,0.083-4.888v-1.355h-0.534c-1.643,2.629-3.82,4.642-7.599,7.065l-0.247-0.411
		c2.3-1.849,5.011-4.519,5.956-6.655h-2.136c-0.863,0-2.054,0.165-2.752,0.452l-1.15-1.479c1.027,0.083,2.054,0.165,2.999,0.165
		h5.463v-3.41c0-1.232-0.042-3.204-0.083-4.313l2.629,1.314c0.288,0.165,0.452,0.288,0.452,0.411c0,0.164-0.124,0.246-1.191,0.739
		v5.258h4.929l1.273-1.438L132.263,327.552z M116.326,321.186c3.574,1.438,4.477,2.423,4.477,3.697c0,0.698-0.411,1.232-0.78,1.232
		c-0.452,0-0.739-0.329-1.068-1.273c-0.247-0.698-0.822-1.643-2.834-3.245L116.326,321.186z M125.239,330.14
		c3.615,0.657,5.504,1.52,6.121,2.465c0.205,0.287,0.288,0.616,0.288,0.944c0,0.575-0.288,1.191-0.904,1.191
		c-0.37,0-0.616-0.288-0.945-0.863c-0.452-0.78-1.767-1.972-4.683-3.327L125.239,330.14z M130.703,321.884
		c0.246,0.123,0.329,0.247,0.329,0.37s-0.124,0.247-0.452,0.37c-0.945,0.411-1.807,1.109-4.313,3.861l-0.329-0.247
		c1.314-2.054,2.382-3.861,3.04-5.34L130.703,321.884z"/>
	<path fill="#FFFFFF" d="M184.301,347.228c-1.89,0.247-3.327,1.109-3.697,2.136c-0.124,0.329-0.247,0.37-0.657,0.37
		c-12.364-0.206-16.965-0.329-18.649-0.534c-3.615-0.452-6.285-3.286-7.229-5.176c-0.288-0.534-0.534-0.862-0.822-0.862
		c-1.15,0-4.313,5.34-4.724,6.49c-0.082,0.206-0.123,0.329-0.247,0.329c-0.082,0-0.164-0.041-0.288-0.123l-2.054-1.314l6.285-5.833
		v-13.186h-3.245c-0.78,0-1.889,0.165-2.505,0.411l-1.027-1.396c0.904,0.082,1.849,0.165,2.711,0.165h3.204l1.438-2.136l2.834,2.095
		c0.205,0.164,0.328,0.287,0.328,0.37c0,0.123-0.123,0.205-0.37,0.37l-1.479,0.821v11.501c0,1.397,3.081,5.792,7.64,5.874
		c1.314,0.041,2.629,0.041,3.861,0.041c5.915,0,11.214-0.247,18.69-0.945V347.228z M148.811,314.777
		c3.491,1.602,6.162,4.026,6.367,5.299c0.041,0.206,0.041,0.452,0.041,0.657c0,1.15-0.493,2.013-1.068,2.013
		c-0.657,0-0.863-0.247-1.314-1.726c-0.411-1.355-2.054-4.025-4.231-5.792L148.811,314.777z M183.562,325.745
		c0.288,0.246,0.452,0.452,0.452,0.575c0,0.165-0.206,0.206-0.616,0.206h-12.939c-2.547,4.765-6.367,10.844-7.969,12.652
		l15.199-0.822c-1.027-2.3-2.67-4.888-4.519-7.024l0.37-0.411c1.684,1.355,7.476,6.203,7.476,9.366c0,1.273-0.698,2.259-1.561,2.259
		c-0.411,0-0.616-0.411-0.904-1.684c-0.123-0.575-0.329-1.232-0.616-1.931l-9.817,1.273c-4.354,0.575-5.463,0.945-6.203,1.479
		c-0.165,0.124-0.288,0.206-0.411,0.206c-0.123,0-0.246-0.124-0.452-0.37l-1.643-2.177c1.725-0.206,2.506-0.698,3.245-1.849
		c1.766-2.711,4.025-7.024,5.176-10.967h-6.819c-0.78,0-1.89,0.165-2.506,0.411l-1.027-1.479c0.904,0.082,1.849,0.164,2.711,0.164
		h18.813l1.766-2.423L183.562,325.745z M180.275,316.544c0.247,0.246,0.37,0.411,0.37,0.534c0,0.206-0.206,0.288-0.534,0.288
		h-15.363c-0.78,0-1.889,0.165-2.505,0.411l-1.027-1.479c0.904,0.082,1.849,0.164,2.711,0.164h11.953l1.725-2.341L180.275,316.544z"
		/>
	<path fill="#FFFFFF" d="M225.33,330.099c-2.3-0.165-3.779,0.616-4.313,1.561c-0.082,0.123-0.164,0.205-0.246,0.205
		s-0.206-0.041-0.329-0.123c-6.08-3.738-11.132-8.708-13.925-15.24c-0.246,0.165-0.452,0.37-0.657,0.616
		c-7.517,9.16-11.214,12.57-19.06,17.622l-0.205-0.575c8.626-6.736,14.212-12.528,18.443-20.703l2.958,1.725
		c0.247,0.124,0.37,0.247,0.37,0.37c0,0.082-0.123,0.164-0.37,0.246c-0.329,0.124-0.575,0.206-0.863,0.329
		c4.025,7.312,10.105,12.241,18.197,13.556V330.099z M221.592,336.507c0.288,0.247,0.411,0.452,0.411,0.616
		c0,0.165-0.206,0.288-0.575,0.288h-17.91l2.054,1.561c0.164,0.123,0.287,0.247,0.287,0.329c0,0.123-0.164,0.205-0.575,0.247
		c-0.781,0.123-1.232,0.37-1.931,1.068c-2.382,2.423-4.724,4.765-7.147,7.065l18.69-0.78c-1.438-2.013-3.492-4.108-5.627-5.792
		l0.247-0.411c5.422,3.04,8.996,6.121,9.324,7.517c0.082,0.411,0.123,0.739,0.123,1.068c0,1.314-0.698,1.89-1.191,1.89
		c-0.575,0-1.027-0.698-1.232-1.232c-0.247-0.698-0.657-1.479-1.15-2.259l-14.13,1.438c-3.656,0.37-5.792,0.78-6.613,1.314
		c-0.164,0.123-0.288,0.164-0.37,0.164c-0.164,0-0.247-0.082-0.329-0.246l-1.561-2.67c2.177-0.246,3.04-0.534,3.902-1.479
		c2.259-2.423,4.642-5.586,6.449-8.791h-9.899c-0.863,0-2.054,0.165-2.752,0.452l-1.15-1.52c1.027,0.082,2.054,0.164,2.999,0.164
		h25.303l1.684-2.3L221.592,336.507z M214.403,329.647c0.329,0.288,0.493,0.493,0.493,0.657c0,0.165-0.247,0.247-0.657,0.247
		h-14.295c-0.862,0-2.054,0.165-2.752,0.452l-1.15-1.52c1.027,0.082,2.054,0.164,2.999,0.164h11.542l1.561-2.095L214.403,329.647z"
		/>
	<path fill="#FFFFFF" d="M227.747,347.742c-0.083-0.096-0.11-0.212-0.083-0.349l3.409-27.764c0-0.137,0.054-0.253,0.164-0.349
		c0.109-0.096,0.232-0.144,0.37-0.144h5.626c0.301,0,0.452,0.164,0.452,0.493l-2.752,22.219c0,0.137,0.055,0.205,0.165,0.205h12.731
		c0.137,0,0.247,0.048,0.329,0.144c0.082,0.096,0.109,0.212,0.082,0.349l-0.575,4.847c-0.028,0.137-0.096,0.253-0.206,0.349
		c-0.11,0.096-0.233,0.144-0.37,0.144h-19.016C227.938,347.885,227.829,347.838,227.747,347.742z"/>
	<path fill="#FFFFFF" d="M253.333,345.873c-1.725-1.643-2.587-3.861-2.587-6.654c0-0.684,0.027-1.218,0.082-1.602l1.027-8.214
		c0.247-2.081,0.924-3.922,2.033-5.524c1.109-1.602,2.532-2.848,4.271-3.737s3.676-1.335,5.812-1.335
		c1.971,0,3.682,0.37,5.134,1.109c1.451,0.739,2.567,1.787,3.347,3.142c0.78,1.355,1.17,2.937,1.17,4.744
		c0,0.712-0.027,1.247-0.082,1.602l-0.986,8.214c-0.246,2.136-0.924,4.011-2.033,5.626c-1.109,1.616-2.54,2.869-4.292,3.758
		c-1.752,0.889-3.71,1.334-5.873,1.334C257.399,348.337,255.059,347.516,253.333,345.873z M264.32,341.211
		c0.89-0.862,1.417-1.992,1.581-3.388l1.068-8.501c0.027-0.165,0.041-0.411,0.041-0.739c0-1.205-0.335-2.163-1.006-2.875
		c-0.671-0.712-1.582-1.068-2.731-1.068c-1.26,0-2.334,0.431-3.224,1.293c-0.89,0.863-1.417,1.992-1.581,3.389l-1.027,8.501
		c-0.027,0.192-0.041,0.466-0.041,0.821c0,1.205,0.329,2.15,0.986,2.834c0.657,0.685,1.546,1.026,2.669,1.026
		C262.341,342.505,263.43,342.074,264.32,341.211z"/>
	<path fill="#FFFFFF" d="M278.017,345.791c-1.698-1.615-2.546-3.778-2.546-6.489c0-0.712,0.027-1.246,0.082-1.602l1.027-8.419
		c0.247-2.08,0.91-3.908,1.992-5.483c1.081-1.574,2.484-2.799,4.209-3.676c1.725-0.875,3.641-1.314,5.75-1.314
		c1.944,0,3.641,0.363,5.093,1.088c1.451,0.726,2.566,1.718,3.347,2.978c0.78,1.26,1.17,2.669,1.17,4.23
		c0,0.247-0.028,0.644-0.082,1.191l-0.042,0.205c-0.027,0.138-0.089,0.253-0.185,0.349c-0.096,0.096-0.212,0.144-0.349,0.144h-5.667
		c-0.138,0-0.247-0.048-0.329-0.144c-0.083-0.096-0.11-0.211-0.083-0.349c0.027-0.109,0.042-0.273,0.042-0.493
		c0-0.958-0.315-1.759-0.945-2.403c-0.63-0.643-1.52-0.965-2.669-0.965c-1.205,0-2.232,0.411-3.081,1.232s-1.355,1.889-1.52,3.204
		l-1.109,8.83c-0.027,0.137-0.041,0.356-0.041,0.657c0,1.123,0.363,2.033,1.088,2.731c0.725,0.698,1.649,1.047,2.772,1.047
		c1.177,0,2.163-0.322,2.957-0.965c0.793-0.643,1.259-1.54,1.396-2.69l0.124-1.15c0.055-0.137,0-0.206-0.165-0.206h-3.983
		c-0.138,0-0.247-0.047-0.329-0.144c-0.083-0.096-0.11-0.212-0.083-0.349l0.534-4.518c0.027-0.137,0.088-0.253,0.185-0.349
		c0.096-0.096,0.212-0.144,0.349-0.144h10.227c0.137,0,0.247,0.048,0.329,0.144c0.082,0.096,0.109,0.212,0.082,0.349l-0.698,5.585
		c-0.246,2.053-0.903,3.86-1.971,5.421c-1.068,1.561-2.464,2.766-4.189,3.614c-1.725,0.849-3.655,1.273-5.791,1.273
		C282.014,348.214,279.714,347.407,278.017,345.791z"/>
	<path fill="#FFFFFF" d="M302.412,345.873c-1.725-1.643-2.587-3.861-2.587-6.654c0-0.684,0.027-1.218,0.082-1.602l1.027-8.214
		c0.247-2.081,0.924-3.922,2.033-5.524c1.109-1.602,2.532-2.848,4.271-3.737s3.676-1.335,5.812-1.335
		c1.971,0,3.682,0.37,5.134,1.109c1.451,0.739,2.567,1.787,3.347,3.142c0.78,1.355,1.17,2.937,1.17,4.744
		c0,0.712-0.027,1.247-0.082,1.602l-0.986,8.214c-0.246,2.136-0.924,4.011-2.033,5.626c-1.109,1.616-2.54,2.869-4.292,3.758
		c-1.752,0.889-3.71,1.334-5.873,1.334C306.478,348.337,304.137,347.516,302.412,345.873z M313.398,341.211
		c0.89-0.862,1.417-1.992,1.581-3.388l1.068-8.501c0.027-0.165,0.041-0.411,0.041-0.739c0-1.205-0.335-2.163-1.006-2.875
		c-0.671-0.712-1.582-1.068-2.731-1.068c-1.26,0-2.334,0.431-3.224,1.293c-0.89,0.863-1.417,1.992-1.581,3.389l-1.027,8.501
		c-0.027,0.192-0.041,0.466-0.041,0.821c0,1.205,0.329,2.15,0.986,2.834c0.657,0.685,1.546,1.026,2.669,1.026
		C311.419,342.505,312.508,342.074,313.398,341.211z"/>
</g>
<g>
	<path fill="#FFFFFF" d="M529.122,340.122c0,6.08,0.493,8.01,1.15,8.791c0.452,0.575,0.657,0.863,0.657,1.15
		c0,0.493-0.493,0.534-0.739,0.534c-0.452,0-1.109-0.123-2.177-0.37c-8.79-2.136-13.678-6.983-15.403-16.266h-11.748v12.898
		l10.516-4.642l0.288,0.493c-8.297,4.601-11.173,6.449-11.789,7.435c-0.206,0.329-0.329,0.493-0.493,0.493
		c-0.123,0-0.246-0.123-0.411-0.287l-1.849-1.767c1.52-0.945,1.849-1.314,1.849-3.245v-25.796c0-2.259-0.041-4.313-0.123-5.258
		l2.505,2.177h20.086l1.232-1.848l2.506,1.889c0.247,0.165,0.37,0.288,0.37,0.411c0,0.123-0.123,0.246-0.37,0.37l-1.232,0.739v3.984
		c0,1.479,0.041,2.588,0.165,3.861c0,0.165,0.041,0.288,0.041,0.37c0,0.452-0.206,0.616-0.986,1.027
		c-0.411,0.247-0.698,0.329-0.863,0.329c-0.247,0-0.288-0.205-0.288-0.616v-1.52h-8.174c0,2.464,0.124,5.299,0.493,7.558h11.132
		l1.684-2.424l2.793,2.506c0.329,0.288,0.493,0.493,0.493,0.657s-0.206,0.206-0.616,0.206h-15.322
		c1.479,7.681,5.874,12.487,13.186,13.802l0.78-7.641H529.122z M522.016,324.554v-7.188h-21.154v7.188H522.016z M512.445,333.016
		c-0.411-2.382-0.616-5.176-0.657-7.558h-10.926v7.558H512.445z"/>
	<path fill="#FFFFFF" d="M547.436,322.705c0.205,0.124,0.329,0.247,0.329,0.329c0,0.083-0.124,0.165-0.37,0.206
		c-0.78,0.123-1.191,0.452-1.52,1.027c-1.15,1.849-2.382,3.738-3.615,5.504l1.848,1.191c0.124,0.083,0.206,0.165,0.206,0.247
		c0,0.124-0.123,0.165-1.15,0.74v12.405c0,0.781,0.082,4.519,0.082,5.381c0,0.452-0.123,0.616-0.904,1.027
		c-0.411,0.205-0.698,0.329-0.863,0.329c-0.287,0-0.328-0.206-0.328-0.781v-0.616c0.082-1.232,0.123-3.738,0.123-5.422v-13.063
		c-2.218,3.081-4.396,5.751-6.244,7.353l-0.37-0.452c2.382-2.999,7.394-10.351,10.434-17.006L547.436,322.705z M570.48,319.049
		c0.164,0.124,0.247,0.206,0.247,0.288s-0.165,0.124-0.493,0.165c-1.314,0.082-2.547,0.534-5.217,3.656l-0.493-0.37l1.848-3.245
		h-25.919c-0.329,2.259-1.109,4.683-3.204,4.683c-0.74,0-1.314-0.411-1.314-0.821c0-0.452,0.493-1.068,1.15-1.52
		c1.355-0.945,2.465-2.3,3.04-5.011l0.534,0.082c-0.041,0.616-0.041,1.191-0.123,1.684h25.632l1.479-1.807L570.48,319.049z
		 M570.768,325.458c0.164,0.164,0.246,0.288,0.246,0.37s-0.164,0.123-0.452,0.123h-10.557c-0.822,1.027-1.972,3.204-3.163,5.751
		h7.065l1.232-1.808l2.711,1.808c0.205,0.123,0.329,0.247,0.329,0.37s-0.124,0.205-0.37,0.37l-1.191,0.739v10.105
		c0,1.808,0.082,4.066,0.206,5.915v0.164c0,0.781-1.849,1.397-1.89,1.397c-0.206,0-0.247-0.206-0.247-0.575v-2.629h-12.651v1.643
		c0,0.821-0.083,0.986-1.027,1.479c-0.37,0.165-0.575,0.288-0.74,0.288c-0.205,0-0.288-0.164-0.288-0.534
		c0-0.124,0.041-0.288,0.041-0.452c0.083-1.438,0.124-3.615,0.124-5.709v-9.324c0-1.52-0.041-3.943-0.124-5.34l2.506,2.095h3.574
		c0.575-2.054,0.986-3.82,1.191-5.751h-6.121c-0.863,0-2.054,0.165-2.752,0.452l-1.15-1.479c1.027,0.082,2.054,0.165,2.999,0.165
		h16.226l1.766-2.136L570.768,325.458z M550.394,312.929c4.272,1.438,5.011,2.423,5.011,3.82c0,0.986-0.493,1.767-1.027,1.767
		c-0.822,0-0.986-0.329-1.314-1.479c-0.206-0.78-1.191-2.3-2.917-3.656L550.394,312.929z M564.688,338.807v-6.244h-12.651v6.244
		H564.688z M564.688,346.653v-6.942h-12.651v6.942H564.688z"/>
	<path fill="#FFFFFF" d="M575.669,347.742c-0.096-0.096-0.144-0.212-0.144-0.349v-27.764c0-0.137,0.048-0.253,0.144-0.349
		c0.096-0.096,0.212-0.144,0.349-0.144h5.832c0.137,0,0.252,0.048,0.349,0.144c0.095,0.096,0.144,0.212,0.144,0.349v22.219
		c0,0.137,0.068,0.205,0.206,0.205h13.101c0.137,0,0.253,0.048,0.349,0.144c0.096,0.096,0.144,0.212,0.144,0.349v4.847
		c0,0.137-0.048,0.253-0.144,0.349c-0.096,0.096-0.212,0.144-0.349,0.144h-19.631C575.881,347.885,575.765,347.838,575.669,347.742z
		"/>
	<path fill="#FFFFFF" d="M603.515,347.002c-1.684-0.89-2.992-2.142-3.922-3.758c-0.931-1.615-1.396-3.491-1.396-5.626v-8.214
		c0-2.081,0.465-3.922,1.396-5.524c0.931-1.602,2.238-2.848,3.922-3.737c1.684-0.89,3.635-1.335,5.853-1.335
		s4.175,0.445,5.873,1.335c1.697,0.89,3.011,2.135,3.942,3.737c0.931,1.602,1.396,3.443,1.396,5.524v8.214
		c0,2.136-0.466,4.011-1.396,5.626c-0.931,1.616-2.245,2.869-3.942,3.758c-1.698,0.889-3.655,1.334-5.873,1.334
		S605.199,347.892,603.515,347.002z M612.55,341.232c0.808-0.849,1.212-1.985,1.212-3.409v-8.501c0-1.396-0.404-2.526-1.212-3.389
		c-0.808-0.862-1.869-1.293-3.183-1.293c-1.288,0-2.335,0.431-3.142,1.293c-0.808,0.863-1.211,1.992-1.211,3.389v8.501
		c0,1.424,0.403,2.56,1.211,3.409c0.807,0.849,1.854,1.273,3.142,1.273C610.682,342.505,611.743,342.081,612.55,341.232z"/>
	<path fill="#FFFFFF" d="M628.937,346.899c-1.657-0.876-2.943-2.108-3.86-3.696c-0.917-1.587-1.376-3.422-1.376-5.503v-8.419
		c0-2.08,0.458-3.908,1.376-5.483c0.917-1.574,2.204-2.799,3.86-3.676c1.657-0.875,3.58-1.314,5.771-1.314
		c2.163,0,4.08,0.417,5.75,1.252c1.669,0.835,2.963,1.979,3.881,3.43c0.917,1.451,1.376,3.053,1.376,4.805v0.205
		c0,0.138-0.048,0.253-0.144,0.349c-0.097,0.096-0.213,0.144-0.35,0.144h-5.832c-0.137,0-0.253-0.048-0.349-0.144
		c-0.096-0.096-0.144-0.211-0.144-0.349c0-1.068-0.377-1.978-1.13-2.731c-0.753-0.753-1.773-1.129-3.06-1.129
		c-1.26,0-2.273,0.411-3.039,1.232c-0.767,0.821-1.15,1.889-1.15,3.204v8.83c0,1.314,0.424,2.382,1.273,3.204
		c0.849,0.821,1.917,1.232,3.204,1.232c1.205,0,2.177-0.322,2.916-0.965c0.739-0.643,1.109-1.54,1.109-2.69v-1.15
		c0-0.137-0.069-0.206-0.206-0.206h-4.107c-0.137,0-0.253-0.047-0.349-0.144c-0.096-0.096-0.144-0.212-0.144-0.349v-4.518
		c0-0.137,0.047-0.253,0.144-0.349c0.096-0.096,0.212-0.144,0.349-0.144h10.514c0.137,0,0.253,0.048,0.35,0.144
		c0.096,0.096,0.144,0.212,0.144,0.349v5.585c0,2.053-0.459,3.86-1.376,5.421c-0.918,1.561-2.204,2.766-3.86,3.614
		c-1.657,0.849-3.58,1.273-5.771,1.273C632.516,348.214,630.593,347.776,628.937,346.899z"/>
	<path fill="#FFFFFF" d="M654.153,347.002c-1.684-0.89-2.991-2.142-3.922-3.758c-0.932-1.615-1.396-3.491-1.396-5.626v-8.214
		c0-2.081,0.465-3.922,1.396-5.524c0.931-1.602,2.238-2.848,3.922-3.737s3.635-1.335,5.853-1.335s4.175,0.445,5.873,1.335
		c1.697,0.89,3.012,2.135,3.942,3.737c0.931,1.602,1.396,3.443,1.396,5.524v8.214c0,2.136-0.466,4.011-1.396,5.626
		c-0.931,1.616-2.245,2.869-3.942,3.758c-1.698,0.889-3.655,1.334-5.873,1.334S655.837,347.892,654.153,347.002z M663.188,341.232
		c0.808-0.849,1.212-1.985,1.212-3.409v-8.501c0-1.396-0.404-2.526-1.212-3.389c-0.808-0.862-1.868-1.293-3.183-1.293
		c-1.287,0-2.335,0.431-3.142,1.293c-0.809,0.863-1.212,1.992-1.212,3.389v8.501c0,1.424,0.403,2.56,1.212,3.409
		c0.807,0.849,1.854,1.273,3.142,1.273C661.32,342.505,662.381,342.081,663.188,341.232z"/>
</g>
<g>
	<path fill="#FFFFFF" d="M862.088,323.239c4.601,1.314,6.079,3.286,6.079,4.436c0,0.986-0.821,1.52-1.314,1.52
		s-1.027-0.411-1.314-1.232c-0.37-1.109-1.355-2.629-3.738-4.272L862.088,323.239z M872.891,320.528
		c-1.314,5.217-3.081,11.83-4.148,15.568c-0.37,1.314-0.575,2.424-0.575,3.615c0,1.766,0.411,3.738,1.15,7.106
		c0.123,0.493,0.164,0.945,0.164,1.355c0,1.027-0.411,1.684-1.52,1.684c-0.904,0-1.314-0.534-1.314-1.89
		c0-0.657,0.123-3.656,0.123-4.189c0-2.875-0.329-3.861-0.862-4.231c-0.781-0.534-1.931-0.945-3.574-1.109l0.082-0.534
		c3.492,0,3.902-0.247,4.971-3.492l4.765-14.048L872.891,320.528z M864.511,314.367c3.779,0.945,5.628,2.341,5.956,3.245
		c0.124,0.37,0.206,0.739,0.206,1.027c0,1.15-0.821,1.807-1.355,1.807c-0.411,0-0.657-0.287-1.15-1.52s-1.561-2.588-3.902-4.108
		L864.511,314.367z M899.468,315.928c0.287,0.288,0.41,0.493,0.41,0.616c0,0.164-0.205,0.246-0.616,0.246h-10.228v6.449h4.478
		l1.314-2.095l2.546,1.602c0.329,0.205,0.493,0.328,0.493,0.493c0,0.123-0.123,0.247-0.41,0.411l-1.15,0.739v16.554
		c0,3.122,0.082,5.586,0.205,7.435v0.287c0,0.534-0.164,0.657-0.985,1.15c-0.411,0.247-0.698,0.411-0.863,0.411
		c-0.205,0-0.287-0.247-0.287-0.739v-3.286h-17.909v3.286c0,0.739-1.808,1.232-1.808,1.232c-0.247,0-0.329-0.206-0.329-0.699
		c0-0.164,0.041-0.37,0.041-0.575c0.124-1.767,0.165-3.615,0.165-6.203v-16.759c0-1.52-0.041-3.984-0.124-5.34l2.219,2.095h4.642
		v-6.449h-5.217c-0.862,0-2.054,0.165-2.752,0.452l-1.15-1.52c1.027,0.082,2.054,0.165,2.999,0.165h19.922l1.89-2.424
		L899.468,315.928z M894.374,339.095v-14.952h-5.34v7.763c0,0.822,0.534,1.397,1.766,1.397c0.452,0,1.027-0.083,1.726-0.288
		c0.821,0.575,1.479,1.438,1.479,1.725c0,0.082-0.082,0.164-0.287,0.164c-0.904,0.042-1.685,0.042-2.383,0.042
		c-3.861,0-4.23-0.493-4.23-2.629v-8.174h-3.984c0,7.024-0.534,10.392-6.162,13.391l-0.082-0.698
		c4.313-3.697,4.396-5.463,4.396-12.692h-4.806v14.952H894.374z M894.374,345.297v-5.299h-17.909v5.299H894.374z M887.104,323.239
		v-6.449h-3.984v6.449H887.104z"/>
	<path fill="#FFFFFF" d="M941.071,348.953c-2.095,0-3.039,0.74-3.696,1.808c-0.082,0.164-0.164,0.247-0.329,0.247
		c-0.123,0-0.287-0.042-0.575-0.165c-6.777-2.711-10.639-6.121-13.268-12.159h-1.191c-1.026,3.656-2.341,5.792-5.052,7.764
		c-3.861,2.752-8.791,4.23-12.816,4.97l-0.205-0.493c2.506-0.78,8.749-2.958,12.158-5.833c1.89-1.602,3.122-3.492,3.861-6.408
		H907.43c-0.903,0-1.931,0.206-2.752,0.452l-1.15-1.52c1.068,0.082,2.054,0.164,2.999,0.164h13.679
		c0.287-1.232,0.492-2.588,0.657-4.19l2.67,1.027c0.164,0.041,0.246,0.164,0.246,0.246c0,0.124-0.082,0.247-0.287,0.37
		c-0.698,0.452-0.822,0.698-0.904,1.15c-0.123,0.493-0.205,0.945-0.328,1.396h13.555l1.767-2.177l2.67,2.464
		c0.205,0.165,0.288,0.329,0.288,0.411c0,0.124-0.124,0.206-0.452,0.206H923.86c3.902,6.613,9.201,9.201,17.211,9.653V348.953z
		 M940.045,323.034c0.164,0.165,0.287,0.329,0.287,0.411c0,0.123-0.164,0.164-0.451,0.164h-16.637v2.054
		c6.203,1.15,11.83,3.163,13.186,4.354c0.781,0.698,1.109,1.438,1.109,2.054c0,0.698-0.37,1.191-0.862,1.191
		c-0.329,0-0.698-0.288-1.314-0.863c-2.178-2.013-6.613-4.478-12.118-6.203c0,1.314,0.041,2.793,0.165,4.519v0.288
		c0,0.575-0.165,0.739-1.027,1.109c-0.493,0.206-0.821,0.329-1.027,0.329c-0.246,0-0.287-0.165-0.287-0.493v-0.247
		c0.164-2.67,0.287-4.929,0.287-7.887c-5.422,5.299-10.516,8.832-16.841,12.118l-0.288-0.534
		c5.997-3.533,11.584-8.133,14.788-11.789h-11.296c-0.822,0-2.178,0.288-2.753,0.452l-1.149-1.52
		c1.149,0.082,2.177,0.164,2.998,0.164h14.541v-3.984c0-1.684-0.082-4.477-0.164-5.997l3.04,1.643
		c0.164,0.082,0.246,0.164,0.246,0.247c0,0.082-0.082,0.205-0.246,0.329l-0.986,0.698v7.065h3.286
		c1.644-2.423,3.204-4.888,4.848-7.845l2.423,1.479c0.206,0.123,0.329,0.206,0.329,0.288c0,0.123-0.123,0.164-0.411,0.247
		c-0.903,0.205-1.15,0.329-1.849,1.027c-1.479,1.561-2.875,3.04-4.601,4.806h8.175l1.972-2.3L940.045,323.034z M910.1,314.942
		c1.726,0.534,6.326,2.67,6.326,4.847c0,1.027-0.78,1.849-1.232,1.849s-0.739-0.534-0.944-1.15
		c-0.493-1.479-2.013-3.533-4.396-5.217L910.1,314.942z"/>
	<path fill="#FFFFFF" d="M944.782,347.742c-0.097-0.096-0.145-0.212-0.145-0.349v-27.764c0-0.137,0.048-0.253,0.145-0.349
		c0.096-0.096,0.212-0.144,0.349-0.144h5.832c0.137,0,0.253,0.048,0.35,0.144c0.095,0.096,0.144,0.212,0.144,0.349v22.219
		c0,0.137,0.067,0.205,0.205,0.205h13.102c0.137,0,0.253,0.048,0.349,0.144c0.096,0.096,0.145,0.212,0.145,0.349v4.847
		c0,0.137-0.049,0.253-0.145,0.349c-0.096,0.096-0.212,0.144-0.349,0.144h-19.632C944.994,347.885,944.878,347.838,944.782,347.742z
		"/>
	<path fill="#FFFFFF" d="M972.628,347.002c-1.684-0.89-2.991-2.142-3.922-3.758c-0.932-1.615-1.396-3.491-1.396-5.626v-8.214
		c0-2.081,0.465-3.922,1.396-5.524c0.931-1.602,2.238-2.848,3.922-3.737s3.635-1.335,5.853-1.335s4.175,0.445,5.873,1.335
		c1.697,0.89,3.012,2.135,3.942,3.737c0.931,1.602,1.396,3.443,1.396,5.524v8.214c0,2.136-0.466,4.011-1.396,5.626
		c-0.931,1.616-2.245,2.869-3.942,3.758c-1.698,0.889-3.655,1.334-5.873,1.334S974.312,347.892,972.628,347.002z M981.663,341.232
		c0.808-0.849,1.212-1.985,1.212-3.409v-8.501c0-1.396-0.404-2.526-1.212-3.389c-0.808-0.862-1.868-1.293-3.183-1.293
		c-1.287,0-2.335,0.431-3.142,1.293c-0.809,0.863-1.212,1.992-1.212,3.389v8.501c0,1.424,0.403,2.56,1.212,3.409
		c0.807,0.849,1.854,1.273,3.142,1.273C979.795,342.505,980.855,342.081,981.663,341.232z"/>
	<path fill="#FFFFFF" d="M998.05,346.899c-1.657-0.876-2.943-2.108-3.86-3.696c-0.918-1.587-1.376-3.422-1.376-5.503v-8.419
		c0-2.08,0.458-3.908,1.376-5.483c0.917-1.574,2.203-2.799,3.86-3.676c1.656-0.875,3.579-1.314,5.771-1.314
		c2.162,0,4.079,0.417,5.75,1.252c1.669,0.835,2.963,1.979,3.881,3.43c0.917,1.451,1.376,3.053,1.376,4.805v0.205
		c0,0.138-0.048,0.253-0.144,0.349c-0.097,0.096-0.213,0.144-0.35,0.144h-5.832c-0.137,0-0.253-0.048-0.349-0.144
		c-0.097-0.096-0.144-0.211-0.144-0.349c0-1.068-0.377-1.978-1.13-2.731c-0.753-0.753-1.773-1.129-3.06-1.129
		c-1.26,0-2.273,0.411-3.039,1.232c-0.768,0.821-1.15,1.889-1.15,3.204v8.83c0,1.314,0.425,2.382,1.273,3.204
		c0.849,0.821,1.916,1.232,3.203,1.232c1.205,0,2.177-0.322,2.916-0.965c0.739-0.643,1.109-1.54,1.109-2.69v-1.15
		c0-0.137-0.069-0.206-0.206-0.206h-4.106c-0.138,0-0.254-0.047-0.35-0.144c-0.096-0.096-0.144-0.212-0.144-0.349v-4.518
		c0-0.137,0.048-0.253,0.144-0.349c0.096-0.096,0.212-0.144,0.35-0.144h10.514c0.137,0,0.253,0.048,0.35,0.144
		c0.096,0.096,0.144,0.212,0.144,0.349v5.585c0,2.053-0.459,3.86-1.376,5.421c-0.918,1.561-2.204,2.766-3.86,3.614
		c-1.657,0.849-3.58,1.273-5.771,1.273C1001.629,348.214,999.706,347.776,998.05,346.899z"/>
	<path fill="#FFFFFF" d="M1023.267,347.002c-1.684-0.89-2.991-2.142-3.922-3.758c-0.932-1.615-1.396-3.491-1.396-5.626v-8.214
		c0-2.081,0.465-3.922,1.396-5.524c0.931-1.602,2.238-2.848,3.922-3.737s3.635-1.335,5.853-1.335s4.175,0.445,5.873,1.335
		c1.697,0.89,3.012,2.135,3.942,3.737c0.931,1.602,1.396,3.443,1.396,5.524v8.214c0,2.136-0.466,4.011-1.396,5.626
		c-0.931,1.616-2.245,2.869-3.942,3.758c-1.698,0.889-3.655,1.334-5.873,1.334S1024.95,347.892,1023.267,347.002z M1032.302,341.232
		c0.808-0.849,1.212-1.985,1.212-3.409v-8.501c0-1.396-0.404-2.526-1.212-3.389c-0.808-0.862-1.868-1.293-3.183-1.293
		c-1.287,0-2.335,0.431-3.142,1.293c-0.809,0.863-1.212,1.992-1.212,3.389v8.501c0,1.424,0.403,2.56,1.212,3.409
		c0.807,0.849,1.854,1.273,3.142,1.273C1030.434,342.505,1031.494,342.081,1032.302,341.232z"/>
</g>
<g>
	<path fill="#BF5900" d="M899.509,491.965c0.246,0.247,0.369,0.411,0.369,0.493c0,0.123-0.164,0.164-0.534,0.164h-17.211v11.091
		c0,2.999-0.082,3.122-2.588,4.724c-0.164,0.083-0.246,0.165-0.328,0.165c-0.123,0-0.206-0.124-0.247-0.37
		c-0.328-1.438-0.78-2.3-5.299-3.368l0.041-0.616c2.26,0.329,3.738,0.452,4.725,0.452c1.561,0,1.725-0.411,1.725-1.109v-10.968
		h-14.212c-1.314,0-2.137,0.041-2.67,0.247l-1.232-1.273c0.944,0.082,2.054,0.124,2.998,0.124h15.116v-7.559h-9.201
		c-1.684,0-2.3,0.083-2.957,0.206l-1.396-1.232c1.026,0.083,2.054,0.124,2.998,0.124h10.557v-7.764
		c-5.751,0.452-11.255,0.657-15.855,0.698v-0.698c9.899-0.821,20.867-1.89,29.082-3.902l1.685,2.506
		c0.164,0.205,0.246,0.37,0.246,0.452c0,0.041-0.041,0.083-0.082,0.083c-0.123,0-0.246-0.083-0.493-0.165
		c-0.616-0.247-1.479-0.37-2.218-0.37c-0.328,0-0.616,0-0.862,0.041c-3.163,0.493-6.408,0.863-9.53,1.15v7.969h8.38l1.849-2.177
		l2.423,2.465c0.206,0.205,0.329,0.37,0.329,0.452c0,0.123-0.164,0.164-0.493,0.164h-12.487v7.559h12.939l1.89-2.301
		L899.509,491.965z"/>
	<path fill="#BF5900" d="M919.712,480.669c0.246,0.205,0.369,0.37,0.369,0.493c0,0.124-0.205,0.206-0.533,0.206h-7.312v4.929
		c3.491,1.109,6.284,2.547,6.284,4.724c0,0.863-0.411,1.602-0.862,1.602c-0.411,0-0.863-0.288-1.232-1.232
		c-0.575-1.396-2.342-3.327-4.189-4.23v12.323c0,3.451,0,6.326,0.082,8.051v0.329c0,0.534-0.124,0.698-0.986,1.068
		c-0.369,0.164-0.657,0.247-0.862,0.247c-0.247,0-0.329-0.206-0.329-0.74v-0.575c0.124-2.383,0.206-6.121,0.206-8.462v-13.309
		c-1.603,4.56-3.492,8.298-6.901,13.556l-0.452-0.411c3.328-5.833,5.505-11.789,7.147-17.868h-3.162
		c-0.863,0-2.055,0.164-2.753,0.452l-1.149-1.52c1.149,0.123,2.259,0.164,2.998,0.164h4.272v-3.697c0-1.684-0.082-4.478-0.165-5.997
		l2.999,1.561c0.205,0.124,0.328,0.206,0.328,0.329c0,0.123-0.082,0.205-0.246,0.328l-1.026,0.699v6.777h3.409l1.52-2.177
		L919.712,480.669z M939.881,497.223c0.246,4.806,0.451,5.545,1.479,6.326c0.164,0.123,0.246,0.205,0.246,0.37
		c0,0.123-0.041,0.246-0.123,0.411c-0.903,2.259-1.89,2.67-5.463,2.67c-3.738,0-4.025-0.206-4.025-4.97v-26.248h-7.518v14.459
		c0,7.271-1.602,14.212-10.022,18.978l-0.288-0.452c6.285-4.929,8.339-9.776,8.339-18.361v-17.252l2.301,1.684h6.243l1.355-1.931
		l2.876,2.177c0.123,0.082,0.205,0.206,0.205,0.288c0,0.123-0.082,0.205-0.246,0.288l-1.397,0.739v25.714
		c0,2.917,0.288,3.122,2.547,3.122c2.424,0,2.67-0.288,2.917-8.01H939.881z"/>
	<path fill="#BF5900" d="M944.782,505.541c-0.097-0.096-0.145-0.212-0.145-0.349v-27.764c0-0.137,0.048-0.253,0.145-0.349
		c0.096-0.096,0.212-0.144,0.349-0.144h5.832c0.137,0,0.253,0.048,0.35,0.144c0.095,0.096,0.144,0.212,0.144,0.349v22.219
		c0,0.137,0.067,0.205,0.205,0.205h13.102c0.137,0,0.253,0.048,0.349,0.144c0.096,0.096,0.145,0.212,0.145,0.349v4.847
		c0,0.137-0.049,0.253-0.145,0.349c-0.096,0.096-0.212,0.144-0.349,0.144h-19.632C944.994,505.685,944.878,505.637,944.782,505.541z
		"/>
	<path fill="#BF5900" d="M972.628,504.802c-1.684-0.89-2.991-2.142-3.922-3.758c-0.932-1.615-1.396-3.491-1.396-5.626v-8.214
		c0-2.081,0.465-3.922,1.396-5.524c0.931-1.602,2.238-2.848,3.922-3.737s3.635-1.335,5.853-1.335s4.175,0.445,5.873,1.335
		c1.697,0.89,3.012,2.135,3.942,3.737c0.931,1.602,1.396,3.443,1.396,5.524v8.214c0,2.136-0.466,4.011-1.396,5.626
		c-0.931,1.616-2.245,2.869-3.942,3.758c-1.698,0.889-3.655,1.334-5.873,1.334S974.312,505.691,972.628,504.802z M981.663,499.031
		c0.808-0.849,1.212-1.985,1.212-3.409v-8.501c0-1.396-0.404-2.526-1.212-3.389c-0.808-0.862-1.868-1.293-3.183-1.293
		c-1.287,0-2.335,0.431-3.142,1.293c-0.809,0.863-1.212,1.992-1.212,3.389v8.501c0,1.424,0.403,2.56,1.212,3.409
		c0.807,0.849,1.854,1.273,3.142,1.273C979.795,500.304,980.855,499.88,981.663,499.031z"/>
	<path fill="#BF5900" d="M998.05,504.699c-1.657-0.876-2.943-2.108-3.86-3.696c-0.918-1.587-1.376-3.422-1.376-5.503v-8.419
		c0-2.08,0.458-3.908,1.376-5.483c0.917-1.574,2.203-2.799,3.86-3.676c1.656-0.875,3.579-1.314,5.771-1.314
		c2.162,0,4.079,0.417,5.75,1.252c1.669,0.835,2.963,1.979,3.881,3.43c0.917,1.451,1.376,3.053,1.376,4.805v0.205
		c0,0.138-0.048,0.253-0.144,0.349c-0.097,0.096-0.213,0.144-0.35,0.144h-5.832c-0.137,0-0.253-0.048-0.349-0.144
		c-0.097-0.096-0.144-0.211-0.144-0.349c0-1.068-0.377-1.978-1.13-2.731c-0.753-0.753-1.773-1.129-3.06-1.129
		c-1.26,0-2.273,0.411-3.039,1.232c-0.768,0.821-1.15,1.889-1.15,3.204v8.83c0,1.314,0.425,2.382,1.273,3.204
		c0.849,0.821,1.916,1.232,3.203,1.232c1.205,0,2.177-0.322,2.916-0.965c0.739-0.643,1.109-1.54,1.109-2.69v-1.15
		c0-0.137-0.069-0.206-0.206-0.206h-4.106c-0.138,0-0.254-0.047-0.35-0.144c-0.096-0.096-0.144-0.212-0.144-0.349v-4.518
		c0-0.137,0.048-0.253,0.144-0.349c0.096-0.096,0.212-0.144,0.35-0.144h10.514c0.137,0,0.253,0.048,0.35,0.144
		c0.096,0.096,0.144,0.212,0.144,0.349v5.585c0,2.053-0.459,3.86-1.376,5.421c-0.918,1.561-2.204,2.766-3.86,3.614
		c-1.657,0.849-3.58,1.273-5.771,1.273C1001.629,506.013,999.706,505.576,998.05,504.699z"/>
	<path fill="#BF5900" d="M1023.267,504.802c-1.684-0.89-2.991-2.142-3.922-3.758c-0.932-1.615-1.396-3.491-1.396-5.626v-8.214
		c0-2.081,0.465-3.922,1.396-5.524c0.931-1.602,2.238-2.848,3.922-3.737s3.635-1.335,5.853-1.335s4.175,0.445,5.873,1.335
		c1.697,0.89,3.012,2.135,3.942,3.737c0.931,1.602,1.396,3.443,1.396,5.524v8.214c0,2.136-0.466,4.011-1.396,5.626
		c-0.931,1.616-2.245,2.869-3.942,3.758c-1.698,0.889-3.655,1.334-5.873,1.334S1024.95,505.691,1023.267,504.802z M1032.302,499.031
		c0.808-0.849,1.212-1.985,1.212-3.409v-8.501c0-1.396-0.404-2.526-1.212-3.389c-0.808-0.862-1.868-1.293-3.183-1.293
		c-1.287,0-2.335,0.431-3.142,1.293c-0.809,0.863-1.212,1.992-1.212,3.389v8.501c0,1.424,0.403,2.56,1.212,3.409
		c0.807,0.849,1.854,1.273,3.142,1.273C1030.434,500.304,1031.494,499.88,1032.302,499.031z"/>
</g>
<g>
	<path fill="#FFFFFF" d="M455.437,479.93c0.082,1.027,0.123,1.972,0.123,2.834c0,2.834-0.37,6.08-2.834,6.08
		c-0.657,0-1.027-0.329-1.027-0.781c0-0.287,0.165-0.657,0.534-1.068c1.643-1.848,2.259-3.409,2.588-7.065H455.437z
		 M459.626,478.861c2.3,0.534,5.34,1.273,5.34,3.451c0,0.739-0.411,1.438-0.904,1.438c-0.37,0-0.657-0.123-0.904-0.616
		c-0.616-1.273-1.643-2.382-3.533-3.697v20.086c0,3.122,0.083,6.408,0.165,8.051v0.288c0,0.575-0.165,0.739-0.863,1.109
		c-0.411,0.206-0.657,0.329-0.862,0.329c-0.288,0-0.37-0.288-0.37-1.027v-0.37c0.082-2.424,0.123-6.121,0.123-8.462v-22.962
		c0-1.684-0.082-4.477-0.165-5.997l2.711,1.438c0.411,0.206,0.616,0.37,0.616,0.534c0,0.206-0.124,0.288-1.356,0.863V478.861z
		 M488.956,485.598c0.288,0.288,0.411,0.493,0.411,0.616c0,0.164-0.165,0.247-0.575,0.247h-21.812c-0.863,0-2.054,0.164-2.752,0.452
		l-1.15-1.52c1.027,0.082,2.054,0.165,2.999,0.165h8.955v-3.82h-4.313c-0.863,0-2.054,0.165-2.752,0.452l-1.15-1.52
		c1.027,0.082,2.054,0.164,2.999,0.164h5.217v-3.82h-6.038c-0.863,0-2.054,0.164-2.752,0.452l-1.15-1.52
		c1.027,0.082,2.054,0.164,2.999,0.164h6.942c0-1.684-0.082-4.025-0.164-5.34l3.163,1.355c0.165,0.082,0.247,0.164,0.247,0.247
		c0,0.123-0.082,0.205-0.247,0.329l-1.068,0.698v2.711h6.901l1.438-2.054l2.136,2.054c0.288,0.288,0.452,0.493,0.452,0.657
		s-0.205,0.247-0.616,0.247h-10.311v3.82h4.97l1.561-1.889l1.931,1.93c0.288,0.288,0.411,0.493,0.411,0.616
		c0,0.165-0.206,0.247-0.575,0.247h-8.297v3.82h8.092l1.684-2.177L488.956,485.598z M485.505,489.911
		c0.123,0.082,0.165,0.164,0.165,0.288c0,0.082-0.083,0.206-0.247,0.288l-1.314,0.821v14.295c0,2.464-0.123,2.67-2.382,3.779
		c-0.124,0.041-0.206,0.083-0.288,0.083c-0.165,0-0.288-0.124-0.329-0.37c-0.329-1.479-1.397-2.218-4.765-3.04l0.165-0.534
		c2.382,0.37,3.779,0.534,4.56,0.534c1.027,0,1.109-0.329,1.109-1.027v-4.806h-12.857v7.229c0,0.616-0.124,0.74-0.986,1.232
		c-0.329,0.206-0.575,0.329-0.739,0.329c-0.247,0-0.329-0.288-0.329-1.027c0-0.904,0.123-5.463,0.123-5.792v-8.338
		c0-1.684-0.082-4.478-0.165-5.997l2.342,1.848h12.241l1.068-1.725L485.505,489.911z M482.178,494.471v-3.861h-12.857v3.861H482.178
		z M482.178,499.318v-3.943h-12.857v3.943H482.178z"/>
	<path fill="#FFFFFF" d="M531.545,505.479c-2.177,0.616-2.711,1.068-3.245,2.218c-0.082,0.165-0.205,0.247-0.575,0.247
		c-5.874-0.041-12.405-0.37-16.677-0.822c-7.106-0.739-10.598-2.711-13.514-8.585c-0.945,4.519-2.259,7.928-4.19,11.05l-0.411-0.206
		c2.382-5.504,3.779-12.446,3.779-20.004l2.67,1.314c0.165,0.083,0.247,0.165,0.247,0.247c0,0.165-0.123,0.206-1.027,0.739
		c-0.247,2.095-0.534,3.985-0.863,5.751c0.986,1.848,1.931,2.917,3.492,4.313V486.05h-4.436c-0.863,0-2.054,0.165-2.752,0.452
		l-1.15-1.52c1.027,0.082,2.054,0.165,2.999,0.165h4.642v-5.998h-2.67c-0.863,0-2.054,0.165-2.752,0.452l-1.15-1.52
		c1.027,0.082,2.054,0.164,2.999,0.164h3.574v-2.382c0-2.505-0.041-4.025-0.124-5.422l2.711,1.602
		c0.164,0.123,0.288,0.205,0.288,0.329c0,0.164-0.124,0.205-1.068,0.78v5.093h2.588l1.273-1.643l1.643,1.725
		c0.288,0.288,0.452,0.493,0.452,0.616c0,0.164-0.205,0.205-0.575,0.205h-5.381v5.998h3.656l1.191-1.726l1.849,1.808
		c0.247,0.246,0.37,0.411,0.37,0.575c0,0.164-0.165,0.246-0.493,0.246h-5.792v6.285h2.3l1.314-1.725l1.602,1.808
		c0.246,0.246,0.329,0.452,0.329,0.575c0,0.165-0.124,0.247-0.452,0.247h-5.093v9.981c2.67,1.561,8.092,2.424,15.486,2.424
		c3.82,0,8.133-0.247,12.898-0.739L531.545,505.479z M523.371,473.974c0.247,0.246,0.37,0.452,0.37,0.575
		c0,0.124-0.165,0.165-0.452,0.165h-4.847v20.086l2.752-0.781l0.205,0.493l-2.958,1.15v2.136c0,0.904,0.206,4.97,0.206,5.627
		c0,0.534-0.123,0.698-0.945,1.027c-0.37,0.165-0.657,0.247-0.863,0.247c-0.287,0-0.37-0.247-0.37-0.945
		c0-0.862,0.083-5.093,0.083-6.038v-1.314l-5.792,2.218c-0.904,0.329-2.177,1.068-2.506,1.397c-0.164,0.164-0.287,0.247-0.37,0.247
		c-0.123,0-0.247-0.124-0.411-0.329l-1.273-1.807l4.19-1.15v-22.264c-0.781,0.041-1.725,0.205-2.3,0.452l-1.15-1.52
		c1.027,0.083,2.054,0.165,2.999,0.165h10.187l1.232-1.89L523.371,473.974z M516.553,481.49v-6.777h-4.313v6.777H516.553z
		 M516.553,488.638v-6.244h-4.313v6.244H516.553z M516.553,495.292v-5.75h-4.313v6.942L516.553,495.292z M529.574,477.711
		c0.206,0.164,0.329,0.247,0.329,0.37c0,0.082-0.082,0.164-0.205,0.288l-1.109,0.863c-0.698,3.943-1.602,7.394-2.711,10.392
		c1.355,2.259,3.615,6.531,3.615,8.544c0,1.314-0.698,2.013-1.232,2.013c-0.534,0-0.657-0.452-0.821-1.684
		c-0.247-1.807-1.068-4.231-2.341-6.983c-1.726,4.107-3.82,7.229-5.956,9.448l-0.452-0.534c2.177-2.834,4.149-6.736,5.545-10.762
		c-1.109-2.259-2.506-4.683-4.066-7.106l0.411-0.329c1.52,1.807,2.958,3.779,4.231,5.709c1.027-3.368,1.643-6.695,1.643-9.489
		h-3.574c-0.863,0-2.054,0.165-2.752,0.411l-1.15-1.479c1.027,0.082,2.054,0.164,2.999,0.164h4.313l0.945-1.602L529.574,477.711z"/>
	<path fill="#FFFFFF" d="M545.71,472.372c0.206,0.164,0.329,0.288,0.329,0.411c0,0.164-0.123,0.247-0.411,0.37
		c-0.493,0.206-0.657,0.411-1.068,1.396c-0.904,2.136-2.136,4.765-3.574,7.476l1.52,0.863c0.123,0.041,0.205,0.164,0.205,0.288
		c0,0.164-0.082,0.246-1.068,1.068v16.225c0,2.547,0.041,4.642,0.164,6.49v0.164c0,0.986-1.602,1.52-1.684,1.52
		c-0.329,0-0.452-0.329-0.452-1.109v-0.247c0.082-2.423,0.123-4.765,0.123-6.901v-16.102c-1.725,3.081-3.656,6.162-5.668,8.462
		l-0.452-0.37c4.025-6.655,8.215-15.609,9.612-21.688L545.71,472.372z M572.205,503.179c-0.288-0.041-0.575-0.041-0.822-0.041
		c-1.232,0-2.218,0.329-2.916,1.15c-0.124,0.123-0.206,0.164-0.329,0.164c-0.083,0-0.165,0-0.288-0.082
		c-4.519-3.327-6.819-6.901-8.462-12.323h-1.438v7.024c0,1.15,0.123,6.901,0.123,8.174c0,0.904-1.396,1.643-1.89,1.643
		c-0.246,0-0.288-0.165-0.288-0.493v-0.164c0.124-2.711,0.124-5.792,0.124-9.242v-6.901c-2.793,5.34-7.682,10.557-12.98,13.884
		l-0.329-0.411c4.765-3.738,9.078-9.078,11.05-13.515h-7.188c-0.863,0-2.054,0.165-2.752,0.452l-1.15-1.52
		c1.027,0.083,2.054,0.165,2.999,0.165h10.352v-5.792h-5.217v1.15c0,0.452-0.082,0.657-0.739,1.027
		c-0.411,0.247-0.657,0.37-0.863,0.37s-0.247-0.206-0.247-0.657c0-0.657,0.082-3.984,0.082-4.724v-5.957
		c0-0.986-0.041-2.958-0.123-4.231l2.424,1.849h11.748l1.397-1.766l2.423,2.054c0.206,0.165,0.288,0.288,0.288,0.411
		c0,0.124-0.082,0.247-0.288,0.37l-1.191,0.781v5.299c0,0.657,0.083,3.902,0.083,4.642c0,1.068-1.644,1.561-1.644,1.561
		c-0.246,0-0.287-0.247-0.287-0.657v-1.52h-5.915v5.792h9.324l1.561-2.218l2.218,2.218c0.287,0.246,0.411,0.452,0.411,0.616
		c0,0.205-0.206,0.287-0.575,0.287h-10.762c2.711,6.819,6.86,9.858,12.077,10.68V503.179z M563.866,484.448v-9.365h-13.063v9.365
		H563.866z"/>
	<path fill="#FFFFFF" d="M585.794,472.987c0.247,0.165,0.37,0.247,0.37,0.37c0,0.082-0.164,0.164-0.452,0.287
		c-0.698,0.247-1.068,0.74-1.479,1.726c-1.356,3.204-2.465,5.668-3.451,7.763l1.643,0.904c0.206,0.082,0.288,0.165,0.288,0.247
		s-0.041,0.164-0.164,0.247l-1.068,0.903v16.39c0,2.547,0.082,3.984,0.124,4.683v0.206c0,0.657-0.206,0.781-0.904,1.109
		c-0.37,0.165-0.616,0.247-0.822,0.247c-0.246,0-0.329-0.205-0.329-0.739v-0.575c0.083-1.232,0.124-2.875,0.124-5.011v-16.349
		c-1.561,2.999-2.958,5.094-4.888,7.599l-0.452-0.37c3.738-6.408,7.024-13.802,9.037-21.113L585.794,472.987z M612.412,504.658
		c-2.423,0.534-3.081,1.027-3.409,1.972c-0.082,0.247-0.164,0.329-0.493,0.329c-12.692-0.247-15.198-0.863-19.511-5.504
		c-1.314,2.793-3.45,4.97-6.736,7.558l-0.329-0.37c3.204-3.163,4.765-5.258,6.038-8.379c-1.355-1.849-3.122-5.587-3.738-7.887
		l0.534-0.206c1.15,2.711,2.3,4.683,3.779,6.654c0.78-2.341,1.314-4.765,1.807-9.653h-3.081c-0.575,0.945-0.616,1.027-0.78,1.027
		c-0.083,0-0.165-0.041-0.288-0.124l-1.931-1.52l1.684-0.945l3.615-9.078h-2.711c-0.699,0-1.726,0.165-2.259,0.452l-0.986-1.52
		c0.862,0.082,1.725,0.165,2.505,0.165h3.163l1.232-1.602l2.054,2.054c0.164,0.164,0.247,0.288,0.247,0.37s-0.124,0.165-0.329,0.206
		c-0.945,0.246-1.438,0.534-1.931,1.725l-3.204,7.887h2.629l1.15-1.479l1.889,1.808c0.124,0.123,0.165,0.206,0.165,0.288
		c0,0.123-0.082,0.206-0.206,0.288l-0.986,0.575c-0.739,5.258-1.396,7.887-2.423,10.392c2.793,3.204,6.162,4.765,13.021,4.765
		c2.711,0,5.915-0.247,9.817-0.698V504.658z M613.357,482.188c0.165,0.124,0.247,0.247,0.247,0.329c0,0.082-0.123,0.123-0.329,0.123
		h-5.381v1.52c0,1.191,0.041,2.013,0.123,3.369c0,0.616-0.123,0.78-1.027,1.15c-0.288,0.124-0.493,0.165-0.657,0.165
		c-0.247,0-0.247-0.124-0.247-1.273h-4.601v4.066h4.724l1.438-1.807l2.464,2.259c0.165,0.123,0.247,0.246,0.247,0.329
		c0,0.082-0.082,0.123-0.288,0.123h-8.585v4.19h5.792l1.314-1.931l2.629,2.3c0.205,0.164,0.329,0.288,0.329,0.37
		c0,0.123-0.165,0.165-0.452,0.165h-9.612c0,1.643,0,2.916,0.124,4.724v0.164c0,0.411-0.165,0.575-0.945,1.027
		c-0.37,0.205-0.616,0.287-0.781,0.287c-0.205,0-0.288-0.205-0.288-0.657c0-0.452,0.083-4.683,0.083-5.545h-4.354
		c-0.739,0-1.725,0.164-2.3,0.452l-0.945-1.52c0.863,0.082,1.726,0.165,2.506,0.165h5.094v-4.19h-3.369
		c-0.698,0-1.643,0.164-2.259,0.452l-0.903-1.52c0.821,0.082,1.643,0.164,2.423,0.164h4.108v-4.066h-2.958
		c-0.699,0-1.438,0.123-2.013,0.37l-0.944-1.438c0.78,0.082,1.52,0.164,2.218,0.164h3.697v-4.025h-5.094
		c-0.698,0-1.479,0.164-2.054,0.37l-1.15-1.438c0.863,0.082,1.685,0.164,2.465,0.164h5.833v-4.025h-3.656
		c-0.616,0-1.191,0.123-1.725,0.288l-1.191-1.314c0.78,0.082,1.561,0.123,2.3,0.123h4.272c0-1.684,0-4.313-0.083-5.792l2.917,1.356
		c0.165,0.082,0.247,0.123,0.247,0.246c0,0.042-0.041,0.124-0.165,0.206l-1.109,0.78v3.204h4.067l1.068-1.479l2.341,1.602
		c0.164,0.124,0.247,0.206,0.247,0.329c0,0.041-0.042,0.123-0.124,0.164l-1.191,0.739v3.574h1.684l1.396-1.725L613.357,482.188z
		 M606.086,481.737v-4.025h-4.601v4.025H606.086z M606.086,486.666v-4.025h-4.601v4.025H606.086z"/>
	<path fill="#FFFFFF" d="M616.739,505.541c-0.096-0.096-0.144-0.212-0.144-0.349v-27.764c0-0.137,0.048-0.253,0.144-0.349
		c0.096-0.096,0.212-0.144,0.349-0.144h5.832c0.137,0,0.252,0.048,0.349,0.144c0.095,0.096,0.144,0.212,0.144,0.349v22.219
		c0,0.137,0.068,0.205,0.206,0.205h13.101c0.137,0,0.253,0.048,0.349,0.144c0.096,0.096,0.144,0.212,0.144,0.349v4.847
		c0,0.137-0.048,0.253-0.144,0.349c-0.096,0.096-0.212,0.144-0.349,0.144h-19.631C616.951,505.685,616.835,505.637,616.739,505.541z
		"/>
	<path fill="#FFFFFF" d="M644.585,504.802c-1.685-0.89-2.992-2.142-3.922-3.758c-0.931-1.615-1.396-3.491-1.396-5.626v-8.214
		c0-2.081,0.465-3.922,1.396-5.524c0.931-1.602,2.238-2.848,3.922-3.737c1.684-0.89,3.635-1.335,5.853-1.335
		s4.175,0.445,5.873,1.335c1.697,0.89,3.011,2.135,3.942,3.737c0.931,1.602,1.396,3.443,1.396,5.524v8.214
		c0,2.136-0.466,4.011-1.396,5.626c-0.932,1.616-2.245,2.869-3.942,3.758c-1.698,0.889-3.655,1.334-5.873,1.334
		S646.269,505.691,644.585,504.802z M653.62,499.031c0.808-0.849,1.212-1.985,1.212-3.409v-8.501c0-1.396-0.404-2.526-1.212-3.389
		c-0.808-0.862-1.869-1.293-3.183-1.293c-1.288,0-2.335,0.431-3.143,1.293c-0.808,0.863-1.211,1.992-1.211,3.389v8.501
		c0,1.424,0.403,2.56,1.211,3.409c0.808,0.849,1.854,1.273,3.143,1.273C651.751,500.304,652.813,499.88,653.62,499.031z"/>
	<path fill="#FFFFFF" d="M670.006,504.699c-1.656-0.876-2.943-2.108-3.86-3.696c-0.917-1.587-1.376-3.422-1.376-5.503v-8.419
		c0-2.08,0.459-3.908,1.376-5.483c0.917-1.574,2.204-2.799,3.86-3.676c1.657-0.875,3.58-1.314,5.771-1.314
		c2.163,0,4.08,0.417,5.75,1.252c1.67,0.835,2.964,1.979,3.881,3.43s1.376,3.053,1.376,4.805v0.205c0,0.138-0.048,0.253-0.144,0.349
		c-0.096,0.096-0.212,0.144-0.349,0.144h-5.832c-0.138,0-0.254-0.048-0.35-0.144c-0.096-0.096-0.144-0.211-0.144-0.349
		c0-1.068-0.377-1.978-1.13-2.731c-0.753-0.753-1.772-1.129-3.06-1.129c-1.26,0-2.272,0.411-3.039,1.232s-1.149,1.889-1.149,3.204
		v8.83c0,1.314,0.424,2.382,1.272,3.204c0.849,0.821,1.917,1.232,3.204,1.232c1.204,0,2.177-0.322,2.916-0.965
		c0.739-0.643,1.108-1.54,1.108-2.69v-1.15c0-0.137-0.068-0.206-0.205-0.206h-4.107c-0.137,0-0.253-0.047-0.349-0.144
		c-0.097-0.096-0.144-0.212-0.144-0.349v-4.518c0-0.137,0.047-0.253,0.144-0.349c0.096-0.096,0.212-0.144,0.349-0.144h10.515
		c0.137,0,0.253,0.048,0.349,0.144c0.096,0.096,0.144,0.212,0.144,0.349v5.585c0,2.053-0.459,3.86-1.376,5.421
		c-0.917,1.561-2.204,2.766-3.86,3.614c-1.657,0.849-3.58,1.273-5.771,1.273S671.663,505.576,670.006,504.699z"/>
	<path fill="#FFFFFF" d="M695.224,504.802c-1.685-0.89-2.992-2.142-3.923-3.758c-0.931-1.615-1.396-3.491-1.396-5.626v-8.214
		c0-2.081,0.466-3.922,1.396-5.524c0.931-1.602,2.238-2.848,3.923-3.737c1.684-0.89,3.635-1.335,5.853-1.335
		s4.175,0.445,5.873,1.335c1.697,0.89,3.011,2.135,3.942,3.737c0.931,1.602,1.396,3.443,1.396,5.524v8.214
		c0,2.136-0.466,4.011-1.396,5.626c-0.932,1.616-2.245,2.869-3.942,3.758c-1.698,0.889-3.655,1.334-5.873,1.334
		S696.907,505.691,695.224,504.802z M704.259,499.031c0.808-0.849,1.212-1.985,1.212-3.409v-8.501c0-1.396-0.404-2.526-1.212-3.389
		c-0.808-0.862-1.869-1.293-3.183-1.293c-1.288,0-2.335,0.431-3.143,1.293c-0.808,0.863-1.211,1.992-1.211,3.389v8.501
		c0,1.424,0.403,2.56,1.211,3.409c0.808,0.849,1.854,1.273,3.143,1.273C702.39,500.304,703.451,499.88,704.259,499.031z"/>
</g>
<g>
	<path fill="#06AA00" d="M140.992,506.136c-0.37-0.082-0.739-0.123-1.068-0.123c-1.396,0-2.588,0.534-3.163,1.191
		c-0.083,0.123-0.206,0.205-0.329,0.205c-0.124,0-0.247-0.041-0.37-0.164c-9.325-6.86-12.405-15.445-13.186-28.343
		c-0.78,9.407-1.438,12.816-2.136,14.952c-2.259,6.654-7.476,11.625-16.965,15.65l-0.247-0.37
		c10.229-5.709,14.993-11.008,16.349-19.799c1.109-7.188,1.355-12.2,1.314-18.69l3.327,1.849c0.165,0.082,0.247,0.165,0.247,0.288
		c0,0.082-0.082,0.205-0.247,0.288l-1.109,0.698c0,16.02,5.668,28.589,17.581,31.752V506.136z M113.8,480.463
		c0.082,0.781,0.123,1.52,0.123,2.218c0,5.956-2.506,8.667-4.888,8.667c-0.986,0-1.355-0.657-1.355-1.027
		c0-0.452,0.329-0.945,1.273-1.643c2.136-1.561,3.984-4.189,4.272-8.215H113.8z M137.049,480.751
		c0.247,0.165,0.411,0.329,0.411,0.411c0,0.165-0.247,0.288-0.863,0.411c-0.739,0.164-1.396,0.493-1.89,0.986l-7.517,7.435
		l-0.452-0.493c2.3-2.588,5.217-6.86,7.558-10.639L137.049,480.751z"/>
	<path fill="#06AA00" d="M160.949,477.917c0.206,0.205,0.329,0.37,0.329,0.493c0,0.165-0.164,0.247-0.452,0.247h-9.817
		c-1.972,3.902-3.615,6.901-6.121,10.475l-0.534-0.329c3.122-5.874,5.011-10.475,7.805-17.828l2.464,1.602
		c0.288,0.165,0.411,0.288,0.411,0.411c0,0.124-0.164,0.206-0.575,0.329c-0.903,0.246-1.027,0.452-1.438,1.273
		c-0.575,1.109-1.068,2.177-1.561,3.163h5.833l1.438-1.849L160.949,477.917z M159.594,491.226c0.206,0.206,0.329,0.411,0.329,0.534
		c0,0.164-0.164,0.246-0.452,0.246h-6.449v10.434l5.299-3.984l0.411,0.452c-5.299,5.012-6.367,6.449-6.696,7.476
		c-0.123,0.288-0.206,0.411-0.329,0.411c-0.082,0-0.164-0.041-0.247-0.123l-1.807-1.602c0.904-0.657,1.479-1.396,1.479-3.45v-9.612
		h-2.341c-0.862,0-2.054,0.165-2.752,0.452l-1.15-1.52c1.027,0.082,2.054,0.165,2.999,0.165h3.245v-6.162
		c-0.575,0.041-1.15,0.123-1.602,0.288l-1.027-1.396c0.986,0.123,1.726,0.164,2.67,0.164h4.601l1.314-1.808l2.177,1.972
		c0.206,0.206,0.329,0.37,0.329,0.493c0,0.164-0.164,0.247-0.452,0.247h-6.121v6.203h2.917l1.355-1.849L159.594,491.226z
		 M181.611,489.706c0.247,0.165,0.37,0.329,0.37,0.493c0,0.123-0.082,0.206-0.246,0.329l-1.232,0.821v13.309
		c0,2.793-0.206,3.081-2.793,4.272c-0.082,0.041-0.164,0.082-0.247,0.082c-0.205,0-0.37-0.164-0.411-0.411
		c-0.247-1.15-0.821-1.766-4.313-2.958v-0.575c2.506,0.534,3.943,0.78,4.765,0.78c0.986,0,1.068-0.37,1.068-1.027v-14.376h-7.394
		c-0.205,1.314-0.493,2.464-0.903,3.615c2.999,1.602,5.258,3.82,5.709,4.765c0.206,0.493,0.288,0.904,0.288,1.273
		c0,0.904-0.534,1.479-1.068,1.479c-0.411,0-0.781-0.411-1.068-1.356c-0.493-1.643-1.889-3.82-4.107-5.545
		c-1.355,3.615-3.779,6.285-7.517,8.873c0,0.452,0.082,2.752,0.082,3.245c0,0.534-0.247,0.781-1.027,1.232
		c-0.452,0.247-0.739,0.411-0.945,0.411c-0.205,0-0.247-0.164-0.247-0.493c0-0.616,0.247-4.97,0.247-5.915v-9.078
		c0-1.438-0.041-3.82-0.082-5.134l2.3,1.725h6.736c0.247-1.849,0.37-3.738,0.411-5.463h-4.724v0.904
		c0,0.863-1.725,1.396-1.807,1.396c-0.165,0-0.206-0.123-0.206-0.37c0-0.739,0.124-4.354,0.124-5.176v-5.217
		c0-1.396-0.041-2.464-0.124-3.738l2.465,1.643h10.269l1.191-1.725l2.382,1.807c0.247,0.165,0.37,0.329,0.37,0.452
		c0,0.123-0.123,0.246-0.37,0.37l-1.191,0.698v5.627c0,1.396,0.041,2.465,0.124,3.574c0,0.165,0.041,0.288,0.041,0.411
		c0,0.493-0.206,0.698-0.986,1.15c-0.37,0.205-0.616,0.288-0.781,0.288c-0.246,0-0.329-0.206-0.329-0.616v-1.479h-4.642
		c-0.082,2.136-0.205,3.943-0.452,5.463h6.819l1.027-1.52L181.611,489.706z M162.51,502.768c3.82-3.492,6.08-6.736,6.942-12.323
		h-6.942V502.768z M176.435,483.175v-8.75h-11.173v8.75H176.435z"/>
	<path fill="#06AA00" d="M222.804,476.685c0.247,0.246,0.411,0.411,0.411,0.534c0,0.124-0.206,0.165-0.575,0.165h-30.027v10.187
		c0,10.557-1.068,15.486-6.86,20.826l-0.329-0.37c4.518-6.449,5.299-9.283,5.299-20.168v-8.791c0-1.561-0.082-3.368-0.124-4.765
		l2.834,2.177h24.893l1.725-2.382L222.804,476.685z M221.284,486.009c0.205,0.206,0.288,0.37,0.288,0.452
		c0,0.123-0.124,0.164-0.452,0.164h-13.145v7.517h7.682l0.945-1.561l2.588,1.561c0.205,0.123,0.328,0.247,0.328,0.37
		c0,0.082-0.123,0.206-0.328,0.37l-1.109,0.863v6.449c0,1.397,0.041,2.588,0.165,4.437v0.164c0,0.699-0.247,0.863-1.15,1.232
		c-0.411,0.165-0.657,0.247-0.78,0.247c-0.247,0-0.288-0.206-0.288-0.534v-2.588h-17.047v2.547c0,0.493-0.082,0.739-0.78,1.027
		c-0.37,0.165-0.616,0.247-0.781,0.247c-0.288,0-0.329-0.247-0.329-0.863c0-0.903,0.124-5.258,0.124-5.586v-6.12
		c0-0.986-0.042-2.958-0.124-4.231l2.424,1.972h6.49v-10.31c0-1.602-0.082-4.231-0.164-5.669l3.122,1.602
		c0.206,0.124,0.329,0.206,0.329,0.288c0,0.123-0.082,0.206-0.246,0.288l-1.068,0.698v4.683h9.119l1.684-2.3L221.284,486.009z
		 M216.026,504.247v-9.201h-17.047v9.201H216.026z M202.759,470.729c3.081,0.862,4.806,2.095,5.134,3.081
		c0.082,0.206,0.124,0.452,0.124,0.657c0,1.068-0.904,1.89-1.561,1.89c-0.329,0-0.616-0.575-0.904-1.561
		c-0.206-0.657-1.068-2.095-2.999-3.697L202.759,470.729z"/>
	<path fill="#06AA00" d="M227.09,505.541c-0.096-0.096-0.144-0.212-0.144-0.349v-27.764c0-0.137,0.048-0.253,0.144-0.349
		c0.096-0.096,0.212-0.144,0.349-0.144h5.832c0.137,0,0.252,0.048,0.349,0.144c0.095,0.096,0.144,0.212,0.144,0.349v22.219
		c0,0.137,0.068,0.205,0.206,0.205h13.101c0.137,0,0.253,0.048,0.349,0.144c0.096,0.096,0.144,0.212,0.144,0.349v4.847
		c0,0.137-0.048,0.253-0.144,0.349c-0.096,0.096-0.212,0.144-0.349,0.144h-19.631C227.302,505.685,227.186,505.637,227.09,505.541z"
		/>
	<path fill="#06AA00" d="M254.936,504.802c-1.684-0.89-2.992-2.142-3.922-3.758c-0.931-1.615-1.396-3.491-1.396-5.626v-8.214
		c0-2.081,0.465-3.922,1.396-5.524c0.931-1.602,2.238-2.848,3.922-3.737c1.684-0.89,3.635-1.335,5.853-1.335
		s4.175,0.445,5.873,1.335c1.697,0.89,3.011,2.135,3.942,3.737c0.931,1.602,1.396,3.443,1.396,5.524v8.214
		c0,2.136-0.466,4.011-1.396,5.626c-0.931,1.616-2.245,2.869-3.942,3.758c-1.698,0.889-3.655,1.334-5.873,1.334
		S256.619,505.691,254.936,504.802z M263.971,499.031c0.808-0.849,1.212-1.985,1.212-3.409v-8.501c0-1.396-0.404-2.526-1.212-3.389
		c-0.808-0.862-1.869-1.293-3.183-1.293c-1.288,0-2.335,0.431-3.142,1.293c-0.808,0.863-1.211,1.992-1.211,3.389v8.501
		c0,1.424,0.403,2.56,1.211,3.409c0.807,0.849,1.854,1.273,3.142,1.273C262.102,500.304,263.163,499.88,263.971,499.031z"/>
	<path fill="#06AA00" d="M280.357,504.699c-1.657-0.876-2.943-2.108-3.86-3.696c-0.917-1.587-1.376-3.422-1.376-5.503v-8.419
		c0-2.08,0.458-3.908,1.376-5.483c0.917-1.574,2.204-2.799,3.86-3.676c1.657-0.875,3.58-1.314,5.771-1.314
		c2.163,0,4.08,0.417,5.75,1.252c1.669,0.835,2.963,1.979,3.881,3.43c0.917,1.451,1.376,3.053,1.376,4.805v0.205
		c0,0.138-0.048,0.253-0.144,0.349c-0.096,0.096-0.212,0.144-0.349,0.144h-5.832c-0.137,0-0.253-0.048-0.349-0.144
		c-0.096-0.096-0.144-0.211-0.144-0.349c0-1.068-0.377-1.978-1.13-2.731c-0.753-0.753-1.773-1.129-3.06-1.129
		c-1.26,0-2.273,0.411-3.039,1.232c-0.767,0.821-1.15,1.889-1.15,3.204v8.83c0,1.314,0.424,2.382,1.273,3.204
		c0.849,0.821,1.917,1.232,3.204,1.232c1.205,0,2.177-0.322,2.916-0.965c0.739-0.643,1.109-1.54,1.109-2.69v-1.15
		c0-0.137-0.069-0.206-0.206-0.206h-4.107c-0.137,0-0.253-0.047-0.349-0.144c-0.096-0.096-0.144-0.212-0.144-0.349v-4.518
		c0-0.137,0.047-0.253,0.144-0.349c0.096-0.096,0.212-0.144,0.349-0.144h10.514c0.137,0,0.253,0.048,0.349,0.144
		c0.096,0.096,0.144,0.212,0.144,0.349v5.585c0,2.053-0.459,3.86-1.376,5.421c-0.917,1.561-2.204,2.766-3.86,3.614
		c-1.657,0.849-3.58,1.273-5.771,1.273C283.937,506.013,282.014,505.576,280.357,504.699z"/>
	<path fill="#06AA00" d="M305.575,504.802c-1.684-0.89-2.992-2.142-3.922-3.758c-0.931-1.615-1.396-3.491-1.396-5.626v-8.214
		c0-2.081,0.465-3.922,1.396-5.524c0.931-1.602,2.238-2.848,3.922-3.737c1.684-0.89,3.635-1.335,5.853-1.335
		s4.175,0.445,5.873,1.335c1.697,0.89,3.011,2.135,3.942,3.737c0.931,1.602,1.396,3.443,1.396,5.524v8.214
		c0,2.136-0.466,4.011-1.396,5.626c-0.931,1.616-2.245,2.869-3.942,3.758c-1.698,0.889-3.655,1.334-5.873,1.334
		S307.258,505.691,305.575,504.802z M314.61,499.031c0.808-0.849,1.212-1.985,1.212-3.409v-8.501c0-1.396-0.404-2.526-1.212-3.389
		c-0.808-0.862-1.869-1.293-3.183-1.293c-1.288,0-2.335,0.431-3.142,1.293c-0.808,0.863-1.211,1.992-1.211,3.389v8.501
		c0,1.424,0.403,2.56,1.211,3.409c0.807,0.849,1.854,1.273,3.142,1.273C312.741,500.304,313.802,499.88,314.61,499.031z"/>
</g>
<g>
	<path fill="#FFFFFF" d="M877.371,656.421c-0.123,4.807,0.206,5.094,1.273,5.833c0.205,0.124,0.288,0.247,0.288,0.37
		s-0.041,0.287-0.165,0.452c-1.602,2.752-1.807,2.752-9.858,2.752c-2.136,0-4.436-0.041-6.079-0.082
		c-4.107-0.124-4.189-0.206-4.189-3.943v-7.354h-10.105v2.342c0,0.575-1.89,1.561-1.972,1.561s-0.123-0.123-0.123-0.246v-0.164
		c0.123-1.972,0.164-4.683,0.164-7.723v-10.187c0-1.603-0.041-2.999-0.123-4.725l2.711,2.178h9.448v-2.835
		c0-3.245-0.041-4.642-0.123-6.202l3.655,2.259c0.082,0.041,0.123,0.082,0.123,0.165c0,0.041-0.082,0.123-0.205,0.205l-1.52,0.944
		v5.464h9.981l1.314-1.89l2.957,2.136c0.082,0.082,0.165,0.164,0.165,0.205c0,0.082-0.083,0.165-0.206,0.247l-1.602,1.108v10.064
		c0,2.752,0.041,4.56,0.123,5.874v0.123c0,0.534-1.767,1.479-1.89,1.479s-0.164-0.123-0.164-0.411v-1.972h-10.68v7.313
		c0,2.259,0.041,2.3,6.366,2.3c2.383,0,5.135-0.041,6.408-0.082c2.588-0.123,2.752-0.287,3.368-7.6L877.371,656.421z
		 M858.641,645.167v-6.777h-10.105v6.777H858.641z M858.641,653.546v-7.476h-10.105v7.476H858.641z M871.251,645.167v-6.777h-10.68
		v6.777H871.251z M871.251,653.546v-7.476h-10.68v7.476H871.251z"/>
	<path fill="#FFFFFF" d="M891.495,644.879c3.574,1.232,6.572,2.506,6.572,4.724c0,0.862-0.451,1.561-0.903,1.561
		c-0.411,0-0.616-0.164-0.945-0.985c-0.451-1.068-2.423-3.245-4.724-4.519v12.076c0,2.835,0.041,5.053,0.164,6.901v0.287
		c0,0.575-0.123,0.781-0.821,1.109c-0.369,0.164-0.657,0.288-0.821,0.288c-0.329,0-0.411-0.288-0.411-1.027v-0.329
		c0.082-2.423,0.124-5.134,0.124-7.312v-10.721c-2.219,2.67-4.601,5.176-6.901,6.983l-0.411-0.411
		c5.012-5.217,8.052-9.858,10.927-15.444l-6.818,0.328c-0.863,0-2.054,0.164-2.753,0.452l-1.149-1.521
		c1.026,0.083,2.054,0.165,2.998,0.124l7.723-0.329l1.314-1.684l2.177,2.054c0.206,0.164,0.288,0.287,0.288,0.369
		c0,0.164-0.206,0.247-0.575,0.329c-0.821,0.205-1.232,0.657-1.726,1.479c-0.944,1.602-2.095,3.286-3.327,4.971V644.879z
		 M888.004,628.942c1.643,0.698,5.258,2.259,5.258,4.477c0,1.068-0.657,2.096-1.273,2.096c-0.411,0-0.657-0.124-0.903-1.232
		c-0.247-1.191-1.314-3.081-3.327-4.93L888.004,628.942z M909.815,636.788c0.246,0.123,0.37,0.246,0.37,0.328
		c0,0.123-0.124,0.205-0.288,0.329l-1.067,0.739c-0.247,6.161-0.822,11.419-1.438,14.048c-1.149,4.971-5.175,10.557-13.227,14.254
		l-0.328-0.452c7.188-4.601,11.173-9.201,12.281-15.938c0.493-2.917,0.904-9.817,0.74-14.87L909.815,636.788z M917.168,632.187
		c0.206,0.164,0.329,0.287,0.329,0.41s-0.123,0.247-0.329,0.37l-1.355,0.903v11.009c0,3.122,0.041,4.313,0.164,6.161v0.247
		c0,0.533-0.164,0.698-0.944,1.026c-0.411,0.164-0.698,0.247-0.862,0.247c-0.288,0-0.329-0.165-0.329-0.616v-0.493
		c0.082-1.479,0.082-2.875,0.082-4.478v-13.925H901.97v14.787c0,0.534,0.082,3.122,0.082,3.738c0,0.411-0.164,0.575-1.067,1.068
		c-0.288,0.164-0.493,0.246-0.657,0.246c-0.247,0-0.329-0.246-0.329-0.78v-0.452c0.082-1.438,0.123-3.122,0.123-4.601v-11.501
		c0-1.521-0.041-4.025-0.123-5.423l2.588,2.014h10.762l1.191-1.849L917.168,632.187z M919.305,655.477
		c-0.083,4.56,0.246,5.258,1.314,5.997c0.205,0.123,0.287,0.288,0.287,0.411c0,0.082,0,0.164-0.041,0.246
		c-0.903,2.177-2.424,2.629-6.613,2.629c-5.217,0-5.792-0.164-5.792-3.122v-9.16c0-1.314-0.041-2.177-0.123-2.957l3.081,1.643
		c0.123,0.083,0.205,0.165,0.205,0.206c0,0.082-0.082,0.164-0.247,0.287l-1.067,0.698v9.078c0,1.52,0.287,1.685,3.861,1.685
		c3.943,0,4.107-0.124,4.56-7.641H919.305z"/>
	<path fill="#FFFFFF" d="M948.503,635.719c5.586,3.163,9.653,6.285,10.27,7.6c0.246,0.492,0.328,1.026,0.328,1.479
		c0,1.232-0.616,2.259-1.109,2.259c-0.41,0-0.903-0.534-1.273-1.438c-0.205-0.493-0.698-1.355-1.479-2.342l-19.553,1.273
		c-3.491,0.247-6.489,0.698-7.146,1.109c-0.165,0.082-0.288,0.123-0.37,0.123c-0.123,0-0.246-0.082-0.328-0.205l-1.685-2.547
		c1.232-0.041,2.177-0.575,4.025-2.136c4.601-3.861,8.544-7.928,12.076-12.446l2.383,2.013c0.205,0.164,0.288,0.287,0.288,0.37
		c0,0.164-0.165,0.205-0.575,0.246c-0.822,0.041-1.479,0.246-2.219,0.903c-4.519,4.025-8.215,7.271-12.528,11.091l24.975-0.616
		c-1.479-1.849-3.655-4.107-6.408-6.161L948.503,635.719z M954.952,650.301c0.246,0.164,0.369,0.288,0.369,0.452
		c0,0.123-0.082,0.246-0.287,0.41l-1.232,1.068v8.01c0,1.396,0.041,2.588,0.164,4.437v0.205c0,0.534-0.164,0.739-1.067,1.191
		c-0.411,0.205-0.657,0.288-0.822,0.288c-0.205,0-0.246-0.206-0.246-0.575v-2.547h-18.648v2.424c0,0.492-0.124,0.698-0.863,1.026
		c-0.369,0.164-0.657,0.288-0.821,0.288c-0.287,0-0.328-0.247-0.328-0.822c0-0.903,0.123-5.34,0.123-5.668v-8.134
		c0-0.985-0.041-2.957-0.123-4.23l2.629,2.341h17.088l1.355-1.972L954.952,650.301z M951.83,662.336V651.37h-18.648v10.967H951.83z"
		/>
	<path fill="#FFFFFF" d="M965.317,663.343c-0.097-0.096-0.145-0.212-0.145-0.349v-27.764c0-0.137,0.048-0.253,0.145-0.35
		c0.096-0.096,0.212-0.144,0.349-0.144h5.832c0.137,0,0.253,0.048,0.35,0.144c0.095,0.097,0.144,0.213,0.144,0.35v22.219
		c0,0.138,0.067,0.205,0.205,0.205h13.102c0.137,0,0.253,0.049,0.349,0.145s0.145,0.212,0.145,0.349v4.847
		c0,0.137-0.049,0.253-0.145,0.349c-0.096,0.097-0.212,0.144-0.349,0.144h-19.632C965.529,663.487,965.413,663.44,965.317,663.343z"
		/>
	<path fill="#FFFFFF" d="M993.163,662.604c-1.685-0.89-2.992-2.142-3.923-3.758c-0.931-1.615-1.396-3.491-1.396-5.627v-8.214
		c0-2.08,0.466-3.922,1.396-5.523c0.931-1.603,2.238-2.848,3.923-3.737c1.684-0.89,3.635-1.335,5.853-1.335s4.175,0.445,5.873,1.335
		c1.697,0.89,3.011,2.135,3.942,3.737c0.931,1.602,1.396,3.443,1.396,5.523v8.214c0,2.136-0.466,4.012-1.396,5.627
		c-0.932,1.616-2.245,2.868-3.942,3.758c-1.698,0.89-3.655,1.335-5.873,1.335S994.847,663.494,993.163,662.604z M1002.198,656.833
		c0.808-0.849,1.212-1.984,1.212-3.408v-8.502c0-1.396-0.404-2.525-1.212-3.389c-0.808-0.862-1.869-1.293-3.183-1.293
		c-1.288,0-2.335,0.431-3.143,1.293c-0.808,0.863-1.211,1.992-1.211,3.389v8.502c0,1.424,0.403,2.56,1.211,3.408
		c0.808,0.85,1.854,1.273,3.143,1.273C1000.329,658.107,1001.391,657.683,1002.198,656.833z"/>
	<path fill="#FFFFFF" d="M1018.584,662.501c-1.656-0.876-2.943-2.108-3.86-3.696s-1.376-3.423-1.376-5.504v-8.419
		c0-2.08,0.459-3.908,1.376-5.483c0.917-1.573,2.204-2.799,3.86-3.676c1.657-0.875,3.58-1.313,5.771-1.313
		c2.163,0,4.08,0.417,5.75,1.252c1.67,0.836,2.964,1.979,3.881,3.43s1.376,3.054,1.376,4.806v0.205c0,0.138-0.048,0.253-0.144,0.349
		c-0.096,0.097-0.212,0.145-0.349,0.145h-5.832c-0.138,0-0.254-0.048-0.35-0.145c-0.096-0.096-0.144-0.211-0.144-0.349
		c0-1.068-0.377-1.978-1.13-2.731c-0.753-0.753-1.772-1.129-3.06-1.129c-1.26,0-2.272,0.41-3.039,1.231s-1.149,1.89-1.149,3.204
		v8.83c0,1.313,0.424,2.382,1.272,3.203s1.917,1.232,3.204,1.232c1.204,0,2.177-0.322,2.916-0.966
		c0.739-0.643,1.108-1.54,1.108-2.689v-1.15c0-0.137-0.068-0.205-0.205-0.205h-4.107c-0.137,0-0.253-0.048-0.349-0.144
		c-0.097-0.096-0.144-0.212-0.144-0.35v-4.518c0-0.137,0.047-0.253,0.144-0.349c0.096-0.096,0.212-0.145,0.349-0.145h10.515
		c0.137,0,0.253,0.049,0.349,0.145s0.144,0.212,0.144,0.349v5.586c0,2.053-0.459,3.86-1.376,5.421s-2.204,2.766-3.86,3.614
		c-1.657,0.849-3.58,1.273-5.771,1.273S1020.241,663.378,1018.584,662.501z"/>
	<path fill="#FFFFFF" d="M1043.802,662.604c-1.684-0.89-2.991-2.142-3.922-3.758c-0.932-1.615-1.396-3.491-1.396-5.627v-8.214
		c0-2.08,0.465-3.922,1.396-5.523c0.931-1.603,2.238-2.848,3.922-3.737s3.635-1.335,5.853-1.335s4.175,0.445,5.873,1.335
		c1.697,0.89,3.012,2.135,3.942,3.737c0.931,1.602,1.396,3.443,1.396,5.523v8.214c0,2.136-0.466,4.012-1.396,5.627
		c-0.931,1.616-2.245,2.868-3.942,3.758c-1.698,0.89-3.655,1.335-5.873,1.335S1045.485,663.494,1043.802,662.604z M1052.837,656.833
		c0.808-0.849,1.212-1.984,1.212-3.408v-8.502c0-1.396-0.404-2.525-1.212-3.389c-0.808-0.862-1.868-1.293-3.183-1.293
		c-1.287,0-2.335,0.431-3.142,1.293c-0.809,0.863-1.212,1.992-1.212,3.389v8.502c0,1.424,0.403,2.56,1.212,3.408
		c0.807,0.85,1.854,1.273,3.142,1.273C1050.969,658.107,1052.029,657.683,1052.837,656.833z"/>
</g>
<g>
	<path fill="#00947C" d="M507.026,633.911c0.206,0.123,0.288,0.247,0.288,0.37s-0.082,0.246-0.288,0.41l-1.232,0.986v2.259
		c0,0.575,0.247,3.451,0.247,3.574c0,0.451-0.205,0.575-1.068,0.903c-0.452,0.164-0.739,0.247-0.904,0.247
		c-0.329,0-0.329-0.165-0.329-1.438h-23.414c-0.288,15.157-1.479,19.184-7.599,26.002l-0.452-0.411
		c4.601-5.997,5.545-11.419,5.792-19.429c0.165-4.642,0.288-11.953,0.206-15.239l2.423,1.972h22.469l1.15-1.89L507.026,633.911z
		 M509.819,647.63c0.287,0.246,0.411,0.411,0.411,0.534c0,0.164-0.165,0.205-0.534,0.205h-17.499
		c-0.123,1.767-0.329,3.368-0.575,4.848h10.023l1.15-1.644l2.547,1.89c0.206,0.123,0.329,0.246,0.329,0.328
		c0,0.124-0.123,0.206-0.329,0.37l-1.232,0.821c-0.329,3.492-0.657,5.381-1.273,7.969c-0.493,2.055-1.15,2.712-3.943,3.902
		c-0.164,0.082-0.287,0.124-0.37,0.124c-0.164,0-0.247-0.124-0.288-0.37c-0.164-1.52-1.15-2.424-4.724-3.368l0.164-0.616
		c2.67,0.616,4.272,0.944,5.258,0.944c1.438,0,1.685-0.657,2.095-2.013c0.575-1.972,0.904-3.902,1.068-7.476h-10.639
		c-1.355,6.326-4.56,9.776-12.446,13.227l-0.247-0.534c7.764-4.56,10.967-8.051,11.255-18.402h-5.668
		c-0.862,0-2.054,0.164-2.752,0.452l-1.15-1.479c1.027,0.082,2.054,0.164,2.999,0.164h22.182l1.766-2.136L509.819,647.63z
		 M503.74,640.319v-5.299h-23.332c0,1.931-0.041,3.655-0.082,5.299H503.74z M488.87,628.202c4.519,0.657,5.915,2.054,5.915,3.45
		c0,1.479-0.822,2.259-1.438,2.259c-0.37,0-0.822-0.164-0.986-1.067c-0.205-1.109-1.191-2.917-3.656-4.19L488.87,628.202z
		 M491.047,641.879c3.492,1.068,4.478,1.931,4.642,3.245c0,0.945-0.616,1.972-1.397,1.972c-0.287,0-0.657-0.451-0.739-1.026
		c-0.123-0.822-0.986-2.424-2.752-3.779L491.047,641.879z"/>
	<path fill="#00947C" d="M529.365,655.394l-11.214,5.504c-0.863,0.411-1.931,1.355-2.259,1.89c-0.082,0.164-0.206,0.288-0.329,0.288
		s-0.247-0.124-0.411-0.288l-1.684-1.89l7.024-2.711v-14.254h-3.04c-0.78,0-1.89,0.165-2.506,0.411l-1.027-1.438
		c0.904,0.082,1.849,0.164,2.711,0.164h3.861v-7.188c0-1.602-0.082-4.23-0.164-5.668l3.081,1.438
		c0.288,0.123,0.452,0.246,0.452,0.41c0,0.165-0.123,0.288-1.438,1.109v9.899h2.875l1.438-1.931l1.89,1.931
		c0.247,0.247,0.411,0.452,0.411,0.616s-0.206,0.246-0.575,0.246h-6.038v13.515l6.654-2.588L529.365,655.394z M550.232,655.928
		c0.082,4.478,0.205,5.176,1.314,6.161c0.205,0.164,0.287,0.288,0.287,0.452c0,0.123-0.041,0.246-0.123,0.41
		c-1.191,2.835-1.931,3.204-11.46,3.204c-9.899,0-10.392-0.369-10.392-5.135v-13.802c-1.027,0.411-2.793,1.15-3.738,2.096
		l-1.766-0.945c0.904-0.205,1.972-0.657,2.752-0.985l2.752-1.15v-6.736c0-1.15-0.041-3.245-0.124-4.889l2.958,1.396
		c0.247,0.124,0.37,0.247,0.37,0.411c0,0.205-0.123,0.287-1.273,1.109v7.887l5.586-2.342v-9.078c0-1.643-0.041-3.532-0.082-4.97
		l2.958,1.52c0.206,0.123,0.329,0.205,0.329,0.329c0,0.123-0.123,0.246-0.288,0.369l-1.068,0.698v10.352l6.162-2.588l0.78-2.013
		l2.958,1.643c0.165,0.083,0.247,0.206,0.247,0.37c0,0.123-0.082,0.246-0.247,0.37l-1.355,0.903
		c-0.082,3.368-0.493,9.242-0.821,12.117c-0.288,2.506-0.904,3.369-2.752,4.313c-0.123,0.082-0.205,0.082-0.288,0.082
		c-0.164,0-0.287-0.123-0.329-0.328c-0.329-1.191-0.821-1.438-3.779-2.301l0.123-0.657c1.396,0.246,2.424,0.411,3.163,0.411
		c1.602,0,1.931-0.739,2.218-2.711c0.37-2.506,0.698-8.75,0.698-11.461l-6.778,2.834v9.078c0,0.78,0.082,4.683,0.082,5.587
		c0,0.739-0.164,0.944-0.986,1.438c-0.288,0.164-0.493,0.287-0.657,0.287c-0.246,0-0.37-0.287-0.37-0.985
		c0-0.903,0.082-5.34,0.082-6.367v-8.256l-5.586,2.341v14.706c0,3.162,0,3.327,8.626,3.327c2.547,0,4.97-0.082,6.326-0.247
		c2.259-0.287,2.423-0.534,2.834-8.256H550.232z"/>
	<path fill="#00947C" d="M591.754,644.426c0.164,0.164,0.247,0.247,0.247,0.329s-0.124,0.123-0.329,0.123h-28.877
		c-0.082,14.952-1.191,16.636-8.256,22.346l-0.411-0.411c5.381-5.586,6.572-7.846,6.572-17.211c0-2.177-0.083-4.765-0.165-7.846
		l2.711,2.219h13.145c1.561-2.958,2.547-4.971,4.149-8.175l2.752,1.561c0.247,0.124,0.37,0.247,0.37,0.288
		c0,0.082-0.164,0.164-0.493,0.246c-0.986,0.247-1.643,0.698-5.915,6.08h10.063l1.52-2.383L591.754,644.426z M592.575,634.691
		c0.206,0.206,0.288,0.329,0.288,0.411s-0.082,0.123-0.329,0.123H559.18c-0.863,0-2.054,0.164-2.752,0.452l-1.15-1.52
		c1.027,0.082,2.054,0.164,2.999,0.164h29.657l1.561-2.506L592.575,634.691z M565.917,636.334c4.026,1.643,5.792,3.491,5.792,4.724
		c0,1.273-0.863,2.054-1.232,2.054c-0.411,0-0.862-0.287-1.027-0.944c-0.329-1.355-1.766-3.902-3.697-5.381L565.917,636.334z
		 M571.01,628.325c3.779,1.191,5.299,2.259,5.299,3.984c0,1.232-1.027,1.89-1.561,1.89c-0.37,0-0.616-0.534-0.78-1.068
		c-0.452-1.52-1.684-3.204-3.163-4.396L571.01,628.325z"/>
	<path fill="#00947C" d="M596.204,663.342c-0.096-0.096-0.144-0.212-0.144-0.349V635.23c0-0.137,0.048-0.253,0.144-0.35
		c0.096-0.096,0.212-0.144,0.349-0.144h5.832c0.137,0,0.252,0.048,0.349,0.144c0.095,0.097,0.144,0.213,0.144,0.35v22.219
		c0,0.138,0.068,0.205,0.206,0.205h13.101c0.137,0,0.253,0.049,0.349,0.145c0.096,0.096,0.144,0.212,0.144,0.349v4.847
		c0,0.137-0.048,0.253-0.144,0.349c-0.096,0.097-0.212,0.144-0.349,0.144h-19.631C596.416,663.486,596.3,663.439,596.204,663.342z"
		/>
	<path fill="#00947C" d="M624.05,662.603c-1.684-0.89-2.992-2.142-3.922-3.758c-0.931-1.615-1.396-3.491-1.396-5.627v-8.214
		c0-2.08,0.465-3.922,1.396-5.523c0.931-1.603,2.238-2.848,3.922-3.737c1.684-0.89,3.635-1.335,5.853-1.335s4.175,0.445,5.873,1.335
		c1.697,0.89,3.011,2.135,3.942,3.737c0.931,1.602,1.396,3.443,1.396,5.523v8.214c0,2.136-0.466,4.012-1.396,5.627
		c-0.931,1.616-2.245,2.868-3.942,3.758c-1.698,0.89-3.655,1.335-5.873,1.335S625.733,663.493,624.05,662.603z M633.085,656.833
		c0.808-0.849,1.212-1.984,1.212-3.408v-8.502c0-1.396-0.404-2.525-1.212-3.389c-0.808-0.862-1.869-1.293-3.183-1.293
		c-1.288,0-2.335,0.431-3.142,1.293c-0.808,0.863-1.211,1.992-1.211,3.389v8.502c0,1.424,0.403,2.56,1.211,3.408
		c0.807,0.85,1.854,1.273,3.142,1.273C631.216,658.106,632.277,657.682,633.085,656.833z"/>
	<path fill="#00947C" d="M649.471,662.5c-1.656-0.876-2.943-2.108-3.86-3.696s-1.376-3.423-1.376-5.504v-8.419
		c0-2.08,0.459-3.908,1.376-5.483c0.917-1.573,2.204-2.799,3.86-3.676c1.657-0.875,3.58-1.313,5.771-1.313
		c2.163,0,4.08,0.417,5.75,1.252c1.67,0.836,2.964,1.979,3.881,3.43s1.376,3.054,1.376,4.806v0.205c0,0.138-0.048,0.253-0.144,0.349
		c-0.096,0.097-0.212,0.145-0.349,0.145h-5.832c-0.138,0-0.254-0.048-0.35-0.145c-0.096-0.096-0.144-0.211-0.144-0.349
		c0-1.068-0.377-1.978-1.13-2.731c-0.753-0.753-1.772-1.129-3.06-1.129c-1.26,0-2.272,0.41-3.039,1.231s-1.149,1.89-1.149,3.204
		v8.83c0,1.313,0.424,2.382,1.272,3.203s1.917,1.232,3.204,1.232c1.204,0,2.177-0.322,2.916-0.966
		c0.739-0.643,1.108-1.54,1.108-2.689v-1.15c0-0.137-0.068-0.205-0.205-0.205h-4.107c-0.137,0-0.253-0.048-0.349-0.144
		c-0.097-0.096-0.144-0.212-0.144-0.35v-4.518c0-0.137,0.047-0.253,0.144-0.349c0.096-0.096,0.212-0.145,0.349-0.145h10.515
		c0.137,0,0.253,0.049,0.349,0.145s0.144,0.212,0.144,0.349v5.586c0,2.053-0.459,3.86-1.376,5.421s-2.204,2.766-3.86,3.614
		c-1.657,0.849-3.58,1.273-5.771,1.273S651.128,663.377,649.471,662.5z"/>
	<path fill="#00947C" d="M674.688,662.603c-1.684-0.89-2.991-2.142-3.922-3.758c-0.932-1.615-1.396-3.491-1.396-5.627v-8.214
		c0-2.08,0.465-3.922,1.396-5.523c0.931-1.603,2.238-2.848,3.922-3.737s3.635-1.335,5.853-1.335s4.175,0.445,5.873,1.335
		c1.697,0.89,3.012,2.135,3.942,3.737c0.931,1.602,1.396,3.443,1.396,5.523v8.214c0,2.136-0.466,4.012-1.396,5.627
		c-0.931,1.616-2.245,2.868-3.942,3.758c-1.698,0.89-3.655,1.335-5.873,1.335S676.372,663.493,674.688,662.603z M683.724,656.833
		c0.808-0.849,1.212-1.984,1.212-3.408v-8.502c0-1.396-0.404-2.525-1.212-3.389c-0.808-0.862-1.868-1.293-3.183-1.293
		c-1.287,0-2.335,0.431-3.142,1.293c-0.809,0.863-1.212,1.992-1.212,3.389v8.502c0,1.424,0.403,2.56,1.212,3.408
		c0.807,0.85,1.854,1.273,3.142,1.273C681.855,658.106,682.916,657.682,683.724,656.833z"/>
</g>
<g>
	<path fill="#FFFFFF" d="M141.485,647.918c-2.054,0-3.163,0.615-3.738,1.766c-0.042,0.123-0.124,0.164-0.247,0.164
		c-0.082,0-0.206,0-0.329-0.082c-6.162-2.67-11.173-5.299-14.459-10.803c-7.024,6.49-12.611,10.639-19.265,13.473l-0.288-0.369
		c8.256-5.258,12.98-9.201,18.361-15.363l2.834,1.397c0.164,0.082,0.247,0.164,0.247,0.205c0,0.123-0.124,0.164-0.411,0.205
		c-0.411,0.041-0.657,0.041-0.903,0.082c4.642,6.326,12.159,8.216,18.197,8.75V647.918z M140.623,634.199
		c0.247,0.246,0.37,0.41,0.37,0.492c0,0.124-0.164,0.165-0.534,0.165h-11.46v0.821c0,0.369,0.082,2.259,0.082,2.711
		c0,0.616-1.396,1.15-1.807,1.15c-0.206,0-0.247-0.164-0.247-0.452c0-0.411,0.082-2.506,0.082-2.998v-1.232h-9.817v0.451
		c0,0.37,0.083,2.26,0.083,2.711c0,0.699-1.684,1.191-1.849,1.191c-0.206,0-0.247-0.123-0.247-0.451
		c0-1.109,0.082-2.835,0.082-3.902h-7.887c-0.862,0-2.054,0.164-2.752,0.451l-1.15-1.561c1.027,0.082,2.054,0.164,2.999,0.164h8.79
		v-1.808c0-1.19,0-2.218-0.082-3.573l3.04,1.396c0.246,0.082,0.37,0.164,0.37,0.288c0,0.123-0.042,0.164-1.397,0.944v2.752h9.817
		v-1.52c0-1.191,0-2.218-0.082-3.574l3.04,1.232c0.165,0.082,0.288,0.124,0.288,0.206s-0.082,0.164-0.247,0.287l-1.109,0.78v2.588
		h7.188l1.725-2.382L140.623,634.199z M117.702,655.763c0.205,0.124,0.287,0.206,0.287,0.288s-0.164,0.123-0.493,0.164
		c-0.739,0.041-1.396,0.288-1.602,0.493c-4.148,3.655-7.312,6.12-11.871,8.872l-0.37-0.451c5.011-4.025,7.805-6.86,11.337-11.214
		L117.702,655.763z M134.256,651.369c0.206,0.205,0.329,0.328,0.329,0.41c0,0.124-0.165,0.165-0.493,0.165h-11.009v10.803
		c0,2.629-0.041,2.958-2.999,4.231c-0.124,0.041-0.206,0.082-0.247,0.082c-0.164,0-0.247-0.124-0.288-0.37
		c-0.288-1.479-0.821-2.054-5.093-3.409l0.123-0.575c2.834,0.616,4.478,0.944,5.381,0.944c1.15,0,1.232-0.492,1.232-1.479v-10.228
		h-7.887c-0.862,0-2.054,0.164-2.752,0.451l-1.15-1.561c1.027,0.082,2.054,0.164,2.999,0.164h8.79c0-3.45-0.082-4.847-0.164-6.325
		l3.45,1.643c0.165,0.082,0.247,0.123,0.247,0.164c0,0.082-0.082,0.165-0.247,0.247l-1.396,0.821v3.45h6.901l1.725-1.972
		L134.256,651.369z M126.821,654.983c4.765,1.931,11.009,4.683,11.009,7.928c0,0.904-0.493,1.603-1.15,1.603
		c-0.288,0-0.739-0.37-1.807-2.178c-0.822-1.396-3.615-3.984-8.256-6.777L126.821,654.983z"/>
	<path fill="#FFFFFF" d="M161.196,649.356c0.165,0.123,0.247,0.246,0.247,0.328c0,0.123-0.082,0.206-0.247,0.329l-1.355,0.739v9.037
		c0,1.602,0.082,2.711,0.206,3.778v0.124c0,0.369-0.165,0.533-1.027,0.903c-0.37,0.164-0.616,0.246-0.78,0.246
		c-0.288,0-0.329-0.205-0.329-0.657v-2.629h-7.969v3.82c0,0.411-0.083,0.534-0.904,0.78c-0.329,0.123-0.575,0.165-0.739,0.165
		c-0.288,0-0.37-0.206-0.37-0.575v-0.247c0.082-1.355,0.123-3.245,0.123-4.56v-11.706c0-0.534-0.041-1.644-0.123-2.383l2.587,2.259
		h6.778l1.232-1.807L161.196,649.356z M157.91,660.652v-10.639h-7.969v10.639H157.91z M174.053,631.57
		c0.206,0.123,0.288,0.246,0.288,0.328s-0.082,0.164-0.288,0.288l-1.602,0.862v7.312c0,0.616,0.288,3.656,0.288,3.984
		c0,0.37-0.205,0.534-1.109,0.862c-0.329,0.124-0.575,0.165-0.74,0.165c-0.287,0-0.37-0.206-0.37-0.739v-2.055h-14.623v2.178
		c0,0.451-0.082,0.575-0.904,0.821c-0.37,0.123-0.616,0.164-0.78,0.164c-0.288,0-0.37-0.164-0.37-0.534v-0.246
		c0.082-1.355,0.123-3.368,0.123-4.683v-8.914c0-0.533-0.041-1.643-0.123-2.382l2.629,2.341h13.268l1.438-1.972L174.053,631.57z
		 M170.52,641.674v-9.447h-14.623v9.447H170.52z M179.968,649.315c0.165,0.123,0.247,0.205,0.247,0.328
		c0,0.082-0.082,0.164-0.247,0.288l-1.52,0.862v9.406c0,1.603,0.082,2.835,0.205,3.902v0.123c0,0.657-1.807,1.068-1.807,1.068
		c-0.288,0-0.329-0.205-0.329-0.616v-3.122h-8.75v3.779c0,0.411-0.123,0.493-0.904,0.78c-0.37,0.123-0.616,0.206-0.78,0.206
		c-0.288,0-0.37-0.165-0.37-0.616v-0.206c0.082-1.355,0.123-3.409,0.123-4.724v-11.584c0-0.533-0.041-1.643-0.123-2.382l2.588,2.218
		h7.476l1.479-1.89L179.968,649.315z M176.518,660.652v-10.721h-8.75v10.721H176.518z"/>
	<path fill="#FFFFFF" d="M201.608,641.346c0.206,0.246,0.329,0.451,0.329,0.574c0,0.206-0.165,0.288-0.493,0.288h-9.9
		c0,2.218-0.041,4.642-0.041,7.106h4.437l0.986-1.521l2.095,1.479c0.206,0.164,0.329,0.246,0.329,0.369s-0.123,0.247-0.329,0.411
		l-0.862,0.78v9.283c0,1.314,0.041,2.917,0.123,4.396v0.164c0,0.862-1.725,1.602-1.808,1.602c-0.164,0-0.205-0.164-0.205-0.451
		c0-0.698,0.041-3.984,0.041-4.724v-10.886h-4.806c-0.082,6.12-1.355,11.871-5.792,16.924l-0.452-0.37
		c4.272-7.023,4.478-10.557,4.478-21.853c0-4.971-0.041-10.104-0.123-13.474l2.916,1.644c0.206,0.123,0.329,0.246,0.329,0.328
		c0,0.165-0.164,0.247-1.273,0.945c0,2.095,0,4.437-0.042,6.983h4.313v-6.901c0-1.52-0.041-4.025-0.123-5.422l2.711,1.643
		c0.206,0.123,0.329,0.247,0.329,0.329c0,0.164-0.123,0.246-1.109,0.78v9.571h1.232l1.191-1.644L201.608,641.346z M222.804,656.133
		c0.247,0.246,0.37,0.452,0.37,0.616c0,0.205-0.165,0.287-0.534,0.287h-8.75v2.67c0,2.506,0,4.231,0.083,5.915v0.124
		c0,0.821-1.767,1.314-1.931,1.314c-0.206,0-0.247-0.124-0.247-0.329v-0.123c0.165-2.259,0.165-4.847,0.165-6.942v-2.629h-8.667
		c-0.863,0-2.054,0.165-2.752,0.452l-1.15-1.52c1.027,0.082,2.054,0.164,2.999,0.164h9.571v-1.849c0-1.52-0.042-2.752-0.124-4.107
		l2.834,1.479c0.205,0.123,0.288,0.206,0.288,0.288s-0.083,0.205-0.247,0.287l-0.822,0.534v3.368h5.053l1.643-2.177L222.804,656.133
		z M221.325,634.281c0.164,0.123,0.288,0.246,0.288,0.369c0,0.082-0.082,0.206-0.247,0.329l-1.109,0.78v7.928
		c0,1.89,0.041,3.615,0.164,5.34v0.082c0,0.739-1.643,1.314-1.725,1.314c-0.329,0-0.329-0.164-0.329-1.479h-8.133
		c-1.396,2.711-3.779,4.889-7.065,7.024h-1.15c2.958-2.26,5.053-4.396,6.367-7.024h-4.026c0,1.273,0,1.438-0.944,1.931
		c-0.37,0.164-0.616,0.287-0.781,0.287c-0.206,0-0.247-0.164-0.247-0.451v-0.164c0.083-2.055,0.124-3.41,0.124-5.587v-8.38
		c0-0.903-0.041-2.67-0.124-3.82l1.931,1.521h3.574c1.068-2.547,1.643-4.19,2.136-5.915l2.136,1.396
		c0.206,0.123,0.288,0.246,0.288,0.328c0,0.083-0.123,0.124-0.329,0.206c-0.616,0.205-1.027,0.616-3.45,3.984h9.037l1.15-1.685
		L221.325,634.281z M210.234,641.181c0.124-1.602,0.165-2.916,0.165-4.148c0-0.657,0-1.232-0.041-1.849h-5.998v5.997H210.234z
		 M208.797,648.042c0.739-1.726,1.191-3.615,1.355-5.956h-5.792v5.956H208.797z M218.368,648.042v-5.956h-6.285
		c-0.288,2.875-0.822,4.56-1.438,5.956H218.368z M218.368,641.181v-5.997h-5.956c-0.041,2.424-0.124,4.396-0.247,5.997H218.368z"/>
	<path fill="#FFFFFF" d="M227.09,663.342c-0.096-0.096-0.144-0.212-0.144-0.349V635.23c0-0.137,0.048-0.253,0.144-0.35
		c0.096-0.096,0.212-0.144,0.349-0.144h5.832c0.137,0,0.252,0.048,0.349,0.144c0.095,0.097,0.144,0.213,0.144,0.35v22.219
		c0,0.138,0.068,0.205,0.206,0.205h13.101c0.137,0,0.253,0.049,0.349,0.145c0.096,0.096,0.144,0.212,0.144,0.349v4.847
		c0,0.137-0.048,0.253-0.144,0.349c-0.096,0.097-0.212,0.144-0.349,0.144h-19.631C227.302,663.486,227.186,663.439,227.09,663.342z"
		/>
	<path fill="#FFFFFF" d="M254.936,662.603c-1.684-0.89-2.992-2.142-3.922-3.758c-0.931-1.615-1.396-3.491-1.396-5.627v-8.214
		c0-2.08,0.465-3.922,1.396-5.523c0.931-1.603,2.238-2.848,3.922-3.737c1.684-0.89,3.635-1.335,5.853-1.335s4.175,0.445,5.873,1.335
		c1.697,0.89,3.011,2.135,3.942,3.737c0.931,1.602,1.396,3.443,1.396,5.523v8.214c0,2.136-0.466,4.012-1.396,5.627
		c-0.931,1.616-2.245,2.868-3.942,3.758c-1.698,0.89-3.655,1.335-5.873,1.335S256.619,663.493,254.936,662.603z M263.971,656.833
		c0.808-0.849,1.212-1.984,1.212-3.408v-8.502c0-1.396-0.404-2.525-1.212-3.389c-0.808-0.862-1.869-1.293-3.183-1.293
		c-1.288,0-2.335,0.431-3.142,1.293c-0.808,0.863-1.211,1.992-1.211,3.389v8.502c0,1.424,0.403,2.56,1.211,3.408
		c0.807,0.85,1.854,1.273,3.142,1.273C262.102,658.106,263.163,657.682,263.971,656.833z"/>
	<path fill="#FFFFFF" d="M280.357,662.5c-1.657-0.876-2.943-2.108-3.86-3.696c-0.917-1.588-1.376-3.423-1.376-5.504v-8.419
		c0-2.08,0.458-3.908,1.376-5.483c0.917-1.573,2.204-2.799,3.86-3.676c1.657-0.875,3.58-1.313,5.771-1.313
		c2.163,0,4.08,0.417,5.75,1.252c1.669,0.836,2.963,1.979,3.881,3.43c0.917,1.451,1.376,3.054,1.376,4.806v0.205
		c0,0.138-0.048,0.253-0.144,0.349c-0.096,0.097-0.212,0.145-0.349,0.145h-5.832c-0.137,0-0.253-0.048-0.349-0.145
		c-0.096-0.096-0.144-0.211-0.144-0.349c0-1.068-0.377-1.978-1.13-2.731c-0.753-0.753-1.773-1.129-3.06-1.129
		c-1.26,0-2.273,0.41-3.039,1.231c-0.767,0.821-1.15,1.89-1.15,3.204v8.83c0,1.313,0.424,2.382,1.273,3.203
		c0.849,0.821,1.917,1.232,3.204,1.232c1.205,0,2.177-0.322,2.916-0.966c0.739-0.643,1.109-1.54,1.109-2.689v-1.15
		c0-0.137-0.069-0.205-0.206-0.205h-4.107c-0.137,0-0.253-0.048-0.349-0.144c-0.096-0.096-0.144-0.212-0.144-0.35v-4.518
		c0-0.137,0.047-0.253,0.144-0.349c0.096-0.096,0.212-0.145,0.349-0.145h10.514c0.137,0,0.253,0.049,0.349,0.145
		c0.096,0.096,0.144,0.212,0.144,0.349v5.586c0,2.053-0.459,3.86-1.376,5.421c-0.917,1.561-2.204,2.766-3.86,3.614
		c-1.657,0.849-3.58,1.273-5.771,1.273C283.937,663.815,282.014,663.377,280.357,662.5z"/>
	<path fill="#FFFFFF" d="M305.575,662.603c-1.684-0.89-2.992-2.142-3.922-3.758c-0.931-1.615-1.396-3.491-1.396-5.627v-8.214
		c0-2.08,0.465-3.922,1.396-5.523c0.931-1.603,2.238-2.848,3.922-3.737c1.684-0.89,3.635-1.335,5.853-1.335s4.175,0.445,5.873,1.335
		c1.697,0.89,3.011,2.135,3.942,3.737c0.931,1.602,1.396,3.443,1.396,5.523v8.214c0,2.136-0.466,4.012-1.396,5.627
		c-0.931,1.616-2.245,2.868-3.942,3.758c-1.698,0.89-3.655,1.335-5.873,1.335S307.258,663.493,305.575,662.603z M314.61,656.833
		c0.808-0.849,1.212-1.984,1.212-3.408v-8.502c0-1.396-0.404-2.525-1.212-3.389c-0.808-0.862-1.869-1.293-3.183-1.293
		c-1.288,0-2.335,0.431-3.142,1.293c-0.808,0.863-1.211,1.992-1.211,3.389v8.502c0,1.424,0.403,2.56,1.211,3.408
		c0.807,0.85,1.854,1.273,3.142,1.273C312.741,658.106,313.802,657.682,314.61,656.833z"/>
</g>
</svg>
