<?xml version="1.0" encoding="utf-8"?>
<!-- Generator: Adobe Illustrator 16.0.0, SVG Export Plug-In . SVG Version: 6.00 Build 0)  -->
<!DOCTYPE svg PUBLIC "-//W3C//DTD SVG 1.1//EN" "http://www.w3.org/Graphics/SVG/1.1/DTD/svg11.dtd">
<svg version="1.1" id="Layer_1" xmlns="http://www.w3.org/2000/svg" xmlns:xlink="http://www.w3.org/1999/xlink" x="0px" y="0px"
	 width="50.561px" height="59.873px" viewBox="544.719 782.017 50.561 59.873"
	 enable-background="new 544.719 782.017 50.561 59.873" xml:space="preserve">
<g>
	<title>3</title>
	<desc>Created with Sketch.</desc>
	<g id="Mask-_x2B_-Mask-Mask" transform="translate(14.000000, 0.000000)">
		<g id="Mask">
		</g>
		<g id="Mask_1_">
			<path opacity="0.2" fill="#FFFFFF" enable-background="new    " d="M-25.215,797.885c9.042,0.842,18.162,1.962,27.026,3.433
				c70.902,11.766,118.72,41.434,129.666,75.393c5.048,15.326,2.428,31.62-8.926,47.386C100.09,955.277,48.64,977.56-11.694,986.118
				l-133.179-22.102L-35.13,811.651"/>
		</g>
		<g id="Mask_2_">
			<path opacity="0.2" fill="#FFFFFF" enable-background="new    " d="M-25.215,797.885l38.809-53.887l366.494,60.827
				c-37.174,50.863-143.444,80.384-248.611,71.885c-11.701-0.887-23.209-2.4-34.711-4.311
				c-62.52-10.376-108.907-33.093-131.896-60.749"/>
		</g>
	</g>
</g>
<title>3</title>
<desc>Created with Sketch.</desc>
<g id="Mask_5_">
</g>
<g id="Mask_4_">
	<path opacity="0.2" fill="#FFFFFF" enable-background="new    " d="M595.279,798.826c-0.873,4.496-2.297,9.066-4.463,13.55
		c-17.336,35.889-73.238,62.729-141.301,72.168c-30.711,4.315-64.1,5.02-97.233,1.414c-65.519-7.132-115.644-29.431-138.675-57.715
		l32.562-67.409l320.18,34.843"/>
</g>
</svg>
