<?xml version="1.0" encoding="utf-8"?>
<!-- Generator: Adobe Illustrator 16.0.0, SVG Export Plug-In . SVG Version: 6.00 Build 0)  -->
<!DOCTYPE svg PUBLIC "-//W3C//DTD SVG 1.1//EN" "http://www.w3.org/Graphics/SVG/1.1/DTD/svg11.dtd">
<svg version="1.1" id="Layer_1" xmlns="http://www.w3.org/2000/svg" xmlns:xlink="http://www.w3.org/1999/xlink" x="0px" y="0px"
	 width="542.504px" height="129.834px" viewBox="0 0 542.504 129.834" enable-background="new 0 0 542.504 129.834"
	 xml:space="preserve">
<path fill="#999999" d="M378.239,80.944c0,18.697-15.153,33.854-33.854,33.854H33.854C15.156,114.798,0,99.644,0,80.944V52.803
	c0-18.696,15.157-33.854,33.854-33.854h310.532c18.698,0,33.854,15.157,33.854,33.854L378.239,80.944L378.239,80.944z"/>
<g>
	<path fill="#FFFFFF" d="M133.365,39.87c-0.183,3.273-0.272,6.458-0.272,9.547v10.092c0,3.819,0.089,7.547,0.272,11.183h-6v-4.091
		H91.361v18.274c-0.367,4.365,1.91,6.457,6.818,6.273h27.003c3.09,0.185,5.226-0.272,6.409-1.363
		c1.181-1.092,2.046-4.181,2.592-9.273c1.998,1.274,4.271,2.276,6.819,3c-1.091,4.909-2.319,8.226-3.683,9.957
		c-1.363,1.726-3.32,2.68-5.864,2.861H94.905c-6.546,0.18-9.641-2.637-9.274-8.453V64.419c0-1.815-0.094-5.182-0.272-10.092h6.546
		c-0.183,2.548-0.273,5.093-0.273,7.637h35.732V44.781H97.087c-4.186,0-8.912,0.093-14.184,0.271v-5.454
		c5.272,0.184,9.909,0.271,13.91,0.271L133.365,39.87L133.365,39.87z"/>
	<path fill="#FFFFFF" d="M167.025,84.33V64.419c-4.364,0-7.547,0.093-9.546,0.272v-5.454c1.636,0.366,5,0.544,10.093,0.544h5.182
		c-0.184,2.729-0.272,5.455-0.272,8.183v16.91c5.272,4.548,13.045,6.862,23.322,6.957c10.271,0.089,18.411-0.32,24.413-1.229
		c-1.092,1.816-1.911,4.091-2.455,6.819h-16.366c-4.548,0-8.73-0.137-12.548-0.409c-3.819-0.271-7.048-1.048-9.682-2.319
		c-2.638-1.273-4.958-2.638-6.957-4.091c-2.003-1.452-3.866-1.316-5.592,0.41c-1.729,1.726-3.681,4.133-5.863,7.228
		c-1.091-1.819-2.729-3.367-4.91-4.639C161.478,88.694,165.207,85.604,167.025,84.33z M174.118,49.145
		c-1.82,1.09-3.545,2.276-5.182,3.546c-3.639-6.181-6.367-10.092-8.183-11.729c1.636-0.907,3.273-2.182,4.909-3.819
		C167.478,39.326,170.299,43.327,174.118,49.145z M200.576,81.875c1.092-0.361,1.636-1.91,1.636-4.638v-24.82h-17.729
		c-2.002,0-4.184,0.094-6.545,0.271v-5.182c2.362,0.184,5.271,0.272,8.729,0.272h15.547c0-4.726-0.184-8.817-0.544-12.274h6.271
		c-0.183,2.365-0.273,6.458-0.273,12.274c3.82,0,7.273-0.089,10.368-0.272v5.182c-2.912-0.178-6.368-0.271-10.368-0.271v27.004
		c0,4.184-1.226,6.682-3.681,7.501c-2.454,0.817-5.502,1.32-9.137,1.498c-0.368-1.997-1.091-4.091-2.185-6.273
		C196.846,82.331,199.484,82.241,200.576,81.875z M181.209,60.328c1.636-0.724,3.363-1.727,5.183-3.001
		c3.273,6.548,5.362,11.094,6.272,13.64c-1.272,0.727-3.094,1.73-5.454,2.999C185.574,69.057,183.572,64.512,181.209,60.328z"/>
	<path fill="#FFFFFF" d="M243.1,88.284c-1.91,2.639-3.775,4.952-5.591,6.958c-1.821-1.276-3.367-2.278-4.638-3.001
		c1.637-1.272,3.364-3.043,5.183-5.32c1.817-2.271,3.273-4.499,4.366-6.681l5.452,3.271C246.599,84.058,245.011,85.65,243.1,88.284z
		 M240.508,35.506h5.729c-0.184,3.64-0.273,6.64-0.273,9.001h12.276c0-3.452-0.095-6.454-0.273-9.001h6.001
		c-0.186,3.095-0.272,6.095-0.272,9.001c1.271,0,2.906-0.089,4.91-0.272v4.638c-1.82-0.18-3.456-0.273-4.91-0.273v25.913
		c1.454,0,3.091-0.089,4.91-0.272v4.637c-3.456-0.179-6.82-0.272-10.093-0.272h-14.729c-4.002,0-7.459,0.096-10.365,0.272V74.24
		c2.727,0.184,5.182,0.272,7.365,0.272V48.598c-1.636,0-3.547,0.094-5.729,0.273v-4.638c1.999,0.185,3.908,0.272,5.729,0.272
		C240.782,41.78,240.688,38.78,240.508,35.506z M258.24,54.601v-6.002h-12.276v6.002H258.24z M258.24,64.419v-5.728h-12.276v5.728
		H258.24z M258.24,74.511v-6.003h-12.276v6.003H258.24z M254.692,83.512c1.092-0.725,2.273-1.815,3.548-3.271
		c2.181,2.182,4.724,4.908,7.635,8.182c-1.458,1.09-2.911,2.364-4.363,3.819C258.6,87.876,256.329,84.971,254.692,83.512z
		 M289.606,89.512V74.238h-12.003c-0.365,4.365-1.362,8.549-2.999,12.549c-1.636,4.001-4.002,7.727-7.092,11.182
		c-1.272-1.636-3-2.82-5.181-3.547c3.092-3.089,5.409-6.36,6.955-9.819c1.543-3.451,2.453-6.907,2.728-10.364
		c0.272-3.451,0.407-9.09,0.407-16.911c0-7.999-0.092-14.361-0.271-19.093h23.187c-0.184,3.457-0.273,7.638-0.273,12.548v40.095
		c0,2.545-0.818,4.271-2.454,5.185c-1.637,0.906-3.817,1.542-6.547,1.907c0-2.002-0.729-4.089-2.182-6.272
		C288.059,92.241,289.969,91.512,289.606,89.512z M289.606,54.601V42.326h-11.728V54.6L289.606,54.601L289.606,54.601z
		 M289.606,70.146V58.691h-11.728v11.455H289.606z"/>
</g>
</svg>
