<?xml version="1.0" encoding="utf-8"?>
<!-- Generator: Adobe Illustrator 16.0.0, SVG Export Plug-In . SVG Version: 6.00 Build 0)  -->
<!DOCTYPE svg PUBLIC "-//W3C//DTD SVG 1.1//EN" "http://www.w3.org/Graphics/SVG/1.1/DTD/svg11.dtd">
<svg version="1.1" id="Layer_1" xmlns="http://www.w3.org/2000/svg" xmlns:xlink="http://www.w3.org/1999/xlink" x="0px" y="0px"
	 width="595.279px" height="841.89px" viewBox="0 0 595.279 841.89" enable-background="new 0 0 595.279 841.89"
	 xml:space="preserve">
<g>
	<title>3</title>
	<desc>Created with Sketch.</desc>
	<g id="Mask-_x2B_-Mask-Mask" transform="translate(14.000000, 0.000000)">
		<g id="Mask">
		</g>
		<g id="Mask_1_">
			<path opacity="0.2" fill="#FFFFFF" enable-background="new    " d="M778.224-47.789c-2.989,14.272-6.87,28.652-11.884,42.625
				C726.233,106.617,628.963,181.69,518.933,198.478c-49.67,7.753-102.237,3.385-152.842-14.772
				C266.017,147.797,195.535,66.243,169.658-29.146l75.338-209.967L734.04-63.642"/>
		</g>
		<g id="Mask_2_">
			<path opacity="0.2" fill="#FFFFFF" enable-background="new    " d="M778.224-47.789L951.183,14.27L743.87,592.058
				C580.621,532.63,488.381,364.411,518.933,198.478c3.211-18.455,8.446-36.611,14.95-54.738
				C569.248,45.175,644.007-27.745,734.04-63.642"/>
		</g>
	</g>
</g>
<g>
	<title>3</title>
	<desc>Created with Sketch.</desc>
	<g id="Mask-_x2B_-Mask-Mask_1_" transform="translate(14.000000, 0.000000)">
		<g id="Mask_5_">
		</g>
		<g id="Mask_4_">
			<path opacity="0.2" fill="#FFFFFF" enable-background="new    " d="M757.33,909.806c-14.51-1.441-29.225-3.757-43.654-7.243
				c-115.438-27.886-200.51-116.543-229.003-224.137c-13.035-48.554-14.33-101.286-1.704-153.546
				c24.966-103.348,98.491-182.171,190.553-218.129l216.836,52.382L768.353,864.176"/>
		</g>
		<g id="Mask_3_">
			<path opacity="0.2" fill="#FFFFFF" enable-background="new    " d="M757.33,909.806l-43.15,178.617L117.49,944.278
				c41.575-168.68,198.931-278.43,367.184-265.852c18.694,1.212,37.307,4.469,56.026,8.992
				c101.789,24.59,182.307,91.096,227.653,176.758"/>
		</g>
	</g>
</g>
</svg>
