<?xml version="1.0" encoding="utf-8"?>
<!-- Generator: Adobe Illustrator 16.0.0, SVG Export Plug-In . SVG Version: 6.00 Build 0)  -->
<!DOCTYPE svg PUBLIC "-//W3C//DTD SVG 1.1//EN" "http://www.w3.org/Graphics/SVG/1.1/DTD/svg11.dtd">
<svg version="1.1" id="Layer_1" xmlns="http://www.w3.org/2000/svg" xmlns:xlink="http://www.w3.org/1999/xlink" x="0px" y="0px"
	 width="595.279px" height="841.89px" viewBox="0 0 595.279 841.89" enable-background="new 0 0 595.279 841.89"
	 xml:space="preserve">
<symbol  id="斑马" viewBox="-59.547 -40.938 119.096 81.876">
	<g>
		<path fill="#877B59" d="M-57.594-29.543c0.828,0.37,1.461,0.845,2.364,1.576c0.664,2.71-2.164,8.828-1.838,14.184
			c0.27,4.424,0.348,9.97,0.787,14.973c0.349,3.947,4.155,5.754,4.812,9.439c0.839,4.723,2.004,9.006,3.683,12.272
			c-2.103-9.106-3.853-15.76,1.05-23.814c4.903-8.055,0.902-36.009,1.314-37.035c1.4-3.504,21.45-3.415,9.367,5.164
			c0,0,1.927,34.323,24.691,28.719C11.4-9.67,14.116-37.948,14.116-37.948c0.699-3.152,4.967-2.118,7.704-2.803
			c2.802-0.701,8.492,0.438,2.89,5.691c-3.438,3.22,2.102,22.237,2.102,22.237S39.769,2.939,38.02,9.943
			c2.451-2.802,9.103-12.258,9.103-12.258c-0.172-1.751,1.491-3.633,3.547-4.663c2.06-1.027,4.51-1.203,5.91,0.459
			c5.263,6.251,1.929,11.909,1.929,11.909c-0.526,3.414,3.323,15.759-4.729,24.516c1.749,2.102,4.465,5.164,2.101,10.418
			c-2.803-2.101-6.655-4.114-5.953-6.916c-2.451,1.051-2.103,3.502-4.553,3.151c-2.453-0.349-4.555-0.699-4.555-0.699l-2.8-0.176
			l-2.803,0.176l-2.102-0.176l-3.151-0.176l-4.027-1.048l-3.327-1.227l-2.804-0.003l-4.202-0.524L0.546,30.256
			c0,0-39.927,16.462-47.282,1.4c-1.21-1.098-2.785-3.864-4.726-7.262c-1.701-2.978-0.461-5.772-2.717-9.022
			c-1.611-2.32-1.522-7.346-3.415-9.194c-0.194-0.19-2.323-5.743-1.576-11.558c0.445-3.461-0.739-8.948-0.262-12.606
			c0.945-7.256,1.044-8.88,0.798-9.053L-57.594-29.543z"/>
		<polygon fill="#231815" points="15.78,33.234 13.328,36.036 20.683,35.336 21.208,38.663 25.937,37.262 29.613,40.414 
			34.167,37.262 35.917,40.414 38.545,38.313 43.448,40.938 45.898,37.961 49.401,38.837 49.401,35.86 46.6,37.262 39.595,37.262 
			34.341,36.211 29.264,36.386 22.259,34.461 		"/>
		<polygon fill="#231815" points="53.583,29.999 54.983,29.999 56.735,28.423 59.099,26.584 57.348,26.145 56.999,23.694 
			55.333,26.146 		"/>
		<path fill="#231815" d="M58.244-0.387c0,0,1.051-2.104-0.263-2.891c-1.313-0.788-2.89-0.524-1.839,0.787
			C57.193-1.175,56.932-1.175,58.244-0.387z"/>
		<path fill="#231815" d="M52.729,31.656l1.838,2.889l0.962,3.416l-2.8-2.891C52.729,35.07,52.466,32.707,52.729,31.656z"/>
		<g>
			<path fill="#231815" d="M11.083-25.928c0.014-0.032,0.026-0.064,0.039-0.096c2.194,1.559,7.569,4.568,13.037,1.476
				c0.083,0.525,0.174,1.053,0.268,1.571C22.903-22.186,17.699-20.243,11.083-25.928z"/>
			<path fill="#231815" d="M10.35-21.576c0,0-0.354-0.406-0.75-0.876c0.033-0.067,0.067-0.138,0.099-0.204
				c0.354,0.369,0.795,0.834,1.354,1.43c3.369,3.595,9.941,3.155,14.225,2.375c0.057,0.254,0.116,0.506,0.172,0.748
				C12.197-13.057,10.35-21.576,10.35-21.576z"/>
			<path fill="#231815" d="M6.358-16.751c0.124-0.184,0.254-0.365,0.375-0.549c11.62,6.164,17.497,6,20.357,4.825
				c0.237,0.294,0.613,0.773,1.087,1.394C19.637-7.466,10.52-13.411,6.358-16.751z"/>
			<path fill="#231815" d="M3.047-12.593c0.224-0.241,0.446-0.481,0.661-0.727c9.695,8.207,21.068,6.995,26.911,5.569
				c0.141,0.2,0.284,0.405,0.428,0.615C15.74,0.094,6.455-7.816,3.047-12.593z"/>
			<path fill="#231815" d="M9.869,31.774l-0.835-0.137c-1.988-5.911-0.936-17.012,7.356-30.448C12.5,0.289,0.865-3.557-0.892-9.034
				c0.395-0.297,0.777-0.604,1.154-0.918C3.101-5.698,11.9,3.246,32.509-4.949c0.069,0.108,0.14,0.22,0.212,0.331
				c-2.656,1.616-7.638,4.376-11.775,5.105C18.04,2.424,7.423,19.51,9.869,31.774z"/>
			<path fill="#231815" d="M12.561,32.212l-0.696-0.113c-0.686-1.74-1.555-4.821-0.113-6.746c2.103-2.8,2.103-6.304,5.255-10.508
				c3.152-4.202,0.35-4.552,6.304-8.402c4.691-3.039,8.078-7.152,11.02-8.419c0.206,0.357,0.408,0.716,0.604,1.075
				C28.665,4.059,14.351,13.629,12.561,32.212z"/>
			<path fill="#231815" d="M32.414,8.894c-0.699,1.749-0.349,7.003-4.552,9.104c-4.202,2.101-5.955,2.802-7.354,5.953
				c-1.261,2.832-3.736,3.215-4.014,8.492l-0.364-0.261c-0.304-2.522-0.622-5.802,1.226-7.881c2.803-3.152,8.404-8.055,9.806-10.856
				c1.401-2.803,3.854-5.953,5.605-7.705c1.205-1.208,2.577-2.403,3.89-3.151c0.147,0.342,0.284,0.681,0.415,1.017
				C34.424,6.903,33.021,7.373,32.414,8.894z"/>
			<path fill="#231815" d="M38.719,12.395c0,0-0.35,5.253-4.552,8.405c-4.203,3.151-6.305,8.757-5.604,10.158
				c0.31,0.618,0.331,1.769,0.351,4.027l-1.576-0.351l-1.227-5.431l2.452-6.303l7.004-6.653l1.05-4.554l1.527-2.48
				c-0.029,0.253-0.067,0.496-0.124,0.729c0.39-0.446,0.895-1.073,1.453-1.793C39.569,11.226,38.719,12.395,38.719,12.395z"/>
			<path fill="#231815" d="M40.471,19.399c-0.702,2.801-3.153,4.904-3.854,7.355c-0.524,1.839-1.949,5.418-2.275,8.93l-0.524,0.176
				c-0.31-2.865-0.701-5.992-0.701-6.656c0-1.05,2.102-3.5,3.853-7.004c1.751-3.502,2.801-7.354,2.801-9.104
				c0-1.221-0.168-3.626-0.271-4.976c0.025-0.032,0.051-0.063,0.078-0.098c0.164,0.615,0.51,1.519,1.244,2.62
				C42.222,12.744,41.171,16.599,40.471,19.399z"/>
			<path fill="#231815" d="M45.898,21.149c0,0.789-2.627,6.567-1.575,8.932c0.646,1.457-0.5,4.203-1.477,6.103
				c-0.432-0.067-0.801-0.125-1.112-0.175c0.053-1.75,0.181-4.067,0.487-5.141c0.525-1.839,2.364-11.294,2.364-13.134
				c0-1.314-2.426-7.751-3.804-11.3c0.169-0.221,0.336-0.443,0.505-0.671c3.077,4.227,4.087,9.871,4.087,9.871
				S45.898,20.362,45.898,21.149z"/>
			<path fill="#231815" d="M48.788,17.473l0.525,10.77c0,0,0.804,3.558,0.515,5.213c-0.228,0.105-0.433,0.223-0.616,0.349
				c-0.249-1.264-0.848-4.855-0.424-8.451c0.525-4.465-1.05-3.94-1.575-7.618c-0.526-3.676-0.789-9.979-1.314-10.767
				c-0.325-0.486-1.94-2.064-3.134-3.207c0.15-0.207,0.3-0.412,0.447-0.617c1.748,0.93,3.475,2.51,3.475,2.51L48.788,17.473z"/>
			<path fill="#231815" d="M51.678,13.008l1.839,7.091c0,0-0.232,4.126,2.691,6.485c-0.022,0.042-0.05,0.084-0.076,0.128
				c-1.126-0.485-3.666-1.709-3.666-2.935c0-1.577-1.576-8.669-1.838-9.719c-0.264-1.051-2.103-7.091-2.627-8.142
				c-0.34-0.678-2.527-2.55-4.045-3.799c0.155-0.212,0.305-0.421,0.453-0.626c2.14,0.852,4.642,2.323,4.642,2.323L51.678,13.008z"/>
			<path fill="#231815" d="M59.409,2.629C53.48,3.216,49.154-1.032,47.246-3.375c0.046-0.158,0.1-0.314,0.168-0.471
				c6.137,4.81,8.4,4.453,12.062,5.965C59.455,2.292,59.436,2.467,59.409,2.629z"/>
			<path fill="#231815" d="M12.131-28.952c0.181-0.578,0.344-1.133,0.493-1.673c6.868,2.604,9.81,2.712,11.064,2.302
				c0.047,0.575,0.107,1.165,0.183,1.767C20.36-25.964,14.747-27.921,12.131-28.952z"/>
			<path fill="#231815" d="M14.116-37.948c4.471,3.595,7.537,4.923,9.628,5.171c-0.125,0.761-0.172,1.643-0.153,2.612
				c-2.644-0.528-7.598-3.26-9.974-4.632C13.997-36.743,14.116-37.948,14.116-37.948z"/>
			<path fill="#231815" d="M58.508,5.391c-0.007,0.021-0.007,0.044-0.009,0.068C51.431,6.115,46.732,1.45,45.807-0.455
				c0.04-0.059,0.085-0.121,0.125-0.178c4.142,4.111,9.847,5.289,12.773,5.623C58.589,5.242,58.508,5.391,58.508,5.391z"/>
			<path fill="#231815" d="M54.107,11.911L52.202,7.23c2.378,2.614,3.917,5.675,3.917,5.675l2.701,5.093
				c-0.131,1.312-0.357,2.651-0.723,3.989l-1.068-5.031L54.107,11.911z"/>
			<path fill="#231815" d="M55.88,8.805l-2.626-2.101l3.152,0.788l1.575,2.363l0.826,1.083c0.054,0.682,0.101,1.401,0.132,2.152
				l-1.746-1.922L55.88,8.805z"/>
			<path fill="#231815" d="M3.345,25.353l0.264-4.203c0,0,2.626-8.405,2.889-9.193c0.263-0.787,1.839-7.615,4.992-9.717
				c0,0-1.575,6.304-3.153,7.616c-1.291,1.078-1.576,8.931-2.102,10.507c-0.526,1.576-0.788,6.04-0.788,8.143
				c0,0.87,0,1.774,0,2.549l-0.967-0.156l-0.871-1.868L3.345,25.353z"/>
			<path fill="#231815" d="M-5.485,6.207l-1.645,7.188l2.332,3.814l2.254,4.338l0.634,6.21l-0.083,3.481
				c-0.405,0.149-0.851,0.312-1.337,0.488l-0.839-1.396l0.145-6.091l-1.415-2.876l-2.333-3.816l-0.343,3.934
				c0,0-0.764,4.933-0.925,5.97c-0.161,1.039-1.76,4.513-1.76,4.513l-0.943,2.492c-0.98,0.284-1.99,0.566-3.032,0.84l1.559-3.176
				l1.983-7.668l0.883-5.709l1.422-4.032c0,0,1.004-6.491,0.866-7.309C-8.201,6.584-9.555,1.59-9.555,1.59l-3.511-4.797
				l-0.361-0.451c0.604-0.089,1.229-0.218,1.866-0.368l2.845,3.62L-5.485,6.207z"/>
			<path fill="#231815" d="M-2.959-2.227l2.89,4.991l0.525,3.413c0,0,0.263,3.94,0.263,4.991c0,1.05-0.263,6.04-0.263,6.04
				l0.525,8.144l0.573,5.068l-0.655-0.106c-1.232-3.342-2.019-12.58-2.019-12.58s-0.788-6.829-0.788-8.142
				c0-1.313-0.789-6.828-1.577-8.403C-4.271-0.387-6.11-4.065-6.11-4.065L-7.013-5.51c0.243-0.103,0.478-0.211,0.715-0.319
				l2.026,2.027L-2.959-2.227z"/>
			<path fill="#231815" d="M4.396-0.387c0,0,0.263,2.626,0.525,3.414S3.608,13.532,3.608,13.532L2.82,4.078L1.77-0.387l-5.998-6.48
				c0.546-0.301,1.075-0.619,1.589-0.952l0.206,0.077L4.396-0.387z"/>
			<path fill="#231815" d="M-22.134,4.866c-1.05,2.364-4.727,5.252-5.516,11.293c-0.788,6.041-1.051,5.253-1.838,6.566
				c-0.788,1.313-6.041,7.881-6.041,7.881l-5.879,5.877c-0.627-0.267-1.211-0.584-1.765-0.935c0.745-1.121,1.836-2.329,3.439-3.367
				c4.466-2.89,3.941-6.044,4.991-6.829c1.05-0.787,5.254-6.042,5.517-7.092c0.263-1.052,0.524-4.729,0.524-5.517
				s4.203-8.142,4.203-8.142l3.677-7.617l0.369-1.034c0.27,0.079,0.55,0.136,0.828,0.199c-0.037,0.457-0.083,0.924-0.146,1.359
				C-20.031-0.65-21.083,2.503-22.134,4.866z"/>
			<path fill="#231815" d="M-22.134,23.777l-2.101,9.719c0,0-3.152,3.414-3.94,3.938c-0.149,0.102-0.426,0.25-0.794,0.425
				c-1.835,0.142-3.628,0.186-5.334,0.096c3.058-2.994,8.071-8.565,7.705-12.603c-0.527-5.778,1.313-9.456,2.101-11.294
				c0.688-1.604,6.17-11.4,7.386-17.54c0.2,0.014,0.413,0.005,0.618,0.007c-0.368,5.67-4.852,18.583-4.852,18.583L-22.134,23.777z"
				/>
			<path fill="#231815" d="M-12.152,10.643c-1.05,3.94-3.151,9.72-4.202,12.871c-1.051,3.153-3.939,12.083-3.939,12.083
				l-0.108,1.019c-0.614,0.127-1.231,0.245-1.851,0.357l3.535-13.195c0,0,2.101-10.245,2.363-11.033
				c0.262-0.788,2.364-2.626,1.575-8.142c-0.42-2.953-0.666-5.932-0.803-8.068c0.234-0.009,0.478-0.033,0.717-0.051
				c0.643,2.173,1.479,4.862,1.926,5.756C-12.152,3.815-11.102,6.704-12.152,10.643z"/>
			<path fill="#231815" d="M-28.175,1.451c-1.05,1.313-2.627,5.253-4.991,8.93c-2.363,3.678-1.313,4.728-2.101,8.143
				s-1.576,4.99-4.466,8.931c-2.89,3.939-7.004,4.202-7.004,4.202c-0.628-0.571-1.355-1.596-2.182-2.921l0.518-0.23l3.415-1.576
				l2.626-1.839l3.679-4.466c0,0,2.362-6.829,2.362-7.616c0-0.789,2.627-5.516,2.627-5.516l3.152-4.728c0,0,2.627-6.304,2.627-7.092
				c0-0.447,0.932-1.488,2.17-2.592c0.65,0.545,1.339,1.042,2.072,1.473l-0.564,2.169C-24.234-3.277-27.125,0.138-28.175,1.451z"/>
			<path fill="#231815" d="M-51.802,23.707l3.264-2.43c0.231,0.542,0.47,1.068,0.723,1.563l-3.842,1.174
				C-51.709,23.912-51.757,23.81-51.802,23.707z"/>
			<path fill="#231815" d="M-33.517-2.891c-0.562,1.031-6.217,12.4-8.173,15.746c-1.957,3.349-2.411,8.854-2.411,8.854l-3.7,1.128
				c-0.142-0.61-0.28-1.208-0.417-1.798l2.361-1.76c0.798-0.232,0.428-4.714,1.814-6.77c1.386-2.053,6.376-9.5,7.483-11.037
				c1.104-1.538,0.681-4.445,2.572-5.955c1.893-1.512,4.609-4.046,5.688-4.796c0.039-0.028,0.082-0.063,0.123-0.097
				c0.33,0.402,0.674,0.791,1.033,1.165c-0.055,0.182-0.109,0.354-0.162,0.544C-28.211-4.282-32.954-3.922-33.517-2.891z"/>
			<path fill="#231815" d="M-39.229-4.325c-1.662,1.76-2.824,4.071-3.41,5.357c-0.589,1.286-3.438,5.885-3.438,5.885l-3.637,0.396
				c0.065-0.51,0.154-1.023,0.263-1.536l1.862-0.248c0,0,3.911-4.809,4.474-5.57c0.562-0.764,2.925-6.171,3.8-7.972
				c0.87-1.789,6.923-3.327,9.104-4.276c0.225,0.37,0.458,0.734,0.698,1.093l-3.719,2.423C-33.231-8.773-37.566-6.086-39.229-4.325z
				"/>
			<path fill="#231815" d="M-35.528-15.097c-0.263,0.788-3.679,3.678-4.467,4.202c-0.535,0.357-3.009,0.835-4.541,1.104
				c0.048-0.541,0.089-1.095,0.123-1.657c1.354-0.393,3.036-0.875,3.631-1.022c1.05-0.264,2.364-1.839,3.151-2.364
				c0.788-0.524,1.051-2.364,1.313-3.152c0.199-0.595,0.997-1.04,2.838-1.673c0.156,0.479,0.321,0.959,0.497,1.438l-0.182,0.234
				C-33.166-17.986-35.267-15.884-35.528-15.097z"/>
			<path fill="#231815" d="M-37.893-18.248c-2.627,2.364-3.941,1.313-3.941,1.313l-2.449-0.919c-0.005-0.413-0.01-0.824-0.019-1.237
				c0.647,0.031,1.189,0.055,1.416,0.055c0.788,0,2.103,0.264,2.89,0.264c0.788,0,3.415-2.103,3.415-2.103l2.042-2.497
				c0.107,0.438,0.224,0.885,0.346,1.338C-35.276-21.292-35.438-20.462-37.893-18.248z"/>
			<path fill="#231815" d="M-36.055-25.079c-0.788,0.527-3.415,1.84-5.253,2.103c-0.787,0.112-2.005-0.063-3.143-0.304
				c-0.032-0.657-0.066-1.304-0.104-1.941c0.846-0.062,2.027-0.119,3.509-0.119c3.152,0,2.626-0.788,3.939-1.575
				c0.594-0.357,1.13-0.707,1.64-1.015c0.099,0.597,0.21,1.229,0.34,1.896C-35.354-25.714-35.672-25.333-36.055-25.079z"/>
			<path fill="#231815" d="M-44.783-28.689c-0.063-0.848-0.124-1.659-0.186-2.426l0.771,0.259c0,0,4.465,0,5.517-0.264
				c1.05-0.263,2.626-1.664,2.626-1.664s0.048,0.842,0.214,2.236c-1.563,0.783-4.443,1.823-6.519,2.055
				C-43.205-28.398-44.045-28.513-44.783-28.689z"/>
		</g>
		<polygon fill="#231815" points="-50.764,20.624 -52.077,13.008 -54.441,9.066 -56.806,5.129 -58.118,-8.793 -56.543,-26.654 
			-58.381,-20.35 -58.907,-9.58 -58.118,2.503 -55.754,9.066 -53.391,14.845 		"/>
		<polygon fill="#231815" points="23.047,-35.584 25.673,-38.211 22.784,-39.263 17.531,-38.736 19.633,-36.374 		"/>
		<polygon fill="#231815" points="-42.885,-35.322 -44.459,-37.424 -35.267,-38.736 -33.954,-36.898 -36.318,-34.797 		"/>
		<path fill="#231815" d="M54.566,19.836c0-1.305-1.059-2.363-2.364-2.363c-1.305,0-2.363,1.059-2.363,2.363
			c0,1.308,1.059,2.364,2.363,2.364C53.508,22.2,54.566,21.144,54.566,19.836z"/>
		<path fill="#DCBA7F" d="M53.517,19.836c0-0.725-0.59-1.313-1.314-1.313c-0.726,0-1.313,0.588-1.313,1.313
			c0,0.727,0.587,1.313,1.313,1.313C52.927,21.149,53.517,20.563,53.517,19.836z"/>
		<polygon fill="#231815" points="51.152,-0.125 49.969,-6.452 51.194,-7.326 		"/>
	</g>
</symbol>
<use xlink:href="#斑马"  width="119.096" height="81.876" x="-59.547" y="-40.938" transform="matrix(-5.5185 0 0 -6.0989 574.1531 609.4448)" overflow="visible"/>
</svg>
