<?xml version="1.0" encoding="utf-8"?>
<!-- Generator: Adobe Illustrator 16.0.0, SVG Export Plug-In . SVG Version: 6.00 Build 0)  -->
<!DOCTYPE svg PUBLIC "-//W3C//DTD SVG 1.1//EN" "http://www.w3.org/Graphics/SVG/1.1/DTD/svg11.dtd">
<svg version="1.1" id="Layer_1" xmlns="http://www.w3.org/2000/svg" xmlns:xlink="http://www.w3.org/1999/xlink" x="0px" y="0px"
	 width="595.279px" height="841.89px" viewBox="0 0 595.279 841.89" enable-background="new 0 0 595.279 841.89"
	 xml:space="preserve">
<polygon opacity="0.3" fill="#FFFFFF" enable-background="new    " points="769.528,263.992 941.904,562.554 1114.282,861.121 
	769.528,861.121 424.775,861.121 597.152,562.554 "/>
<polygon opacity="0.2" fill="#FFFFFF" enable-background="new    " points="629.489,-103.552 801.866,195.013 974.243,493.578 
	629.489,493.578 284.737,493.578 457.113,195.013 "/>
<g opacity="0.3">
	<rect x="503.565" y="633.162" fill="#BCBCBC" width="28.438" height="5.553"/>
	<rect x="503.565" y="611.568" fill="#BCBCBC" width="17.092" height="5.547"/>
	<rect x="503.565" y="600.775" fill="#BCBCBC" width="17.092" height="5.553"/>
	<rect x="503.565" y="622.361" fill="#BCBCBC" width="28.438" height="5.561"/>
	<path fill="#BCBCBC" d="M429.284,600.775h-43.661v5.553h48.479C432.939,603.632,429.284,600.775,429.284,600.775z"/>
	<rect x="329.526" y="633.162" fill="#BCBCBC" width="39.471" height="5.553"/>
	<path fill="#BCBCBC" d="M430.528,633.162h-56.249v5.539h42.896C424.783,638.701,430.528,633.162,430.528,633.162z"/>
	<polygon fill="#BCBCBC" points="490.202,584.744 520.657,584.744 520.657,579.181 492.229,579.181 	"/>
	<rect x="329.526" y="622.361" fill="#BCBCBC" width="39.471" height="5.561"/>
	<polygon fill="#BCBCBC" points="531.693,573.943 531.693,568.396 495.952,568.396 494.083,573.943 	"/>
	<rect x="340.56" y="589.982" fill="#BCBCBC" width="17.095" height="5.555"/>
	<polygon fill="#BCBCBC" points="492.879,622.361 480.879,622.361 482.937,627.921 490.946,627.921 	"/>
	<rect x="385.623" y="579.181" fill="#BCBCBC" width="17.097" height="5.563"/>
	<path fill="#BCBCBC" d="M385.623,595.537h43.661c0,0,3.655-2.854,4.818-5.555h-48.479V595.537z"/>
	<rect x="385.623" y="611.568" fill="#BCBCBC" width="17.097" height="5.547"/>
	<path fill="#BCBCBC" d="M437.058,622.361H374.28v5.561h60.768C436.323,626.65,437.058,622.361,437.058,622.361z"/>
	<path fill="#BCBCBC" d="M435.047,568.396h-60.768v5.547h62.778C437.058,573.943,436.323,569.667,435.047,568.396z"/>
	<path fill="#BCBCBC" d="M417.176,557.595h-42.896v5.555h56.249C430.528,563.15,424.783,557.595,417.176,557.595z"/>
	<polygon fill="#BCBCBC" points="503.565,592.443 503.565,595.537 520.657,595.537 520.657,589.982 488.57,589.982 486.867,594.681 
		485.154,589.982 452.909,589.982 452.909,595.537 470.003,595.537 470.003,592.443 471.09,595.537 502.399,595.537 	"/>
	<polygon fill="#BCBCBC" points="487.103,638.701 489.117,633.162 484.782,633.162 486.764,638.693 	"/>
	<polygon fill="#BCBCBC" points="441.565,557.595 441.565,563.15 475.595,563.15 473.575,557.595 	"/>
	<rect x="452.909" y="600.775" fill="#BCBCBC" width="17.094" height="5.553"/>
	<polygon fill="#BCBCBC" points="452.909,579.181 452.909,584.744 483.216,584.744 481.194,579.181 	"/>
	<rect x="441.873" y="622.361" fill="#BCBCBC" width="28.13" height="5.561"/>
	<rect x="452.909" y="611.568" fill="#BCBCBC" width="17.094" height="5.547"/>
	<rect x="441.873" y="633.162" fill="#BCBCBC" width="28.13" height="5.553"/>
	<polygon fill="#BCBCBC" points="477.456,568.396 441.565,568.396 441.565,573.943 479.323,573.943 	"/>
	<polygon fill="#BCBCBC" points="500.619,600.775 473.107,600.775 475.176,606.328 498.655,606.328 	"/>
	<polygon fill="#BCBCBC" points="496.753,611.568 476.988,611.568 478.993,617.115 494.734,617.115 	"/>
	<path fill="#BCBCBC" d="M419.346,579.181v5.563h17.093c0,0,1.086-2.936,1.086-5.563H419.346z"/>
	<polygon fill="#BCBCBC" points="497.971,563.15 531.693,563.15 531.693,557.595 499.993,557.595 	"/>
	<rect x="340.56" y="611.568" fill="#BCBCBC" width="17.095" height="5.547"/>
	<rect x="329.218" y="557.595" fill="#BCBCBC" width="39.472" height="5.555"/>
	<rect x="340.56" y="600.775" fill="#BCBCBC" width="17.095" height="5.553"/>
	<rect x="329.218" y="568.388" fill="#BCBCBC" width="39.472" height="5.555"/>
	<rect x="340.56" y="579.181" fill="#BCBCBC" width="17.095" height="5.563"/>
	<path fill="#BCBCBC" d="M436.438,611.568h-17.093v5.547h18.179C437.524,614.501,436.438,611.568,436.438,611.568z"/>
	<path fill="#BCBCBC" d="M485.804,67.354c-2.492,0.368-4.74,1.092-6.865,3.038v0.113c1.494,1.833,3.751,2.071,5.996,2.071
		c0.744,0,2.118,1.698,5.621,2.187c5.117,0.967,8.118-1.825,11.729-0.371c-0.237-0.605-0.237-0.972-0.237-1.454
		c4.248,1.1,7.622,0.968,10.876-0.6c2.991-0.741,4.365-4.866,7.613-4.742c0-0.486-0.628-1.211-1.127-1.459
		c-2.997-1.695-5.994,0.486-8.994,0.486c-1.127,0-2.246,0.244-3.119-0.362c0-0.487,0.492-0.608,0.492-1.093
		c-0.742,0-1.622-0.243-2.493-0.365c0,0-1.872-0.122-3.006-0.483c-4.117-1.697-7.993-2.555-12.729-0.365
		c-1.506,0.608-3,1.213-4.626,1.213C484.182,65.17,486.051,66.625,485.804,67.354z"/>
	<path fill="#BCBCBC" d="M453.186,73.615c0.655,0.275,1.324,0.139,1.984,0.54c0,0.269-0.138,0.41-0.268,0.67
		c-1.718,3.092,0.44,7.268-2.855,9.554c1.455,0.667,3.647,0,4.837-1.347l0.231,0.116c-0.925,2.15-1.287,4.63-1.157,7.013
		c0,0,0.101,0.561-0.13,1.256c0,0-0.245,0.775-0.396,1.165c4.235-0.707,5.828-6.24,6.151-7.18l0.377,0.096
		c0,0-1.413,3.997-0.191,5.731c0.271,0.396,0.752,0.781,1.211,0.73c0.499-1.93,1.559-4.363,3.274-5.7
		c1.588,0.132,3.175,0.938,4.757,1.609c0.928-2.281-1.099-5.658-1.099-5.658l0.176-0.135l0.26,0.283c0,0,1.323,1.476,1.986,2.02
		c0.782,0.537,3.173,1.069,4.49,0.259c0.459-0.277,1.188-0.933,1.314-1.476c-4.228,0.271-4.493-5.106-6.469-7.661l0.127-0.136
		c1.063,0.538,1.591,2.021,2.645,2.552l5.774,1.216c0.385,0.079,0.538-0.543,0.538-0.543c0.053-0.181,0.579-2.316,0.29-3.361
		c-0.655-0.404-0.919,0.674-1.449,0.674c-1.456-0.402-2.374-0.538-3.968-1.214l-2.638-5.377c-0.201-0.404,0-0.538,0-0.538
		l3.564-2.014c0.666,0.136,0.666,0.809,1.054,1.216c0.934-0.277,0.53-1.618,1.065-2.292c0.521,0,0.521,0.809,0.921,1.211
		c0.92,0,0.652-1.477,1.062-2.149c0.521-0.807,1.976-0.541,1.712-1.884l-1.319-6.052c-0.157-0.721-0.542-1.049-0.801-0.944
		c-4.741,1.751-8.45,3.499-12.94,5.112c-0.394,0.136-0.926,0.331-1.448,0.136l-7.265-5.51c0.397,3.219,0.795,6.183,1.059,8.07
		c0.048,0.348-0.016,0.532-0.264,0.532c-1.449,0-2.843,1.043-3.696,2.554c-1.246,2.189-2.377,4.169-4.491,5.109
		C451.599,72.814,452.394,73.349,453.186,73.615z M469.292,63.674c0.927,0,1.591,0.665,1.591,1.604c0,0.941-0.666,1.618-1.587,1.618
		c-0.795,0-1.451-0.677-1.451-1.618C467.844,64.345,468.502,63.674,469.292,63.674z"/>
	<path fill="#BCBCBC" d="M517.211,88.441c-0.548,0.368-1.937,0.673-3.013-0.582c-0.511-0.68-1.163-1.777-0.778-2.733
		c0.396,0.275,0.803,1.011,1.277,1.375c0.498,0.391,1.182,0.442,1.729,0.13c0.697-0.407,1.05-1.216,1.05-2.042
		c0-0.993-0.526-1.867-1.181-2.467c-1.037-0.953-2.749-0.817-3.912-0.13c-1.567,0.814-2.479,2.585-2.22,4.639
		c0.131,1.37,1.089,3.257,1.832,4.414c-0.07,0.418-0.473,0.956-0.896,1.092c-0.946,0.306-1.603-0.125-2.217-0.979
		c-0.229-0.311-0.514-0.806-0.563-1.021c-0.545,0.529-0.834,1.757-0.826,3.2c0,0.665-0.438,0.6-0.77,0.368
		c-1.132-0.79-1.688-1.89-2.11-3.366c0,0-0.77,0.435-1.022,2.036c-0.142,0.928,0,2.179-0.656,2.162
		c-1.387-0.042-2.03-2.713-2.161-4.486c-0.513,0-1.036,0.82-1.437,1.838c-0.335,0.849-1.009,2.857-1.747,2.778
		c-0.856-0.097-1.304-3.124-1.271-5.137c-1.345,0.288-2.596,3.438-3.319,4.633c-0.232,0.368-0.386,0.022-0.386,0.022
		c-0.7-1.256-0.645-3.858-0.763-5.621c-0.005-0.071-0.127-0.011-0.127-0.011c-1.382,0.665-2.845,4.608-4.813,4.973
		c-0.785,0.15-0.445-0.503-0.445-0.503c0.713-1.708,0.983-4.257-0.132-6.017c0,0-1.943,2.543-2.643,3.173
		c-0.545,0.493-1.544,1.285-2.53,1.766c-0.26,0.132-0.346,0.017-0.376-0.02c-0.065-0.104-0.007-0.286-0.007-0.286
		c0.367-1.273,1.867-3.714,0.83-7.326c-0.909,1.091-1.296,1.977-4.026,2.8c-1.575,0.413-2.771,0.139-3.94-0.399
		c-0.1,1.21-0.37,2.736-1.415,3.765c0,0-3.602-1.944-4.645-1.808c-0.917,0.139-2.269,3.975-2.916,6.292
		c-1.562,0.053-3.512-1.508-3.842-3.188c-1.24,3.439-1.153,7.62-0.407,11.731c1.945,10.724,5.398,17.813,7.355,30.074
		c0.727,4.566-3.766,7.598-5.733,11.298c0,0-0.265,0.47,0.35,0.475c1.867,0.012,3.487,0.097,5.637,0.012
		c0.582-0.029,1.461-0.685,1.633-1.449c0.504-2.275,0.929-4.996,1.705-7.315c0.279-1.072,1.908-3.078,4.119-4.549
		c0.111-0.073-1.211-0.79-0.788-1.728c0.4-0.875,1.813-1.412,2.289-2.925c-1.536-0.433-1.782-1.231-1.782-1.231
		c-0.376-1.076,1.664-1.18,2.544-2.987c-2.48-0.736-2.858-1.678-2.858-1.678s-0.432-0.75,0.628-1.205
		c2.874-1.226,2.317-2.399,2.317-2.399c-3.051,0.258-3.931-0.956-3.92-1.943v-2.558c0-0.385,0.4-0.141,0.4-0.141
		c1.665,0.879,3.481,1.262,5.114,1.538h0.002c0,0,0.219,0.035,0.198,0.34c-0.114,1.596-0.094,3.619,0.384,5.217
		c0.662,2.229,1.653,3.801,1.349,6.41c-0.213,1.739-1.942,2.529-2.984,3.402c-0.438,0.371-1.585,0.965-1.203,1.537
		c0,0,0.066,0.136,0.22,0.272l4.022,3.717c0.311,0.288,0.456,0.073,0.456,0.073c0.941-1.38,1.099-3.417,1.868-4.894
		c0.322-0.617,0.54-1.367,1.661-1.703c1.822-0.54,2.288-2.113,2.288-2.113c-1.999,0.2-2.397-0.19-2.288-0.659
		c0.202-0.611,1.014-0.775,2.288-1.188c1.539-0.492,2.246-2.173,2.246-2.173c-1.702,0.453-2.778,0.292-3.069-0.059
		c-0.296-0.365,0.064-0.79,0.064-0.79c1.023-1.396,3.513-0.945,4.413-3.327c0.047-0.118-2.645,0.911-3.604-0.413
		c-0.561-0.77-0.025-1.455,0.378-2.422c0.32-0.758,0.423-0.93,0.799-0.899c4.208,0.396,6.737-0.333,8.289-0.596
		c0,0,1.137-0.244,0.935,0.829c-0.767,3.457-1.865,6.741-2.405,10.303c-0.04,0.218-0.134,0.419-0.277,0.586
		c-1.119,1.338-2.426,2.191-3.678,2.984c-0.917,0.575-1.89,0.781-2.331,1.754c0,0-0.214,0.512,0.175,0.849l4.701,3.955
		c0.229,0.195,0.365-0.037,0.365-0.037c0.909-1.173,1.621-2.735,2.143-4.114c0.339-0.884,0.173-1.581,0.685-2.133
		c0,0,0.3-0.387,0.913-0.579c0.717-0.238,2.061-0.595,2.526-1.155c0.351-0.413-0.843-0.165-1.324-1.098
		c-0.187-0.356,0.418-0.489,0.418-0.489c1.349-0.439,2.864-0.246,3.759-1.48c-1.782,0.023-2.454-0.622-2.145-0.904
		c0.601-0.561,3.626-0.506,4.669-2.003c-0.217,0-1.671-0.028-2.235-0.481c-0.201-0.152-0.052-0.356-0.052-0.356
		c0.421-0.676,1.833-1.154,1.833-1.154c2.606-0.947,2.467-1.904,2.467-1.904c-0.916,0-2.941-0.184-2.731-1.111
		c0.244-1.073,1.952-1.63,2.994-1.761c1.427,3.412,3.378,6.546,5.583,9.539c0.158,0.224,0.525,0.583,0.142,1.115l-4.95,6.281
		c-0.244,0.294-0.283,0.82,0.13,0.82l7.049-0.271c0.494-0.068,0.911-0.275,1.037-0.679c0.135-2.054-0.493-4.306,0.392-6.15
		c0.393-0.815,1.65-1.963,1.977-2.86c-0.325,0.145-2.616,0.222-1.214-0.664c1.725-1.098,1.951-2.319,1.951-2.319
		c-0.686,0.13-1.608,0.127-2.114-0.374c-0.201-0.193,0.091-0.317,0.091-0.317c0.848-0.427,2.317-1.363,2.183-2.636
		c-0.877,0.356-1.702,0.263-2.189,0.125c-0.819-0.227-1.361-0.691-1.073-1.335c0.581-1.281,1.459-2.438,2.364-3.395
		c0.367-0.357,0.797-0.54,0.91-0.108c0.304,1.127,0.409,3.188,1.812,5.011c1.69,1.091,3.259,2.583,4.688,4.512
		c0.654,1.222,1.703,2.172,1.443,3.669l-4.307,6.837c0,0-0.239,0.368-0.066,0.606c0.112,0.186,0.334,0.276,0.545,0.226l6.693-1.652
		c0,0,0.219-0.039,0.322-0.172c0.07-0.081,0.07-0.229,0.07-0.229l-0.26-4.846c0-1.061,1.452-1.276,2.469-2.682
		c-0.6,0.037-1.17-0.368-1.265-0.812c-0.154-0.725,1.596-0.6,2.137-2.643c-1.011,0.379-2.124,0.623-2.313,0.162
		c-0.104-0.246,0.143-0.399,0.143-0.399c1.269-0.827,1.964-1.544,2.088-2.854c-0.494,0.015-3.77,0.919-5.004-0.957
		c-0.404-0.619-0.336-2.99-0.328-3.991c0,0-0.012-0.36,0.263-0.277c3.781,2.503,9.631,4.13,14.714,5.098
		c0,0,0.683,0.107,0.922,0.542c2.083,3.819,4.163,7.304,6.415,11.061c0.52,0.88,0.887,1.683,1.07,2.441
		c-1.18,2.19-3.254,4.257-4.928,6.333c-0.646,0.807-0.221,1.024,0.342,0.934l6.878-1.113c0.28-0.047,0.494-0.273,0.522-0.557
		c0.131-1.624-0.633-4.79,2.729-6.681c-0.522-0.686-1.192-1.076-2.063-1.817c-1.257-1.069-1.767-2.342-2.259-3.452
		c0,0-0.689-1.583,0.5-2.826c1.08-1.134,1.555-1.958,1.555-1.958c-1.3,0.292-2.195-0.167-2.161-1.14
		c0.028-0.973,1.667-0.973,2.083-2.54c-1.69,0.26-3.101-0.286-3.26-0.874c-0.195-0.699,2.857-1.519,2.591-3.568
		c-0.65,0.408-2.591,0.583-3.238,0.153c-0.862-0.572,0.286-2.022,0.128-2.04c-1.88-0.235-3.162-0.75-4.568-2.192
		c-0.823-0.844-1.479-2.257-1.952-3.412c-1.827-4.778-3.256-9.556-6.521-13.652c-0.779-0.956-1.033-1.098-2.084-1.918
		c-0.337-0.269-0.203-0.859,0.497-1.454c0.162-0.142,0.315-0.289,0.462-0.444c1.664-1.748,2.688-4.169,2.688-6.838
		c0-5.357-4.145-9.703-9.271-9.703c-3.224,0-6.054,1.72-7.715,4.328c-0.085,0.125-0.173,0.264-0.26,0.405
		c-0.711,1.089-1.308,2.274-1.789,3.471C519.944,83.219,520.599,85.85,517.211,88.441z M519.653,89.94
		c0.098-0.107,0.17-0.169,0.17-0.169c2.993-3.273,4.688-8.742,5.986-11.338c1.566-2.993,3.133-4.368,5.48-4.504
		c0.116-0.003,0.389-0.017,0.518-0.009c2.883,0,5.232,2.473,5.232,5.502c0,3.021-2.347,5.479-5.232,5.479
		c-1.373,0-2.621-0.557-3.558-1.462c-1.136,1.782-2.594,3.706-4.264,4.826c-1.307,0.962-2.873,1.912-4.297,1.912
		C519.529,90.172,519.566,90.037,519.653,89.94z"/>
	<path fill="#BCBCBC" d="M654.549,360.86l15.229-7.093c1.439-0.83,1.643-3.183,0.433-5.289c-1.223-2.109-3.373-3.109-4.797-2.281
		l-13.761,9.648c-0.784,0.65-0.844,2.107-0.097,3.401l-0.005-0.006C652.302,360.536,653.595,361.213,654.549,360.86z"/>
	<polygon fill="#BCBCBC" points="642.496,374.927 642.499,374.927 642.501,374.927 	"/>
	<path fill="#BCBCBC" d="M642.501,396.458c2.438,0,4.377-1.356,4.377-3.015l-1.479-16.736c-0.169-1.004-1.4-1.778-2.899-1.779
		c-1.494,0.001-2.728,0.774-2.889,1.779l-1.479,16.736C638.131,395.101,640.065,396.458,642.501,396.458z"/>
	<path fill="#BCBCBC" d="M614.806,348.478c-1.224,2.106-1.005,4.459,0.419,5.289l15.235,7.093c0.952,0.351,2.249-0.328,2.997-1.62
		l-0.006,0.006c0.75-1.294,0.694-2.75-0.102-3.401l-13.755-9.648C618.167,345.369,616.021,346.365,614.806,348.478z"/>
	<path fill="#BCBCBC" d="M651.651,373.101l13.761,9.644c1.423,0.826,3.574-0.177,4.796-2.278c1.211-2.113,1.009-4.466-0.432-5.295
		l-15.229-7.088c-0.953-0.359-2.247,0.313-2.998,1.614h0.005C650.808,370.991,650.867,372.451,651.651,373.101z"/>
	<path fill="#BCBCBC" d="M630.461,368.083l-15.235,7.088c-1.424,0.83-1.643,3.183-0.419,5.295c1.215,2.104,3.361,3.104,4.79,2.278
		l13.755-9.641c0.796-0.653,0.852-2.113,0.102-3.407h0.007C632.71,368.402,631.413,367.724,630.461,368.083z"/>
	<polygon fill="#BCBCBC" points="642.501,354.019 642.499,354.019 642.496,354.019 	"/>
	<path fill="#BCBCBC" d="M645.398,352.232l1.479-16.734c0-1.655-1.938-3.011-4.376-3.011c-2.437,0-4.371,1.356-4.371,3.011
		l1.479,16.734c0.161,1.008,1.395,1.786,2.889,1.787C643.998,354.018,645.229,353.24,645.398,352.232z"/>
	<path fill="#BCBCBC" d="M539.012,375.241c0,4.348,3.249,8.418,8.895,8.418c3.47,0,6.374-1.384,8.113-3.603h0.171
		c0,0,1.154,4.818,7.503,2.975c-0.33-2.005-0.439-4.146-0.439-6.717v-9.923h-0.003c0-6.314-2.7-11.879-11.822-11.879
		c-4.686,0-8.398,1.317-10.427,2.488l1.483,5.081c1.854-1.17,4.809-2.14,7.604-2.14c4.627-0.011,5.387,2.622,5.387,4.306v0.4
		C545.388,364.631,539.012,368.128,539.012,375.241z M555.72,369.596v3.474c0,0.516-0.044,1.045-0.186,1.508
		c-0.583,1.938-2.586,3.568-5.088,3.568c-2.09,0-3.743-1.185-3.743-3.689C546.704,370.624,550.922,369.564,555.72,369.596z"/>
	<path fill="#BCBCBC" d="M452.299,375.241c0,4.348,3.247,8.418,8.887,8.418c3.475,0,6.377-1.384,8.118-3.603h0.169
		c0,0,1.154,4.818,7.509,2.975c-0.335-2.005-0.442-4.146-0.442-6.717v-9.923c0-6.314-2.701-11.879-11.822-11.879
		c-4.683,0-8.403,1.317-10.432,2.488l1.484,5.081c1.853-1.17,4.805-2.14,7.606-2.14c4.629-0.011,5.389,2.622,5.389,4.306v0.4
		C458.672,364.631,452.299,368.128,452.299,375.241z M469.01,369.596l-0.002,3.474c0,0.516-0.046,1.045-0.19,1.508
		c-0.578,1.938-2.584,3.568-5.082,3.568c-2.09,0-3.744-1.185-3.744-3.689C459.99,370.624,464.204,369.564,469.01,369.596z"/>
	<path fill="#BCBCBC" d="M494.384,355.146v27.886h7.579v-16.355c0-0.765,0.092-1.577,0.354-2.281
		c0.628-1.647,2.161-3.575,4.605-3.575c3.059,0,4.486,2.586,4.486,6.315v15.896h7.573v-16.557c0-0.728,0.099-1.614,0.316-2.258
		c0.622-1.874,2.274-3.398,4.548-3.398c3.102,0,4.587,2.541,4.587,6.928v15.279h7.58v-16.423c0-8.662-4.404-12.091-9.369-12.091
		c-2.196,0-3.933,0.549-5.503,1.513c-1.316,0.813-2.497,1.961-3.532,3.477h-0.107c-1.202-3.006-4.02-4.99-7.688-4.99
		c-4.718,0-6.835,2.393-8.123,4.421h-0.113v-3.788L494.384,355.146L494.384,355.146z"/>
	<polygon fill="#BCBCBC" points="489.104,375.154 489.104,345.906 481.563,345.906 481.563,383.032 489.104,383.032 	"/>
	<path fill="#BCBCBC" d="M596.113,383.665c2.229,0,4.42-0.429,5.454-0.813l-0.098-5.889c-0.769,0.185-1.653,0.338-2.863,0.338
		c-2.568,0-3.43-1.644-3.43-5.034v-10.478h6.566v-7.104h-6.566v-8.78h-7.436v27.388c0,3.779,0.711,6.421,2.229,8.041
		C591.3,382.746,593.491,383.665,596.113,383.665z"/>
	<path fill="#BCBCBC" d="M423.544,383.032l4.115-16.748c1.041-4.16,1.739-7.126,2.414-11.357h0.116
		c0.473,4.275,1.142,7.211,2.002,11.375c0,0,1.673,7.597,2.532,11.592c0.859,3.992,3.253,6.505,9.5,5.138l9.809-37.125h-7.914
		l-3.352,16.053c-0.898,4.673-1.717,8.32-2.348,12.595h-0.112c-0.571-4.233-1.299-7.74-2.212-12.293l-3.484-16.355h-8.251
		l-3.729,15.946c-1.059,4.846-2.046,8.758-2.674,12.887h-0.116c-0.645-3.889-1.503-8.808-2.429-13.498
		c0,0-2.214-11.402-2.991-15.335h-8.343c0,0,6.593,27.012,7.646,31.396C414.953,382.418,417.166,384.304,423.544,383.032z"/>
	<path fill="#BCBCBC" d="M575.102,360.407v-5.261h-6.822v27.886h7.781v-14.28c0-0.77,0.044-1.443,0.168-2.059
		c0.57-2.995,2.859-4.903,6.146-4.903c0.9,0,1.546,0.096,2.246,0.196v-7.301c-0.589-0.117-0.986-0.171-1.716-0.171
		c-2.905,0-6.208,1.875-7.592,5.892L575.102,360.407L575.102,360.407z"/>
	<path fill="#BCBCBC" d="M673.581,381.951h0.137c0.134,0,0.191,0.063,0.221,0.199c0.025,0.115,0.051,0.232,0.093,0.28h0.453
		c-0.023-0.047-0.051-0.126-0.09-0.316c-0.044-0.191-0.123-0.297-0.275-0.336v-0.017c0.185-0.05,0.31-0.163,0.31-0.297
		c0-0.134-0.062-0.232-0.146-0.291c-0.095-0.062-0.229-0.106-0.525-0.106c-0.271,0-0.482,0.034-0.577,0.051v1.311h0.402
		L673.581,381.951L673.581,381.951z M673.599,381.368c0.033,0,0.083-0.011,0.135-0.011c0.139,0,0.229,0.059,0.229,0.163
		c0,0.092-0.097,0.156-0.246,0.156h-0.118V381.368L673.599,381.368z"/>
	<path fill="#BCBCBC" d="M673.764,383.178c0.816,0,1.459-0.633,1.459-1.426c0-0.784-0.643-1.42-1.448-1.42h-0.002h-0.009
		c-0.815,0-1.465,0.636-1.465,1.42C672.3,382.545,672.945,383.178,673.764,383.178z M673.751,380.69h0.011
		c0.599,0,1.036,0.471,1.036,1.062c0,0.597-0.438,1.081-1.031,1.073c-0.594,0-1.03-0.476-1.03-1.064
		C672.735,381.161,673.17,380.69,673.751,380.69z"/>
	<path fill="#BCBCBC" d="M541.442,193.515c-3.491,0-8.865-3.949-14.557-3.83c-7.491,0.105-14.403,4.349-18.27,11.058
		c-7.764,13.474-1.976,33.484,5.613,44.436c3.711,5.349,8.121,11.387,13.931,11.163c5.602-0.22,7.705-3.613,14.457-3.613
		c6.744,0,8.649,3.613,14.558,3.503c6.013-0.11,9.819-5.472,13.505-10.842c4.239-6.229,5.99-12.237,6.096-12.563
		c-0.131-0.048-11.712-4.485-11.84-17.819c-0.105-11.172,9.121-16.538,9.535-16.789c-5.195-7.589-13.261-8.632-16.14-8.751
		C551.47,188.765,544.934,193.515,541.442,193.515z"/>
	<path fill="#BCBCBC" d="M638.331,255.919h6.348v-19.201h0.142c2.121,3.495,6.206,5.542,10.882,5.542
		c8.319,0,16.059-6.273,16.059-18.976c0-10.741-6.419-17.969-14.966-17.969c-5.769,0-9.932,2.558-12.556,6.862h-0.141l-0.3-6.066
		h-5.767c0.158,3.354,0.299,7.021,0.299,11.538V255.919L638.331,255.919z M644.678,221.026c0-0.872,0.217-1.835,0.439-2.623
		c1.261-4.825,5.346-7.963,9.721-7.963c6.787,0,10.517,6.048,10.517,13.131c0,8.113-3.948,13.654-10.736,13.654
		c-4.612,0-8.479-3.082-9.647-7.527c-0.158-0.81-0.3-1.672-0.3-2.624L644.678,221.026z"/>
	<path fill="#BCBCBC" d="M553.835,182.211c3.085-3.737,5.157-8.914,4.596-14.095c-4.438,0.184-9.813,2.962-12.995,6.7
		c-2.854,3.297-5.354,8.574-4.67,13.641C545.69,188.84,550.758,185.939,553.835,182.211z"/>
	<path fill="#BCBCBC" d="M603.856,225.978h17.444l5.26,15.481h6.787l-16.784-49.212h-7.662l-16.72,49.212h6.568L603.856,225.978z
		 M610.01,206.764c0.945-3.001,1.743-5.991,2.479-8.909h0.137c0.734,2.857,1.462,5.771,2.554,8.984l4.814,14.165l-14.795-0.009
		L610.01,206.764z"/>
	<path fill="#BCBCBC" d="M749.073,242.199c5.616,0,9.49-1.175,11.753-2.196l-1.102-4.6c-2.402,1.021-5.186,1.822-9.78,1.822
		c-6.413,0-11.974-3.587-12.113-12.268h24.813c0.083-0.66,0.223-1.672,0.223-2.988c0-6.506-3.063-16.652-14.604-16.652
		c-10.292,0-16.569,8.399-16.569,19.064S738.195,242.199,749.073,242.199z M747.765,209.916c7.225,0,8.982,6.356,8.905,10.441
		h-18.762C738.421,215.907,741.26,209.916,747.765,209.916z"/>
	<path fill="#BCBCBC" d="M678.396,255.919h6.361v-19.201h0.137c2.117,3.495,6.207,5.542,10.872,5.542
		c8.327,0,16.066-6.273,16.066-18.976c0-10.741-6.418-17.969-14.967-17.969c-5.766,0-9.927,2.558-12.555,6.862h-0.141l-0.301-6.066
		h-5.766c0.158,3.354,0.29,7.021,0.29,11.538v38.27H678.396z M684.766,221.026c0-0.872,0.217-1.835,0.437-2.623
		c1.26-4.825,5.345-7.963,9.72-7.963c6.788,0,10.512,6.048,10.512,13.131c0,8.113-3.943,13.654-10.74,13.654
		c-4.604,0-8.468-3.082-9.64-7.527c-0.158-0.81-0.295-1.672-0.295-2.624L684.766,221.026z"/>
	<rect x="718.484" y="189.619" fill="#BCBCBC" width="6.431" height="51.832"/>
	<path fill="#BCBCBC" d="M705.213,526.25v-31.615h10.741c0.64,0,1.075-0.436,1.075-1.074v-4.359c0-0.643-0.437-1.082-1.075-1.082
		h-28.588c-0.64,0-1.082,0.439-1.082,1.082v4.359c0,0.639,0.442,1.074,1.082,1.074h10.739v31.621c0,0.637,0.439,1.076,1.078,1.076
		h4.952C704.773,527.333,705.213,526.892,705.213,526.25z"/>
	<path fill="#BCBCBC" d="M658.927,497.482c0,2.4,1.024,5.145,3.285,7.742c-4.61,2.553-7.654,5.592-7.654,11.279
		c0,7.398,5.64,11.711,12.802,11.711c5.785,0,9.27-2.498,11.768-5.83l3.729,4.115c0.538,0.637,0.979,0.832,1.813,0.832h6.229
		c0.784,0,1.177-0.686,0.54-1.371l-8.289-8.971l5.492-9.41c0.49-0.832,0.049-1.371-0.737-1.371h-4.755
		c-0.784,0-1.225,0.244-1.616,0.883l-3.091,5.391l-5.493-5.932c3.729-2.063,7.259-4.807,7.259-9.705
		c0-5.734-4.021-9.609-10.594-9.609C663.19,487.236,658.927,491.402,658.927,497.482z M674.469,517.919
		c-1.717,2.604-3.823,4.121-6.961,4.121c-3.241,0-5.981-2.4-5.984-5.787c0-3.43,1.963-5.145,5.005-6.865L674.469,517.919z
		 M673.535,496.994c0,2.154-1.471,3.379-4.95,5.389c-2.013-2.156-2.893-3.627-2.893-5.293c0-2.156,1.473-3.771,4.021-3.771
		C672.264,493.316,673.535,494.982,673.535,496.994z"/>
	<path fill="#BCBCBC" d="M655.396,493.56v-4.359c0-0.643-0.439-1.082-1.079-1.082H625.73c-0.637,0-1.078,0.439-1.078,1.082v4.359
		c0,0.639,0.441,1.074,1.078,1.074h10.735v31.615c0,0.643,0.443,1.082,1.083,1.082h4.952c0.639,0,1.08-0.439,1.08-1.076v-31.621
		h10.735C654.956,494.634,655.396,494.199,655.396,493.56z"/>
	<path fill="#BCBCBC" d="M622.06,526.304c0.247,0.689,0.688,1.027,1.425,1.027h5.097c0.688,0,1.083-0.635,0.834-1.277l-13.29-36.957
		c-0.241-0.688-0.734-0.979-1.47-0.979h-6.57c-0.733,0-1.176,0.291-1.422,0.979l-13.288,36.957
		c-0.245,0.643,0.199,1.277,0.836,1.277h4.804c0.735,0,1.177-0.338,1.423-1.027l2.895-8.33h15.839L622.06,526.304z M605.586,511.548
		l5.688-16.174l5.641,16.174H605.586z"/>
	<path fill="#BCBCBC" d="M584.313,494.042c0.27,8.055-22.172,13.24-33.497,13.24c-12.265,0-22.498-4.885-22.498-11.061
		c0-0.594,0.122-1.186,0.277-1.803c0.015-0.055-0.035-0.064-0.061-0.016c-0.907,1.803-1.915,4.846-2.214,6.418
		c-0.134,0.678-0.08,1,0.16,1.506c1.901,4.037,11.519,10.49,33.953,10.49c13.687,0,24.315-3.361,26.04-9.5
		c0.314-1.129,0.333-2.318-0.074-3.926c-0.456-1.799-1.31-3.896-2.029-5.359C584.349,493.982,584.305,493.988,584.313,494.042z"/>
	<path fill="#BCBCBC" d="M550.313,520.121c-15.861,0-23.342-7.389-24.699-12.434c-0.017-0.072-0.064-0.059-0.064,0.006
		c0,1.699,0.171,3.891,0.463,5.344c0.139,0.709,0.715,1.82,1.56,2.703c3.842,4.008,13.417,9.619,30.003,9.619
		c22.601,0,27.766-7.531,28.82-10.008c0.753-1.768,1.145-4.969,1.145-7.658c0-0.646-0.015-1.166-0.038-1.68
		c0-0.078-0.05-0.084-0.065-0.006C586.303,512.066,566.997,520.121,550.313,520.121z"/>
	<path fill="#BCBCBC" d="M538.282,483.65c0,2.609,6.11,5.418,16.945,5.418c10.721,0,19.038-3.076,19.038-6.035
		c0-0.707-0.616-1.205-1.869-1.951c-4.643-2.787-10.037-4.367-15.851-4.367c-5.856,0-11.415,1.639-16.076,4.496
		C539.072,482.074,538.282,482.761,538.282,483.65z"/>
	<path fill="#BCBCBC" d="M536.499,484.07c-1.603,1.357-3.072,2.883-4.36,4.527c-0.617,0.785-1,1.471-1,1.887
		c0,6.023,15.106,10.389,29.23,10.389c15.053,0,21.77-4.91,21.77-9.227c0-1.545-0.604-2.445-2.138-4.189
		c-0.998-1.137-1.938-2.063-2.938-2.975c-0.049-0.039-0.082-0.006-0.049,0.045c0.13,0.199,0.195,0.416,0.195,0.709
		c0,3.445-10.534,9.537-27.309,9.537c-12.323,0-14.632-4.572-14.632-7.479c0-1.045,0.401-2.104,1.279-3.186
		C536.596,484.044,536.554,484.021,536.499,484.07z"/>
	<path fill="#BCBCBC" d="M556.544,538.675c7.834,0,14.973-2.904,20.418-7.678c0.066-0.059,0.034-0.096-0.031-0.059
		c-2.445,1.633-9.412,5.197-20.384,5.197c-9.539,0-15.565-2.125-18.97-4.031c-0.063-0.029-0.089,0.02-0.039,0.059
		C542.79,536.232,549.387,538.675,556.544,538.675z"/>
	<path fill="#BCBCBC" d="M579.67,527.558c1.372-1.121,2.68-2.615,3.85-4.627c0.673-1.15,1.334-2.521,1.868-3.869
		c0.024-0.064-0.015-0.094-0.066-0.025c-4.662,6.861-18.161,11.139-32.097,11.139c-9.854,0-20.454-3.145-24.604-9.162
		c-0.041-0.059-0.084-0.033-0.06,0.029c3.866,8.221,15.597,12.711,30.087,12.711C566.276,533.751,574.656,531.667,579.67,527.558z"
		/>
	<path fill="#BCBCBC" d="M558.499,685.226h17.255v-7.514h-44.959v7.514h15.49v22.785c0,5.389,4.527,9.057,12.215,9.682
		L558.499,685.226L558.499,685.226z"/>
	<path fill="#BCBCBC" d="M678.658,687.316c-0.945-0.648-1.961-0.816-3.276-0.85c-1.338,0.031-2.383,0.201-3.324,0.85
		c-2.928,2.105-17.133,16.367-19.627,28.852l-0.28,1.23h10.047l0.182-0.883c0.407-1.771,1.063-3.688,1.937-5.662h22.083
		c0.868,1.977,1.544,3.891,1.917,5.662l0.213,0.883h10.063l-0.271-1.23C695.79,703.683,681.603,689.421,678.658,687.316z
		 M667.864,704.447c2.174-3.305,4.696-6.359,7.518-9.121c2.816,2.773,5.351,5.908,7.477,9.121H667.864z"/>
	<path fill="#BCBCBC" d="M635.079,717.638c2.606,0,5.682-0.697,5.682-2.75v-21.137h12.854v-6.811h-37.07v6.811h12.868v21.137
		C629.411,716.906,632.486,717.638,635.079,717.638z"/>
	<path fill="#BCBCBC" d="M571.026,702.181c0,10.07,7.804,15.9,21.379,15.9c13.589,0,21.354-5.83,21.354-15.9
		c0-10.172-7.765-16.023-21.354-16.023C578.83,686.158,571.026,692.009,571.026,702.181z M592.405,693.58
		c7.422,0,11.211,2.867,11.211,8.604c0,5.668-3.789,8.514-11.211,8.514c-7.424,0-11.187-2.846-11.187-8.514
		C581.219,696.447,584.981,693.58,592.405,693.58z"/>
	<path fill="#BCBCBC" d="M708.443,686.503c-2.517,0-5.458,0.654-5.458,2.602v14.451c0,5.525,1.766,9.393,5.296,11.498
		c4.356,2.523,12.266,2.434,19.871,2.33h9.484l0.024-1.367v-5.746h-15.556c-3.146,0-5.312-0.535-6.495-1.502
		c-1.536-1.305-1.704-3.236-1.746-4.707V689.14C713.865,687.16,710.947,686.503,708.443,686.503z"/>
	<path fill="#BCBCBC" d="M505.205,673.064c-1.617-4.568-4.498-8.443-8.948-11.068c-7.477-4.41-17.953-3.936-22.851,0.082
		c7.114-2.232,11.979-0.605,15.151,2.75c0.145,0.178,0.282,0.361,0.417,0.549c-7.816-1.805-17.946-2.037-28.063,3.072
		c-5.27,2.66-10.712,8.197-13.647,15.715c2.167-3.566,5.91-5.986,13.282-7.033c7.356-0.916,17.497,0.225,27.416,3.725
		c1.271,0.469,2.478,0.963,3.65,1.473c-0.707,5.406-3.284,15.43-7.809,24.359c-0.771-0.016-1.539-0.047-2.3-0.104
		c-6.594-0.486-18.792-3.896-24.945-7.668c6.499,6.232,14.113,10.971,22.729,13.529c0.333,0.1,0.669,0.184,1.003,0.275
		c-0.632,0.941-1.29,1.848-1.978,2.713c-9.038-2.473-18.863-7.322-26.587-16.072c-0.067-0.084-0.138-0.168-0.211-0.24
		c-0.001-0.002-0.002-0.002-0.003-0.004c3.884-9.105,25.1-15.025,31.354-14.959c-14.057-4.523-27.84-2.359-33.386,2.443
		c-0.361,0.33-0.813,0.744-1.32,1.398c-2.985,3.859-3.345,10.131-1.31,16.764c2.737,8.867,11.144,15.557,20.88,18.84
		c-5.126,1.434-10.723-0.227-13.609-4.506c3.18,9.521,16.948,14.637,30.787,6.57c0.536-0.055,1.069-0.119,1.599-0.199
		c10.069-1.52,16.384-7.188,19.012-9.506c-4.371,1.242-7.869,1.658-11.27,1.678c0.813-0.988,1.603-2.037,2.361-3.135
		c3.91-0.264,7.383-1.078,9.993-2.441c3.951-2.662,5.226-7.154,4.274-11.754c0.95,4.6-0.322,9.092-4.27,11.754
		c0.217-0.105,0.433-0.227,0.639-0.354c0.029-0.018,0.062-0.035,0.089-0.053c0.06-0.035,0.126-0.072,0.196-0.119
		c0.084-0.049,0.163-0.098,0.24-0.15c0.006-0.012,0.03-0.018,0.043-0.031c0.41-0.27,0.822-0.574,1.208-0.924
		c0.17-0.162,0.354-0.33,0.524-0.518C516.561,702.8,518.621,684.386,505.205,673.064z M448.315,693.931
		c0.322,0.926,0.79,1.91,1.445,2.967c0.047,0.072,0.117,0.168,0.177,0.254c-0.06-0.086-0.13-0.182-0.178-0.254
		C449.105,695.841,448.637,694.857,448.315,693.931z M502.762,702.988c1.464-3.641,2.594-7.445,3.29-11.238
		c1.958,2.037,3.319,4.045,4.128,6.148C508.453,699.869,505.858,701.593,502.762,702.988z"/>
	<path fill="#BCBCBC" d="M335.68,769.193c0.939-1.158,1.649-1.914,1.649-2.598c0-0.279-0.195-0.525-0.654-0.525
		c-2.3,0-17.219,6.584-17.219,30.229c0,11.301,3.805,20.719,6.055,20.719c0.984,0,1.36-0.988,1.36-2.891
		c0-4.182-1.469-7.891-1.469-16.82C325.403,780.066,332.505,773.107,335.68,769.193z"/>
	<path fill="#BCBCBC" d="M299.741,766.07c-0.464,0-0.662,0.246-0.662,0.525c0,0.684,0.714,1.439,1.652,2.598
		c3.18,3.914,10.281,10.873,10.281,28.115c0,8.93-1.477,12.637-1.477,16.818c0,1.9,0.374,2.891,1.365,2.891
		c2.245,0,6.05-9.418,6.05-20.719C316.952,772.654,302.038,766.07,299.741,766.07z"/>
	<path fill="#BCBCBC" d="M323.656,770.8c0-3.094-2.437-5.588-5.452-5.588c-3.009,0-5.442,2.494-5.442,5.588h0.001
		c0,3.086,2.434,5.592,5.439,5.592C321.22,776.392,323.656,773.886,323.656,770.8z"/>
	<path fill="#BCBCBC" d="M289.917,761.966c2.984,1.35,5.154,0.367,6.67-0.945c-0.016-2.008-0.714-4.283-3.693-5.635
		c-2.851-1.287-6.188-1.18-8.303,0.209C284.938,758.099,287.07,760.681,289.917,761.966z"/>
	<path fill="#BCBCBC" d="M271.638,805.912c-0.314,0.195-0.448,0.238-0.448,0.369c0,0.068,0.045,0.125,0.135,0.125
		c0.083,0,0.235-0.066,0.398-0.123c8.045-2.889,19.927-6.434,36.603-7.51c0.02-0.152,0.117-0.896,0.117-1.467
		c0-1.211-0.14-2.467-0.179-2.676C291.178,796.197,279.386,801.154,271.638,805.912z"/>
	<path fill="#BCBCBC" d="M291.157,751.869c2.104,1.777,4.084,1.482,5.622,0.775c0.451-1.633,0.413-3.639-1.688-5.42
		c-2.012-1.707-4.744-2.389-6.773-1.75C288.02,747.582,289.148,750.16,291.157,751.869z"/>
	<path fill="#BCBCBC" d="M364.773,805.912c-7.744-4.758-19.536-9.715-36.623-11.279c-0.114,0.889-0.177,1.777-0.18,2.676
		c0,0.57,0.099,1.316,0.117,1.469c16.673,1.076,28.55,4.619,36.604,7.506c0.165,0.057,0.32,0.125,0.394,0.125
		c0.096,0,0.142-0.057,0.142-0.125C365.227,806.156,365.086,806.111,364.773,805.912z"/>
	<path fill="#BCBCBC" d="M319.923,752.376c-1.02,3.295,0.294,5.432,1.859,6.842c2.097-0.279,4.384-1.307,5.401-4.598
		c0.973-3.145,0.423-6.617-1.306-8.645C323.312,746.671,320.888,749.238,319.923,752.376z"/>
	<path fill="#BCBCBC" d="M334.09,761.824c2.261-1.91,3.528-4.814,3.196-7.188c-2.289-0.721-5.359,0.057-7.619,1.965
		c-2.366,2.012-2.402,4.268-1.9,6.102C329.49,763.496,331.729,763.83,334.09,761.824z"/>
	<path fill="#BCBCBC" d="M345.259,751.869c2.007-1.709,3.135-4.283,2.84-6.391c-2.03-0.643-4.762,0.045-6.774,1.746
		c-2.104,1.787-2.141,3.787-1.688,5.42C341.171,753.357,343.154,753.646,345.259,751.869z"/>
	<path fill="#BCBCBC" d="M297.333,777.564c2.366-0.461,3.246-1.973,3.601-3.408c-0.863-1.197-2.252-2.262-4.609-1.807
		c-2.253,0.436-4.22,1.92-4.888,3.656C292.71,777.355,295.083,778,297.333,777.564z"/>
	<path fill="#BCBCBC" d="M335.482,774.16c0.35,1.434,1.233,2.943,3.598,3.404c2.255,0.438,4.63-0.205,5.899-1.559
		c-0.671-1.73-2.633-3.215-4.89-3.652C337.729,771.894,336.348,772.964,335.482,774.16z"/>
	<path fill="#BCBCBC" d="M343.521,755.386c-2.981,1.346-3.678,3.627-3.694,5.631c1.518,1.316,3.685,2.299,6.672,0.945
		c2.845-1.283,4.977-3.865,5.321-6.367C349.711,754.205,346.367,754.099,343.521,755.386z"/>
	<path fill="#BCBCBC" d="M327.052,742.175c1.745-0.234,3.652-1.092,4.502-3.834c0.808-2.621,0.354-5.52-1.097-7.205
		c-2.136,0.578-4.148,2.721-4.96,5.336C324.651,739.216,325.748,740.992,327.052,742.175z"/>
	<path fill="#BCBCBC" d="M350.842,767.275c-1.294-1.637-3.893-2.582-6.454-2.305c-2.686,0.295-3.821,1.9-4.353,3.473
		c0.854,1.424,2.307,2.75,4.995,2.461C347.589,770.623,349.924,769.148,350.842,767.275z"/>
	<path fill="#BCBCBC" d="M318.205,744.927c2.221-1.031,4.396-2.945,4.396-6.926c0-3.801-1.793-7.455-4.392-9.094
		c-2.603,1.639-4.396,5.293-4.396,9.094C313.813,741.982,315.995,743.896,318.205,744.927z"/>
	<path fill="#BCBCBC" d="M331.832,742.689c-1.913,2.953-1.223,5.42-0.076,7.242c2.133,0.307,4.666-0.063,6.577-3.016
		c1.827-2.813,2.256-6.377,1.125-8.842C336.742,738.039,333.661,739.884,331.832,742.689z"/>
	<path fill="#BCBCBC" d="M304.659,749.931c1.148-1.822,1.837-4.285-0.074-7.238c-1.829-2.809-4.91-4.652-7.626-4.615
		c-1.134,2.463-0.706,6.029,1.126,8.842C299.995,749.871,302.524,750.238,304.659,749.931z"/>
	<path fill="#BCBCBC" d="M296.381,768.443c-0.531-1.57-1.66-3.182-4.35-3.473c-2.563-0.279-5.164,0.666-6.459,2.303
		c0.917,1.875,3.253,3.348,5.815,3.627C294.073,771.191,295.523,769.867,296.381,768.443z"/>
	<path fill="#BCBCBC" d="M304.861,738.341c0.852,2.742,2.754,3.598,4.498,3.834c1.306-1.184,2.403-2.963,1.558-5.705
		c-0.81-2.613-2.822-4.756-4.967-5.334c-1.438,1.684-1.897,4.584-1.09,7.201L304.861,738.341z"/>
	<path fill="#BCBCBC" d="M314.63,759.218c1.566-1.41,2.88-3.547,1.862-6.838c-0.972-3.143-3.385-5.713-5.954-6.404
		c-1.73,2.027-2.275,5.506-1.305,8.645C310.246,757.914,312.539,758.939,314.63,759.218z"/>
	<path fill="#BCBCBC" d="M306.752,756.607c-2.263-1.91-5.335-2.688-7.624-1.971c-0.332,2.371,0.938,5.277,3.195,7.191v-0.004
		c2.367,2.008,4.599,1.674,6.322,0.879C309.151,760.869,309.114,758.613,306.752,756.607z"/>
	<path fill="#BCBCBC" d="M520.208,793.332c-0.006-0.104-0.006-0.201-0.006-0.299v-0.297c-0.008-0.223-0.085-0.445-0.222-0.625
		c-0.165-0.225-0.416-0.367-0.694-0.395c0.207-0.025,0.406-0.098,0.584-0.201c0.264-0.16,0.394-0.434,0.394-0.797
		c0-0.51-0.206-0.844-0.627-1.023c-0.233-0.096-0.604-0.146-1.105-0.146h-1.412v4.049h0.714v-1.596h0.562
		c0.376,0,0.644,0.047,0.793,0.133c0.253,0.148,0.384,0.459,0.384,0.926v0.322l0.015,0.125c0,0.021,0.009,0.033,0.01,0.051
		l0.011,0.039h0.665l-0.021-0.055C520.222,793.48,520.208,793.406,520.208,793.332z M519.154,791.414
		c-0.22,0.07-0.452,0.098-0.683,0.084h-0.645v-1.459h0.609c0.394,0,0.684,0.045,0.862,0.146c0.184,0.102,0.271,0.299,0.271,0.594
		C519.571,791.089,519.431,791.3,519.154,791.414z"/>
	<path fill="#BCBCBC" d="M508.175,766.587c-1.094-0.273-5.057-1.322-9.607-1.322c-11.842,0-16.925,7.934-16.925,16.514
		c0,7.891,3.958,14.08,11.57,14.08c5.559,0,8.046-3.598,8.984-5.512h0.185c0.07,0.908,0.319,4.004,0.402,4.857h6.269
		c-0.227-1.633-0.878-5.939-0.878-9.645V766.587L508.175,766.587z M501.188,780.716c0,6.701-2.622,9.49-6.408,9.49
		c-3.823,0-5.978-3.242-5.978-8.928c0-5.807,3.338-10.605,9.483-10.605c0.977-0.012,1.95,0.088,2.901,0.309L501.188,780.716
		L501.188,780.716z"/>
	<path fill="#BCBCBC" d="M518.606,787.906c-0.979-0.018-1.918,0.373-2.602,1.078c-0.715,0.719-1.08,1.584-1.08,2.6
		c-0.015,0.982,0.372,1.924,1.076,2.615c0.68,0.707,1.622,1.1,2.604,1.08c0.979,0.018,1.926-0.373,2.604-1.08
		c0.706-0.688,1.099-1.633,1.082-2.617c0-1.018-0.358-1.885-1.082-2.598C520.53,788.279,519.588,787.888,518.606,787.906z
		 M520.851,793.841c-0.617,0.627-1.367,0.941-2.244,0.941c-0.847,0.012-1.663-0.326-2.246-0.941
		c-0.612-0.613-0.919-1.373-0.919-2.258c-0.015-0.838,0.317-1.652,0.919-2.236v-0.002h0.001c0.584-0.609,1.398-0.949,2.245-0.938
		c0.846-0.01,1.658,0.33,2.244,0.938c0.609,0.615,0.92,1.369,0.92,2.246S521.461,793.228,520.851,793.841z"/>
	<path fill="#BCBCBC" d="M465.214,765.265c-5.478,0-7.822,3.613-8.553,4.764h-0.133l-0.293-4.102h-6.275
		c0.07,1.174,0.317,6.367,0.317,9.078v20.197h6.992v-17.648c0-3.561,1.954-6.525,5.623-6.525c3.558,0,5.624,2.809,5.624,6.525v17.65
		h6.979v-19.033C475.497,770.123,471.821,765.265,465.214,765.265z"/>
	<path fill="#BCBCBC" d="M366.056,775.056c0,11.314,7.703,20.574,20.825,20.574c3.847,0,6.745-0.607,8.624-1.313v-6.254
		c-1.901,0.891-4.942,1.475-7.886,1.475c-8.025,0-13.936-5.738-13.936-14.484c0-8.691,5.871-14.5,13.936-14.5
		c3.997,0,6.845,0.98,7.889,1.475v-6.252c-1.757-0.652-4.605-1.311-8.629-1.311C374.427,754.466,366.056,763.078,366.056,775.056z"
		/>
	<rect x="402.489" y="766.009" fill="#BCBCBC" width="6.982" height="29.193"/>
	<path fill="#BCBCBC" d="M405.976,754.142c-2.391,0-4.32,1.896-4.32,4.24h0.001c0,2.34,1.93,4.24,4.319,4.24
		c2.387,0,4.318-1.9,4.318-4.24C410.295,756.039,408.362,754.142,405.976,754.142z"/>
	<path fill="#BCBCBC" d="M415.844,781.779c0,7.891,3.972,14.08,11.57,14.08c5.016,0,7.427-3.031,8.212-4.156h0.128v2.176
		c0,5.975-3.676,8.291-8.239,8.291c-4.101,0-7.127-1.234-8.082-1.564v5.904c0.779,0.209,4.108,1.256,8.861,1.256
		c8.438,0,14.075-3.484,14.075-15.418v-25.758c-1.079-0.275-5.043-1.324-9.604-1.324
		C420.928,765.265,415.844,773.199,415.844,781.779z M435.386,780.716c0,6.701-2.619,9.49-6.407,9.49
		c-3.82,0-5.958-3.242-5.958-8.928c0-5.807,3.316-10.605,9.466-10.605c1.27,0,2.155,0.127,2.899,0.309V780.716L435.386,780.716z"/>
	<path fill="#BCBCBC" d="M400.727,453.404c1.472,0,2.462-0.293,2.953-0.535l-0.453-2.539c-0.67,0.307-1.249,0.473-2.102,0.473
		c-2.157,0-3.648-1.32-3.648-3.816c0-2.789,1.871-3.84,3.631-3.84c0.999,0,1.574,0.219,2.119,0.461l0.452-2.547
		c-0.487-0.26-1.246-0.533-2.681-0.533c-3.702,0-6.681,2.252-6.681,6.506C394.318,450.603,396.654,453.404,400.727,453.404z"/>
	<path fill="#BCBCBC" d="M407.708,447.654c0-0.775,0.505-1.611,1.474-1.611c1.035,0,1.433,0.818,1.433,1.998v4.982h2.764v-5.363
		c0-2.736-1.176-3.98-2.935-3.98c-1.099,0-2.159,0.502-2.7,1.301h-0.033v-4.406l-2.76,0.957v11.494h2.76v-5.371H407.708z"/>
	<polygon fill="#BCBCBC" points="430.212,453.023 433.263,443.972 430.216,443.972 428.558,450.373 428.503,450.373 
		426.846,443.972 423.802,443.972 426.852,453.023 	"/>
	<path fill="#BCBCBC" d="M423.608,448.433c0-2.691-1.313-4.848-4.234-4.848c-2.836,0-4.729,1.891-4.729,4.816
		c0,3.025,1.762,5.002,5.046,5.002c1.218,0,2.416-0.201,3.465-0.73l-0.416-2.146c-0.697,0.408-1.743,0.674-2.642,0.666
		c-1.492-0.016-2.458-0.633-2.562-1.799h6.006C423.571,449.181,423.608,448.722,423.608,448.433z M417.518,447.431
		c0.078-0.896,0.607-1.857,1.726-1.857c1.279,0,1.608,1.18,1.608,1.857H417.518z"/>
	<path fill="#BCBCBC" d="M449.537,448.496c0-2.969-1.786-4.91-4.685-4.91c-2.896,0-4.684,1.941-4.684,4.91
		c0,2.967,1.787,4.908,4.684,4.908C447.751,453.404,449.537,451.462,449.537,448.496z M443.032,448.496
		c0-1.473,0.504-2.754,1.82-2.754c1.318,0,1.825,1.281,1.825,2.754c0,1.477-0.506,2.754-1.825,2.754
		C443.536,451.25,443.032,449.97,443.032,448.496z"/>
	<path fill="#BCBCBC" d="M436.796,453.023v-4.244c0-0.236,0.018-0.441,0.054-0.627c0.18-0.889,0.823-1.662,1.885-1.762
		c0.354-0.031,0.855,0.029,1.107,0.074v-2.641c-0.264-0.053-0.497-0.084-0.923-0.063c-0.897,0.057-1.771,0.563-2.226,1.891h-0.07
		l-0.077-1.682h-2.602c0.057,0.775,0.1,1.645,0.1,2.977h0.001v6.076H436.796L436.796,453.023z"/>
	<path fill="#BCBCBC" d="M450.765,446.861v6.162h2.758v-5.225c0-0.256,0.028-0.516,0.093-0.703c0.176-0.514,0.651-1.053,1.415-1.053
		c0.998,0,1.399,0.793,1.399,1.959v5.021h2.755v-5.434c0-2.666-1.187-3.91-3.006-3.91c-1.484,0-2.438,0.971-2.799,1.561h-0.057
		l-0.061-1.268h-2.6C450.724,444.765,450.765,445.726,450.765,446.861z"/>
	<polygon fill="#BCBCBC" points="394.417,477.013 426.805,466.22 394.417,455.427 	"/>
	<polygon fill="#BCBCBC" points="426.805,487.81 459.184,477.017 459.184,455.433 426.805,466.22 394.426,477.017 	"/>
	<polygon fill="#BCBCBC" points="394.419,502.109 394.429,502.107 426.802,512.902 459.184,502.099 459.184,480.515 426.8,491.306 
		394.417,480.515 	"/>
	<path fill="#BCBCBC" d="M628.304,747.292c-5.786,0-11.482,1.25-15.485,2.896c-4.012-1.646-9.713-2.896-15.484-2.896
		c-25.461,0-48.439,24.078-48.439,57.092c0,36.006,29.42,63.854,63.925,63.854c34.492,0,63.921-27.848,63.921-63.854
		C676.739,771.371,653.756,747.292,628.304,747.292z M612.818,766.9c4.908,2.912,11.387,11.375,11.387,20.916
		c0,6.988-4.615,12.502-11.387,12.502c-6.763,0-11.388-5.514-11.388-12.502C601.431,778.275,607.914,769.812,612.818,766.9z
		 M612.818,852.513c-26.382-0.008-48.21-21.232-48.21-48.438c0-24.844,17.931-41.816,32.025-41.191
		c-6.68,6.656-10.726,16.35-10.726,25.715c0,16.139,12.8,27.449,26.909,27.449c14.096,0,26.909-11.311,26.909-27.449
		c0-9.365-4.046-19.059-10.724-25.715c14.09-0.625,32.022,16.35,32.022,41.191C661.027,831.281,639.199,852.513,612.818,852.513z"/>
	<polygon fill="#BCBCBC" points="885.167,798.082 885.167,773.509 829.508,773.509 829.508,798.082 842.139,798.082 
		842.139,786.152 848.944,786.152 848.944,824.828 839.712,824.828 839.712,837.453 874.956,837.453 874.956,824.828 
		865.731,824.828 865.731,786.152 872.532,786.152 872.532,798.082 	"/>
	<polygon fill="#BCBCBC" points="736.105,786.162 743.167,786.162 743.167,809.404 724.205,773.519 702.315,773.519 
		702.315,786.162 709.376,786.162 709.376,824.833 702.315,824.833 702.315,837.468 731.263,837.468 731.263,824.833 
		724.205,824.833 724.205,801.583 743.167,837.468 757.996,837.468 757.996,786.162 765.052,786.162 765.052,773.519 
		736.105,773.519 	"/>
	<polygon fill="#BCBCBC" points="769.528,798.082 782.165,798.082 782.165,786.152 788.967,786.152 788.967,824.828 
		779.733,824.828 779.733,837.453 814.985,837.453 814.985,824.828 805.754,824.828 805.754,786.152 812.56,786.152 812.56,798.082 
		825.193,798.082 825.193,773.509 769.528,773.509 	"/>
</g>
</svg>
