<?xml version="1.0" encoding="utf-8"?>
<!-- Generator: Adobe Illustrator 16.0.0, SVG Export Plug-In . SVG Version: 6.00 Build 0)  -->
<!DOCTYPE svg PUBLIC "-//W3C//DTD SVG 1.1//EN" "http://www.w3.org/Graphics/SVG/1.1/DTD/svg11.dtd">
<svg version="1.1" id="图层_1" xmlns="http://www.w3.org/2000/svg" xmlns:xlink="http://www.w3.org/1999/xlink" x="0px" y="0px"
	 width="103.129px" height="37.111px" viewBox="0 0 103.129 37.111" enable-background="new 0 0 103.129 37.111"
	 xml:space="preserve">
<g enable-background="new    ">
	<path fill="#333333" d="M8.79,22.554c0.823,2.532,2.452,4.436,5.016,5.209c-0.258,0.226-0.581,0.661-0.726,0.952
		c-2.387-0.839-3.951-2.564-4.887-4.952c-0.532,1.759-1.855,3.564-5.161,4.92c-0.129-0.227-0.468-0.629-0.726-0.839
		c3.807-1.436,4.807-3.468,5.048-5.29H2.758v-1.017h4.677v-0.354v-2.532H3.371v-1.017h9.322v1.017H8.516v2.548v0.339h4.919v1.017
		H8.79z M5.677,17.441c-0.274-0.773-0.952-1.968-1.613-2.822l0.855-0.451c0.693,0.838,1.387,1.968,1.677,2.741L5.677,17.441z
		 M12.161,14.473c-0.597,1.032-1.307,2.242-1.887,3l-0.823-0.387c0.564-0.807,1.274-2.129,1.646-3.064L12.161,14.473z"/>
	<path fill="#333333" d="M31.335,21.506h-6.451v5.564c0,0.822-0.226,1.161-0.807,1.339c-0.581,0.193-1.597,0.21-3.242,0.193
		c-0.081-0.307-0.29-0.79-0.468-1.112c1.355,0.048,2.581,0.032,2.936,0.016c0.339-0.016,0.468-0.113,0.468-0.436v-5.564h-6.709
		v-1.064h6.709v-4.209h-5.597v-1.064h12.032v1.064h-5.322v4.209h6.451V21.506z"/>
	<path fill="#333333" d="M36.268,25.877c0.338,0.161,0.693,0.436,1.29,0.758c1,0.549,2.403,0.646,4.129,0.646
		c1.871,0,4.371-0.113,6.016-0.307c-0.145,0.322-0.323,0.871-0.339,1.21c-1.29,0.08-4.097,0.177-5.709,0.177
		c-1.854,0-3.258-0.161-4.338-0.741c-0.661-0.371-1.161-0.807-1.516-0.807c-0.548,0-1.339,0.807-2.129,1.726l-0.758-1.032
		c0.791-0.758,1.613-1.371,2.323-1.613V21.07h-2.129v-1.016h3.161V25.877z M35.623,17.812c-0.452-0.726-1.436-1.79-2.307-2.532
		l0.839-0.564c0.854,0.693,1.887,1.742,2.354,2.452L35.623,17.812z M45.994,25.958c-0.855-0.855-2.129-1.952-3.564-3.113
		c-1.274,1.354-2.871,2.387-4.839,3.161c-0.113-0.242-0.435-0.71-0.645-0.936c1.919-0.677,3.468-1.597,4.677-2.871
		c-1.354-1.048-2.79-2.112-4.081-3l0.742-0.645c1.258,0.854,2.661,1.871,4,2.887c0.855-1.064,1.516-2.354,2-3.871h-7.242v-1.016
		h4.887c-0.226-0.613-0.726-1.597-1.194-2.322l1.016-0.323c0.468,0.71,1.016,1.693,1.226,2.307l-0.903,0.339h5.371v1.016H45.38
		c-0.532,1.774-1.29,3.259-2.274,4.517c1.468,1.129,2.806,2.209,3.709,3.08L45.994,25.958z"/>
	<path fill="#333333" d="M63.604,27.216v1.016h-14.29v-1.016h6.597V24.78h-5.516v-1.017h5.516v-1.935h-4.984v-7.178h11.257v7.178
		h-5.129v1.935h5.678v1.017h-5.678v2.436H63.604z M51.991,17.764h3.984v-2.146h-3.984V17.764z M51.991,20.861h3.984v-2.178h-3.984
		V20.861z M61.088,15.619H56.99v2.146h4.098V15.619z M61.088,18.683H56.99v2.178h4.098V18.683z"/>
</g>
<text transform="matrix(1 0 0 1 130.5244 27.4734)" fill="#333333" font-family="'NotoSansCJK-Thin-90ms-RKSJ-H'" font-size="16.1259">关于这里</text>
</svg>
