<?xml version="1.0" encoding="utf-8"?>
<!-- Generator: Adobe Illustrator 16.0.0, SVG Export Plug-In . SVG Version: 6.00 Build 0)  -->
<!DOCTYPE svg PUBLIC "-//W3C//DTD SVG 1.1//EN" "http://www.w3.org/Graphics/SVG/1.1/DTD/svg11.dtd">
<svg version="1.1" id="图层_1" xmlns="http://www.w3.org/2000/svg" xmlns:xlink="http://www.w3.org/1999/xlink" x="0px" y="0px"
	 width="103.129px" height="37.111px" viewBox="0 0 103.129 37.111" enable-background="new 0 0 103.129 37.111"
	 xml:space="preserve">
<g enable-background="new    ">
	<path fill="#333333" d="M-29.15,76.094c-0.5,1-1.436,2.048-3.145,2.741c-0.161-0.227-0.5-0.564-0.742-0.773
		c1.371-0.484,2.21-1.227,2.694-1.968h-3.049v-0.871h3.467c0.129-0.387,0.178-0.758,0.178-1.049v-0.307h-3.032v-0.854h3.032v-1.241
		h-3.371v-0.888h3.371v-1.308h1.081v1.308h3.016v0.888h-3.016v1.241h2.709v0.854h-2.709v0.322c0,0.29-0.048,0.646-0.145,1.032h3.29
		v0.871L-29.15,76.094L-29.15,76.094z M-20.376,82.159c0,0.58-0.145,0.87-0.629,1.032c-0.5,0.161-1.339,0.161-2.71,0.161
		c-0.064-0.29-0.226-0.661-0.371-0.92c1.064,0.017,2.016,0.017,2.274,0c0.274-0.017,0.339-0.064,0.339-0.29V79.82h-4.209v4.437
		h-1.098V79.82h-3.902v3.597h-1.081v-4.58h4.983v-1.274h1.097v1.273h5.306L-20.376,82.159L-20.376,82.159z M-19.247,70.659
		c-0.613,0.854-1.339,1.839-2.032,2.646c1.403,0.854,1.887,1.611,1.903,2.354c0,0.679-0.274,1.112-0.774,1.371
		c-0.274,0.146-0.645,0.241-0.951,0.273c-0.565,0.049-1.258,0.049-1.887,0c-0.032-0.273-0.177-0.661-0.355-0.919
		c0.726,0.081,1.323,0.081,1.807,0.049c0.258-0.018,0.5-0.064,0.693-0.13c0.291-0.129,0.419-0.37,0.419-0.709
		c-0.016-0.613-0.548-1.339-2.016-2.146c0.581-0.726,1.145-1.548,1.597-2.258h-2.936v6.968h-1.033v-7.902h4.661l0.178-0.049
		L-19.247,70.659z"/>
	<path fill="#333333" d="M-10.17,81.046c-2.532,0.581-5.242,1.21-7.145,1.646l-0.194-1.081l1.161-0.242V70.369h5.178v9.919
		l0.919-0.21L-10.17,81.046z M-15.379,71.352v2.5h3.194v-2.5H-15.379z M-12.185,74.82h-3.194v2.468h3.194V74.82z M-15.379,81.175
		c0.984-0.193,2.064-0.437,3.194-0.678v-2.259h-3.194V81.175z M-3.218,73.804c-0.177,6.79-0.339,9.063-0.871,9.772
		c-0.29,0.388-0.613,0.518-1.129,0.564c-0.484,0.049-1.355,0.017-2.209-0.032c-0.016-0.307-0.129-0.742-0.323-1.016
		c0.936,0.063,1.807,0.08,2.129,0.08c0.307,0,0.452-0.032,0.613-0.242c0.419-0.483,0.597-2.646,0.742-8.66h-2.645
		c-0.242,4.193-1.129,7.887-4.419,10.031c-0.161-0.258-0.516-0.629-0.806-0.79c3.145-1.919,3.951-5.339,4.177-9.241h-2.661v-1.017
		h2.709c0.048-1.21,0.048-2.419,0.048-3.679h1.048c0,1.26,0,2.469-0.048,3.679h3.645V73.804z"/>
</g>
<g>
	<path fill="#333333" d="M7.479,25.63v3.228H6.425v-3.033L2.24,26.538L1.98,25.402c0.324-0.049,0.665-0.081,1.038-0.13v-9.44H2.126
		v-1.103h6.066v1.103H7.479v8.726l1.265-0.194l0.081,1.038L7.479,25.63z M4.089,15.832v2.271h2.336v-2.271H4.089z M4.089,21.444
		h2.336v-2.319H4.089V21.444z M4.089,25.11c0.73-0.113,1.525-0.243,2.336-0.373v-2.271H4.089V25.11z M12.734,22.548
		c0.714,2.417,2.141,4.379,4.185,5.288c-0.275,0.243-0.616,0.681-0.794,1.005c-1.752-0.892-3.017-2.481-3.86-4.492
		c-0.536,1.589-1.622,3.243-3.682,4.654c-0.195-0.275-0.584-0.648-0.892-0.859c2.627-1.687,3.503-3.763,3.779-5.596H8.258v-1.104
		h3.325c0.033-0.356,0.033-0.681,0.033-1.005v-1.931H8.663v-1.119h4.006c0.616-0.843,1.346-2.141,1.752-3.065l1.2,0.34
		c-0.519,0.925-1.119,1.93-1.671,2.725h2.19v1.119h-3.325v1.946c0,0.324,0,0.633-0.032,0.989h3.958v1.104H12.734z M10.772,17.292
		c-0.276-0.698-0.941-1.752-1.574-2.514l0.957-0.47c0.649,0.729,1.346,1.751,1.638,2.449L10.772,17.292z"/>
	<path fill="#333333" d="M32.438,15.994c-0.681,1.606-1.768,2.952-3.049,4.072c1.07,0.729,2.352,1.313,3.73,1.67
		c-0.211,0.292-0.405,0.779-0.486,1.104c-1.509-0.486-2.936-1.2-4.12-2.108c-1.33,0.957-2.854,1.687-4.379,2.205
		c-0.097-0.324-0.341-0.859-0.519-1.119c1.411-0.405,2.79-1.021,4.006-1.816c-0.714-0.648-1.314-1.395-1.8-2.173
		c-0.454,0.633-0.957,1.184-1.46,1.655c-0.162-0.211-0.503-0.682-0.73-0.909c-0.94,1.541-2.027,3.049-3.114,4.298l2.968-0.648
		c-0.032,0.308-0.016,0.795,0.033,1.054c-3.99,0.974-4.525,1.136-4.866,1.347c-0.065-0.243-0.259-0.827-0.389-1.151
		c0.34-0.065,0.73-0.454,1.216-1.055c0.308-0.292,0.957-1.119,1.671-2.141c-1.995,0.275-2.384,0.373-2.611,0.486
		c-0.065-0.26-0.244-0.844-0.39-1.168c0.276-0.081,0.568-0.438,0.925-0.989c0.357-0.536,1.557-2.579,2.222-4.509l1.135,0.551
		c-0.714,1.655-1.67,3.39-2.611,4.736l2.043-0.211c0.357-0.551,0.682-1.119,0.974-1.67l1.054,0.632l-0.179,0.308
		c1.249-1.135,2.385-2.838,3.066-4.623l1.086,0.324c-0.194,0.471-0.421,0.974-0.648,1.428h4.298l0.227-0.033L32.438,15.994z
		 M18.262,26.764c1.346-0.324,3.406-0.924,5.434-1.508l0.195,1.054c-1.898,0.568-3.877,1.168-5.369,1.654L18.262,26.764z
		 M25.091,22.791h6.861v5.888h-1.167V27.9H26.21v0.795h-1.119V22.791z M26.21,23.878v2.952h4.574v-2.952H26.21z M26.486,16.87
		c0.47,0.941,1.151,1.768,1.995,2.482c0.957-0.763,1.784-1.638,2.368-2.676h-4.25L26.486,16.87z"/>
</g>
<path fill="#333333" d="M41.84,29.566c-2.484,0-4.515-0.691-6.209-2.11l-0.347-0.291l2.233-2.59l0.427,0.35
	c1.121,0.919,2.218,1.347,3.453,1.347c1.587,0,2.534-0.822,2.534-2.197c0-1.372-0.872-2.159-2.394-2.159
	c-0.894,0-1.363,0.174-2.319,0.694l-0.279,0.153l-2.112-1.165l0.516-7.764h10.289v3.354h-6.339l-0.203,1.905
	c0.476-0.122,0.947-0.178,1.475-0.178c3.56,0,5.861,1.994,5.861,5.08C48.426,27.653,45.113,29.566,41.84,29.566z M36.713,27.053
	c1.417,1.057,3.099,1.572,5.127,1.572c2.663,0,5.528-1.449,5.528-4.632c0-2.592-1.795-4.14-4.803-4.14
	c-0.675,0-1.215,0.107-1.861,0.37l-0.833,0.337l0.458-4.314h6.244v-1.474h-8.233l-0.42,6.321l1.024,0.563
	c0.902-0.472,1.547-0.684,2.592-0.684c2.097,0,3.452,1.216,3.452,3.1c0,1.906-1.41,3.138-3.593,3.138
	c-1.33,0-2.557-0.413-3.733-1.26L36.713,27.053z"/>
<path fill="#333333" d="M55.612,29.566c-2.483,0-4.515-0.69-6.209-2.109l-0.348-0.292l2.235-2.59l0.426,0.35
	c1.122,0.919,2.218,1.347,3.453,1.347c1.587,0,2.535-0.822,2.535-2.197c0-1.372-0.872-2.159-2.394-2.159
	c-0.896,0-1.364,0.174-2.319,0.694l-0.278,0.153l-2.113-1.165l0.516-7.764h10.289v3.354h-6.338l-0.204,1.906
	c0.477-0.123,0.948-0.179,1.476-0.179c3.561,0,5.861,1.994,5.861,5.08C62.198,27.653,58.885,29.566,55.612,29.566z M50.484,27.053
	c1.417,1.057,3.1,1.572,5.128,1.572c2.662,0,5.527-1.449,5.527-4.632c0-2.592-1.795-4.14-4.803-4.14
	c-0.674,0-1.214,0.108-1.862,0.37l-0.833,0.336l0.46-4.313h6.243v-1.474h-8.232l-0.419,6.321l1.024,0.563
	c0.9-0.472,1.546-0.684,2.593-0.684c2.097,0,3.452,1.216,3.452,3.1c0,1.906-1.411,3.138-3.594,3.138
	c-1.329,0-2.556-0.413-3.732-1.26L50.484,27.053z"/>
</svg>
