<?xml version="1.0" encoding="utf-8"?>
<!-- Generator: Adobe Illustrator 16.0.0, SVG Export Plug-In . SVG Version: 6.00 Build 0)  -->
<!DOCTYPE svg PUBLIC "-//W3C//DTD SVG 1.1//EN" "http://www.w3.org/Graphics/SVG/1.1/DTD/svg11.dtd">
<svg version="1.1" id="图层_1" xmlns="http://www.w3.org/2000/svg" xmlns:xlink="http://www.w3.org/1999/xlink" x="0px" y="0px"
	 width="103.129px" height="37.111px" viewBox="0 0 103.129 37.111" enable-background="new 0 0 103.129 37.111"
	 xml:space="preserve">
<g>
	<path fill="#0099FF" d="M17.985,22.57c-0.048,1.936-0.322,4.42-1.452,6.113c-0.177-0.194-0.597-0.564-0.822-0.694
		c1.129-1.726,1.242-4.145,1.242-5.967v-4.371h5.887v4.919H17.985z M23.243,15.893H16.34v-0.984h6.903V15.893z M17.985,18.635v2.952
		h3.807v-2.952H17.985z M30.808,20.506h-1.871v8.113h-1.048v-8.113h-2.919c-0.064,2.517-0.532,5.742-2.742,8.097
		c-0.129-0.226-0.516-0.58-0.79-0.726c2.242-2.354,2.484-5.548,2.484-8.016v-4.242l0.887,0.258c1.758-0.468,3.613-1.064,4.678-1.661
		l0.951,0.807c-1.468,0.71-3.564,1.322-5.467,1.774v2.661h5.838V20.506z"/>
	<path fill="#0099FF" d="M37.805,17.119c-0.306,0.661-0.661,1.339-1.032,1.968h7.839v8.209c0,0.678-0.162,1-0.662,1.178
		s-1.387,0.178-2.79,0.178c-0.048-0.307-0.21-0.742-0.355-1.049c1.113,0.049,2.097,0.032,2.371,0.032
		c0.29-0.016,0.387-0.112,0.387-0.354v-1.79H36.66v3.193h-1.048v-7.919c-0.806,1.016-1.726,1.935-2.774,2.677
		c-0.146-0.242-0.484-0.629-0.694-0.822c1.952-1.339,3.452-3.339,4.5-5.5h-4.129v-1.017h4.581c0.291-0.693,0.532-1.402,0.709-2.097
		l1.081,0.242c-0.193,0.629-0.403,1.242-0.645,1.854h8.274v1.017H37.805z M43.563,20.054H36.66v1.758h6.903V20.054z M43.563,24.554
		v-1.807H36.66v1.807H43.563z"/>
	<path fill="#0099FF" d="M56.076,23.426c-0.21,1.016-0.629,1.983-1.5,2.822c2.081,0.968,4.854,1.258,8.516,1.371
		c-0.209,0.241-0.387,0.693-0.451,1.048c-3.79-0.178-6.742-0.548-8.919-1.742c-1.064,0.71-2.581,1.323-4.726,1.791
		c-0.113-0.259-0.403-0.693-0.629-0.952c1.984-0.387,3.387-0.887,4.387-1.468c-0.807-0.612-1.5-1.387-2.064-2.354l0.903-0.354
		c0.548,0.887,1.226,1.564,2,2.097c0.79-0.678,1.193-1.436,1.37-2.258h-4.838V17.28h5.016v-1.419h-6.5v-0.984h13.936v0.984h-6.339
		v1.419h5.339v6.146H56.076z M51.157,19.909h3.983V18.2h-3.983V19.909z M55.108,22.506c0.017-0.339,0.032-0.693,0.032-1.048V20.78
		h-3.983v1.726H55.108z M60.512,20.78h-4.274v0.678c0,0.354-0.016,0.709-0.032,1.048h4.307V20.78z M56.237,18.2v1.709h4.274V18.2
		H56.237z"/>
	<path fill="#0099FF" d="M70.783,26.409c-0.371-0.436-1.259-1.307-1.969-1.951v4.161h-1.048v-4.323
		c-0.839,1.307-1.903,2.532-2.871,3.274c-0.177-0.242-0.5-0.597-0.726-0.774c1.178-0.773,2.532-2.306,3.354-3.79h-2.967V22.07h3.209
		v-1.741h-3.258v-0.936h7.483v0.936h-3.178v1.741h3.081v0.936h-3.081v0.436c0.629,0.484,2.21,1.79,2.598,2.129L70.783,26.409z
		 M71.783,16.635h-7.049v-0.92h3.032v-1.645h1.048v1.645h2.969V16.635z M66.379,19.329c-0.048-0.646-0.321-1.629-0.645-2.388
		l0.855-0.226c0.338,0.742,0.629,1.71,0.709,2.354L66.379,19.329z M70.799,17.022c-0.339,0.822-0.727,1.758-1.049,2.371l-0.79-0.274
		c0.323-0.646,0.71-1.693,0.888-2.403L70.799,17.022z M79.105,20.458h-1.888v8.129H76.17v-8.129h-2.549v0.5
		c0,2.387-0.322,5.58-2.613,7.79c-0.129-0.226-0.483-0.613-0.741-0.759c2.097-2.016,2.322-4.79,2.322-7.048v-5.612l0.903,0.29
		c1.678-0.387,3.451-0.887,4.484-1.403l0.854,0.79c-1.37,0.613-3.387,1.13-5.209,1.5v2.936h5.484V20.458z"/>
</g>
<text transform="matrix(1 0 0 1 -84.292 27.4734)" fill="#333333" font-family="'NotoSansCJK-DemiLight-90ms-RKSJ-H'" font-size="16.1259">所有更新</text>
</svg>
