<?xml version="1.0" encoding="utf-8"?>
<!-- Generator: Adobe Illustrator 16.0.0, SVG Export Plug-In . SVG Version: 6.00 Build 0)  -->
<!DOCTYPE svg PUBLIC "-//W3C//DTD SVG 1.1//EN" "http://www.w3.org/Graphics/SVG/1.1/DTD/svg11.dtd">
<svg version="1.1" id="图层_1" xmlns="http://www.w3.org/2000/svg" xmlns:xlink="http://www.w3.org/1999/xlink" x="0px" y="0px"
	 width="103.129px" height="37.111px" viewBox="0 0 103.129 37.111" enable-background="new 0 0 103.129 37.111"
	 xml:space="preserve">
<path fill="#231815" d="M88.666,33.42H15.102c-7.992,0-14.469-5.303-14.469-11.842c0-6.54,6.477-11.84,14.469-11.84h73.564
	c7.991,0,14.471,5.3,14.471,11.84C103.137,28.117,96.659,33.42,88.666,33.42z"/>
<text transform="matrix(1 0 0 1 -74.0225 27.4734)" fill="#333333" font-family="'NotoSansCJK-DemiLight-90ms-RKSJ-H'" font-size="16.1259">在线客服</text>
<g>
	<path fill="#FFFFFF" d="M17.419,20.764v2.187H6.308v-2.187H17.419z"/>
	<path fill="#FFFFFF" d="M23.14,24.237c0.11,0.452,0.343,1.091,0.531,1.403c-2.496,1.843-2.949,2.214-3.199,2.558l-0.017-0.045
		v0.045c-0.156-0.312-0.577-0.874-0.826-1.091c0.295-0.264,0.732-0.81,0.732-1.622v-2.576h-1.513v-1.578h1.513v-1.622h-0.828V18.46
		c-0.109,0.157-0.217,0.298-0.343,0.435c-0.124-0.355-0.5-1.2-0.765-1.558c0.704-0.891,1.264-2.215,1.609-3.559l1.42,0.391
		c-0.094,0.358-0.219,0.717-0.343,1.092h2.262v1.593h-2.902c-0.218,0.467-0.469,0.889-0.718,1.297H23v1.559h-1.139v1.623h1.467
		v1.577h-1.467v2.248L23.14,24.237z M27.183,19.429c-0.172,2.215-0.483,4.025-1.014,5.479c1.124,1.263,2.638,1.605,4.324,1.605
		c0.499,0,2.184,0,2.826-0.018c-0.236,0.393-0.469,1.11-0.548,1.562h-2.403c-1.952,0-3.589-0.358-4.886-1.641
		c-0.405,0.781-0.92,1.392-1.499,1.858c-0.233-0.311-0.81-0.828-1.169-0.997c0.7-0.534,1.248-1.234,1.699-2.138
		c-0.436-0.735-0.795-1.641-1.093-2.765l1.358-0.469c0.124,0.486,0.265,0.923,0.422,1.326c0.188-0.764,0.329-1.605,0.436-2.557
		h-2.013c0.437-1.171,0.999-2.874,1.452-4.449h-1.358v-1.512h3.323c-0.39,1.435-0.92,3.135-1.405,4.541h0.393l0.25-0.018
		L27.183,19.429z M28.93,16.215h-1.498v-1.327h1.498v-1.155h1.467v1.155h2.2v2.061h0.484v1.343h-0.484v2.076h-2.2v0.698h2.075v1.451
		h-2.075v0.751h2.326v1.437h-2.326v1.39H28.93v-1.39h-1.95v-1.437h1.95v-0.751h-1.623v-1.451h1.623v-0.698h-1.498V19.04h1.498
		v-0.748h-2.139v-1.343h2.139V16.215z M30.398,16.215v0.733h0.842v-0.733H30.398z M31.241,18.291h-0.842v0.748h0.842V18.291z"/>
	<path fill="#FFFFFF" d="M47.919,18.26c-0.468,2.294-1.187,4.229-2.2,5.821c0.889,1.092,1.981,1.98,3.339,2.559
		c-0.422,0.374-0.998,1.108-1.279,1.607c-1.311-0.654-2.372-1.527-3.263-2.623c-0.983,1.095-2.2,1.982-3.684,2.685
		c-0.156-0.387-0.608-1.093-0.952-1.528v1.467H38.07V24.33c-1.186,0.358-2.371,0.72-3.386,1.015l-0.593-1.873
		c0.297-0.062,0.608-0.124,0.969-0.203v-7.724h1.779v7.305c0.405-0.098,0.811-0.19,1.232-0.298v-8.707h1.811v5.712
		c1.14-1.467,1.952-3.606,2.389-5.823l1.888,0.358c-0.188,0.828-0.405,1.639-0.671,2.419h5.399v1.749H47.919L47.919,18.26z
		 M39.88,26.576c1.468-0.64,2.636-1.466,3.558-2.541c-0.654-1.158-1.169-2.455-1.576-3.904c-0.328,0.515-0.671,0.998-1.029,1.404
		c-0.203-0.219-0.593-0.607-0.952-0.933V26.576z M43.11,18.26c0.344,1.498,0.828,2.887,1.483,4.119
		c0.638-1.171,1.093-2.545,1.418-4.119H43.11z"/>
	<path fill="#FFFFFF" d="M63.722,19.913c-0.42,1.936-1.046,3.668-1.875,5.12c0.329,1.061,0.703,1.606,1,1.606
		c0.265,0,0.405-0.469,0.484-1.967c0.328,0.326,0.81,0.671,1.201,0.812c-0.201,2.324-0.688,2.778-1.807,2.791
		c-0.768,0-1.423-0.593-1.938-1.684c-0.5,0.64-1.076,1.215-1.701,1.7c-0.281-0.299-0.952-0.876-1.326-1.138
		c0.252-0.173,0.485-0.361,0.717-0.547h-2.463v0.921h-1.296v-7.867h4.511v1.169h-1.168v0.72h1.243v3.121h-1.243v0.764h1.262v0.346
		c0.295-0.33,0.576-0.69,0.824-1.08c-0.373-1.48-0.637-3.387-0.776-5.634h-5.185v3.09c0,1.904-0.14,4.525-1.029,6.181
		c-0.297-0.252-1.014-0.643-1.39-0.782c0.563-1.028,0.783-2.355,0.86-3.635h-0.75v0.421c0,1.075-0.171,2.837-1.171,3.947
		c-0.232-0.234-0.733-0.595-1.044-0.734c0.797-0.967,0.906-2.388,0.906-3.262v-0.373h-0.734v-1.484h2.84v-0.295v-0.627H51.8v0.314
		h-1.328v-4.169H51.8v2.374h0.874v-2.53h6.631l-0.015-0.484h-0.561v-0.827h-3.293v0.765h-1.828v-0.765h-3.433v-1.532h3.433v-0.967
		h1.828v0.967h3.293v-0.967h1.854v0.967h3.449v1.532H62.82c0.418,0.296,0.888,0.686,1.108,0.982L63.505,17.5h0.64v1.561h-3.166
		c0.061,1.265,0.17,2.388,0.326,3.357c0.331-0.858,0.579-1.796,0.782-2.793L63.722,19.913z M56.011,20.835v0.718h0.829v-0.718
		H56.011z M56.011,22.659v0.923h1.998v-0.923H56.011z M56.011,25.438h0.829v-0.764h-0.829V25.438z M60.929,16.636
		c0,0.297,0,0.593,0,0.874h1.342c-0.235-0.234-0.502-0.466-0.766-0.654L62.38,16.2h-1.796v0.437L60.929,16.636L60.929,16.636z"/>
	<path fill="#FFFFFF" d="M73.391,16.445v2.436l0.312-0.358c1.668,0.874,4.152,2.232,5.338,3.215l-1.374,1.698
		c-0.905-0.81-2.699-1.964-4.275-2.886v7.366h-1.998V16.445h-5.618v-1.872h13.906v1.872H73.391z"/>
	<path fill="#FFFFFF" d="M94.952,19.696c-0.563,1.981-1.327,3.744-2.311,5.289c0.313,0.889,0.689,1.405,1.11,1.405
		c0.28,0,0.438-0.643,0.515-2.263c0.359,0.404,0.968,0.797,1.39,0.969c-0.253,2.417-0.781,3.059-2.076,3.059
		c-0.903,0-1.592-0.577-2.137-1.545c-0.579,0.671-1.188,1.262-1.89,1.809c-0.265-0.405-0.796-0.969-1.233-1.278
		c0.909-0.644,1.719-1.436,2.422-2.374c-0.472-1.668-0.718-3.838-0.86-6.212h-5.228l1.23,0.329c-0.124,0.281-0.262,0.561-0.404,0.86
		h3.931v1.437h-4.727c-0.253,0.452-0.534,0.875-0.812,1.262h1.481v-0.92h1.717v0.92h2.155l-0.021,1.516h-2.135v0.89l2.42-0.171
		l-0.02,1.481c-0.78,0.075-1.605,0.154-2.403,0.233v1.858h-1.717v-1.717c-1.39,0.122-2.7,0.25-3.777,0.34l-0.141-1.652
		c1.047-0.062,2.421-0.153,3.919-0.264v-1h-1.859c-0.608,0-1.153,0.096-1.294,0.249c-0.075-0.342-0.356-1.169-0.56-1.62
		c0.279-0.079,0.547-0.36,0.794-0.767c0.079-0.108,0.235-0.341,0.388-0.64h-1.323v-1.437h2.063c0.171-0.391,0.325-0.78,0.452-1.188
		H81.28V17.12h3.387v-0.922h-2.606v-1.404h2.606v-1.047h1.779v1.047h2.544v1.404h-2.544v0.922h3.37
		c-0.027-1.109-0.045-2.232-0.045-3.357h1.825c-0.03,1.141-0.018,2.263,0.018,3.357h3.824v1.435H91.66
		c0.094,1.484,0.233,2.857,0.421,4.012c0.499-1.029,0.904-2.152,1.219-3.339L94.952,19.696z M93.751,16.965
		c-0.33-0.625-1.111-1.562-1.75-2.231l1.343-0.83c0.656,0.608,1.468,1.513,1.842,2.108L93.751,16.965z"/>
</g>
<linearGradient id="SVGID_1_" gradientUnits="userSpaceOnUse" x1="67.8389" y1="28.7712" x2="76.5801" y2="28.7712">
	<stop  offset="0.0054" style="stop-color:#A700E9"/>
	<stop  offset="0.6075" style="stop-color:#FF0087"/>
	<stop  offset="1" style="stop-color:#FFC42A"/>
</linearGradient>
<polygon fill="url(#SVGID_1_)" points="69.714,28.303 72.209,32.069 74.704,28.303 76.58,25.473 67.839,25.473 "/>
</svg>
