<?xml version="1.0" encoding="utf-8"?>
<!-- Generator: Adobe Illustrator 16.0.0, SVG Export Plug-In . SVG Version: 6.00 Build 0)  -->
<!DOCTYPE svg PUBLIC "-//W3C//DTD SVG 1.1//EN" "http://www.w3.org/Graphics/SVG/1.1/DTD/svg11.dtd">
<svg version="1.1" id="图层_1" xmlns="http://www.w3.org/2000/svg" xmlns:xlink="http://www.w3.org/1999/xlink" x="0px" y="0px"
	 width="103.129px" height="37.111px" viewBox="0 0 103.129 37.111" enable-background="new 0 0 103.129 37.111"
	 xml:space="preserve">
<g enable-background="new    ">
	<path fill="#333333" d="M16.138,19.958v2.017h1.968v1h-1.968v4.37c0,0.661-0.129,1-0.629,1.179
		c-0.468,0.161-1.307,0.177-2.548,0.177c-0.048-0.307-0.21-0.774-0.371-1.08c1.032,0.032,1.887,0.032,2.177,0.016
		c0.274,0,0.339-0.063,0.339-0.307v-4.354H9.202v-0.937L7.444,22.62v6.064H6.46v-5.759l-2.709,0.87l-0.307-1.031
		c0.823-0.227,1.871-0.532,3.016-0.87v-3.581H4.896c-0.209,0.936-0.452,1.79-0.758,2.468c-0.178-0.129-0.597-0.371-0.823-0.483
		c0.629-1.354,0.968-3.42,1.177-5.42l0.936,0.161c-0.081,0.759-0.193,1.532-0.323,2.259H6.46v-3.259h0.984v3.259h1.709v1.017H7.444
		v3.29l1.968-0.598l0.161,0.92l-0.145,0.049h5.677v-2.017H8.96v-1h4.129V16.78H9.896v-0.968h3.193v-1.808h1.048v1.808h3.322v0.968
		h-3.322v2.178h4.016v1H16.138z M10.912,23.522c0.806,0.772,1.726,1.854,2.097,2.611l-0.887,0.532
		c-0.355-0.742-1.242-1.887-2.048-2.677L10.912,23.522z"/>
	<path fill="#333333" d="M31.248,27.522c1.532,0,1.758-0.437,1.952-2.437c0.29,0.178,0.758,0.339,1.064,0.403
		c-0.242,2.338-0.694,3.032-3.016,3.032H24.86c-2.516,0-3.29-0.42-3.29-2.274v-7.29c-0.371,0.322-0.758,0.646-1.177,0.937
		c-0.162-0.242-0.532-0.613-0.807-0.774c2.226-1.5,3.839-3.517,4.709-5.129l1.21,0.226c-0.178,0.29-0.355,0.581-0.564,0.889h4.081
		l0.209-0.065l0.097,0.065h0.016v0.016l0.613,0.387c-0.403,0.823-0.984,1.71-1.564,2.469h4.613v5.821h-1.064v-0.79h-9.29v3.259
		c0,1,0.307,1.259,2.097,1.259h6.499V27.522z M24.264,16.054c-0.484,0.646-1.032,1.289-1.645,1.919h4.5
		c0.468-0.549,0.952-1.259,1.306-1.919H24.264z M22.651,22.038h3.968v-3.08h-3.968V22.038z M31.941,18.958h-4.274v3.08h4.274V18.958
		z"/>
</g>
<g enable-background="new    ">
	<path fill="#333333" d="M36.522,27.71c-0.04-0.039-0.06-0.087-0.06-0.144V16.09c0-0.057,0.02-0.105,0.06-0.144
		c0.04-0.04,0.087-0.06,0.145-0.06h2.41c0.057,0,0.105,0.02,0.145,0.06c0.04,0.039,0.06,0.087,0.06,0.144v9.184
		c0,0.058,0.028,0.084,0.085,0.084h3.415c0.057,0,0.104,0.021,0.145,0.06c0.04,0.041,0.06,0.088,0.06,0.145v2.004
		c0,0.057-0.02,0.104-0.06,0.144c-0.041,0.04-0.087,0.06-0.145,0.06h-6.114C36.609,27.769,36.562,27.75,36.522,27.71z"/>
	<path fill="#333333" d="M46.032,27.405c-0.696-0.368-1.236-0.886-1.621-1.554c-0.385-0.667-0.578-1.443-0.578-2.325v-3.396
		c0-0.859,0.193-1.622,0.578-2.284s0.925-1.177,1.621-1.544c0.697-0.368,1.503-0.552,2.419-0.552c0.917,0,1.725,0.184,2.428,0.552
		c0.701,0.367,1.244,0.882,1.63,1.544c0.384,0.662,0.576,1.424,0.576,2.284v3.396c0,0.882-0.192,1.658-0.576,2.325
		c-0.386,0.668-0.929,1.186-1.63,1.554c-0.703,0.368-1.511,0.552-2.428,0.552C47.535,27.957,46.729,27.773,46.032,27.405z
		 M49.767,25.019c0.334-0.351,0.5-0.82,0.5-1.409v-3.514c0-0.577-0.166-1.044-0.5-1.4s-0.772-0.535-1.315-0.535
		c-0.533,0-0.966,0.178-1.299,0.535c-0.334,0.356-0.501,0.823-0.501,1.4v3.514c0,0.589,0.167,1.059,0.501,1.409
		c0.333,0.351,0.766,0.526,1.299,0.526C48.995,25.546,49.433,25.37,49.767,25.019z"/>
	<path fill="#333333" d="M56.539,27.363c-0.685-0.362-1.216-0.872-1.596-1.527c-0.379-0.657-0.568-1.416-0.568-2.276V20.08
		c0-0.86,0.189-1.616,0.568-2.267c0.38-0.651,0.911-1.157,1.596-1.52c0.686-0.362,1.479-0.543,2.386-0.543
		c0.894,0,1.686,0.173,2.376,0.517c0.691,0.346,1.226,0.818,1.604,1.418c0.38,0.6,0.568,1.262,0.568,1.987v0.085
		c0,0.056-0.021,0.104-0.06,0.144c-0.038,0.04-0.088,0.06-0.144,0.06h-2.411c-0.056,0-0.104-0.02-0.145-0.06
		c-0.039-0.039-0.059-0.088-0.059-0.144c0-0.441-0.155-0.818-0.468-1.129c-0.311-0.312-0.731-0.467-1.264-0.467
		c-0.521,0-0.939,0.169-1.257,0.509c-0.317,0.339-0.475,0.78-0.475,1.324v3.649c0,0.544,0.175,0.984,0.525,1.324
		s0.792,0.509,1.324,0.509c0.498,0,0.9-0.133,1.205-0.398c0.307-0.267,0.458-0.637,0.458-1.112v-0.475
		c0-0.057-0.028-0.085-0.084-0.085h-1.697c-0.057,0-0.105-0.021-0.145-0.06s-0.06-0.088-0.06-0.145v-1.866
		c0-0.058,0.021-0.105,0.06-0.146c0.039-0.039,0.088-0.06,0.145-0.06h4.346c0.056,0,0.105,0.021,0.144,0.06
		c0.039,0.04,0.06,0.088,0.06,0.146v2.308c0,0.85-0.188,1.596-0.568,2.241c-0.379,0.646-0.912,1.144-1.596,1.494
		c-0.685,0.351-1.479,0.525-2.385,0.525C58.019,27.905,57.225,27.724,56.539,27.363z"/>
	<path fill="#333333" d="M66.963,27.405c-0.696-0.368-1.237-0.886-1.622-1.554c-0.385-0.667-0.576-1.443-0.576-2.325v-3.396
		c0-0.859,0.191-1.622,0.576-2.284s0.926-1.177,1.622-1.544c0.695-0.368,1.502-0.552,2.418-0.552c0.918,0,1.727,0.184,2.428,0.552
		c0.702,0.367,1.245,0.882,1.631,1.544c0.384,0.662,0.576,1.424,0.576,2.284v3.396c0,0.882-0.192,1.658-0.576,2.325
		c-0.386,0.668-0.929,1.186-1.631,1.554c-0.701,0.368-1.51,0.552-2.428,0.552C68.465,27.957,67.658,27.773,66.963,27.405z
		 M70.697,25.019c0.334-0.351,0.502-0.82,0.502-1.409v-3.514c0-0.577-0.168-1.044-0.502-1.4c-0.333-0.356-0.772-0.535-1.316-0.535
		c-0.531,0-0.964,0.178-1.297,0.535c-0.336,0.356-0.502,0.823-0.502,1.4v3.514c0,0.589,0.166,1.059,0.502,1.409
		c0.333,0.351,0.766,0.526,1.297,0.526C69.925,25.546,70.364,25.37,70.697,25.019z"/>
</g>
<path fill="#E72B57" d="M70.01,23.354c0.158-0.166,0.237-0.389,0.237-0.668V21.02c0-0.273-0.079-0.494-0.237-0.664
	c-0.158-0.168-0.366-0.254-0.624-0.254c-0.252,0-0.458,0.086-0.616,0.254c-0.158,0.17-0.237,0.391-0.237,0.664v1.666
	c0,0.279,0.079,0.502,0.237,0.668c0.158,0.168,0.364,0.25,0.616,0.25C69.644,23.604,69.852,23.522,70.01,23.354z"/>
<path fill="#BF5FA0" d="M49.079,23.354c0.158-0.166,0.237-0.389,0.237-0.668V21.02c0-0.273-0.079-0.494-0.237-0.664
	c-0.158-0.168-0.366-0.254-0.624-0.254c-0.252,0-0.458,0.086-0.616,0.254c-0.158,0.17-0.237,0.391-0.237,0.664v1.666
	c0,0.279,0.079,0.502,0.237,0.668c0.158,0.168,0.364,0.25,0.616,0.25C48.713,23.604,48.921,23.522,49.079,23.354z"/>
</svg>
