<?xml version="1.0" encoding="utf-8"?>
<!-- Generator: Adobe Illustrator 16.0.0, SVG Export Plug-In . SVG Version: 6.00 Build 0)  -->
<!DOCTYPE svg PUBLIC "-//W3C//DTD SVG 1.1//EN" "http://www.w3.org/Graphics/SVG/1.1/DTD/svg11.dtd">
<svg version="1.1" id="图层_1" xmlns="http://www.w3.org/2000/svg" xmlns:xlink="http://www.w3.org/1999/xlink" x="0px" y="0px"
	 width="1200px" height="1000px" viewBox="0 0 1200 1000" enable-background="new 0 0 1200 1000" xml:space="preserve">
<path fill="#25182A" d="M306.24,126.62c-1.026-3.412-1.474-7.104-1.474-10.932c0-4.371,0.589-8.471,1.766-12.16
	c4.561-14.895,17.793-24.324,36.17-24.324c18.523,0,31.315,9.564,35.875,24.05c1.178,3.826,1.766,7.789,1.766,12.163
	c0,3.689-0.442,7.105-1.178,10.386c-3.969,16.125-17.352,26.646-36.608,26.646C323.736,152.45,310.357,142.204,306.24,126.62z"/>
<path fill="#E61F62" d="M351.966,121.702c0.438-1.912,0.589-3.963,0.589-6.147c0-2.323-0.296-4.373-0.735-6.286
	c-1.32-4.92-4.265-8.063-9.263-8.063c-5.293,0-8.087,3.281-9.265,8.063c-0.588,1.913-0.734,4.1-0.734,6.286s0.146,4.235,0.589,6.147
	c1.323,5.195,4.267,8.748,9.41,8.748C347.85,130.45,350.79,126.759,351.966,121.702z"/>
<path fill="#25182A" d="M434.595,80.299h22.054c1.767,0,2.796,0.957,2.796,2.594v59.172c0,35.118-33.311,39.019-60.636,38.064
	c-1.619-0.271-2.503-1.362-2.354-2.865l0.883-18.576c0.146-1.914,1.321-2.601,3.232-2.053c12.792,2.73,28.287-0.498,30.786-10.336
	c0.295-0.958-1.024-1.504-1.908-0.958c-3.091,2.188-7.354,3.556-13.231,3.556c-10.146,0-24.408-2.461-29.994-17.767
	c-2.059-5.604-2.499-11.752-2.499-15.989c0-5.603,0.735-11.751,3.087-17.216c4.705-11.206,15.146-18.721,28.523-18.721
	c6.91,0,11.762,1.913,15.145,5.192c0.734,0.682,1.322,0.545,1.322-0.41v-1.096C431.8,81.256,432.829,80.299,434.595,80.299z"/>
<path fill="#F1EC4E" d="M431.8,115.008c0-3.689-0.442-6.423-1.617-8.881c-1.615-3.145-4.264-4.92-8.381-4.92
	c-3.676,0-6.176,1.915-7.795,4.781c-1.614,2.597-2.353,6.15-2.353,9.432c0,3.418,0.589,6.559,1.912,8.881
	c1.617,2.87,4.411,4.783,8.527,4.783c4.263,0,6.763-1.775,8.233-4.646C431.358,121.977,431.8,118.698,431.8,115.008z"/>
<path fill="#25182A" d="M466.054,126.62c-1.028-3.412-1.47-7.104-1.47-10.932c0-4.371,0.587-8.471,1.764-12.16
	c4.561-14.895,17.79-24.324,36.168-24.324c18.528,0,31.318,9.564,35.876,24.05c1.177,3.826,1.766,7.789,1.766,12.163
	c0,3.689-0.438,7.105-1.175,10.386c-3.971,16.125-17.353,26.646-36.611,26.646C483.549,152.45,470.172,142.204,466.054,126.62z"/>
<path fill="#9EC929" d="M511.781,121.702c0.439-1.912,0.587-3.963,0.587-6.147c0-2.323-0.294-4.373-0.733-6.286
	c-1.321-4.92-4.266-8.063-9.263-8.063c-5.293,0-8.086,3.281-9.262,8.063c-0.591,1.913-0.735,4.1-0.735,6.286
	s0.146,4.235,0.587,6.147c1.324,5.195,4.266,8.748,9.411,8.748C507.661,130.45,510.602,126.759,511.781,121.702z"/>
<path fill="#25182A" d="M541.449,138.1"/>
<path fill="#25182A" d="M151.649,119.927c0,5.33-1.177,9.839-2.939,13.529c-5.293,11.204-18.231,18.72-34.405,18.72
	c-15.879,0-28.817-7.105-34.403-18.72c-1.179-2.599-2.058-5.192-2.501-7.927c-0.293-1.775,0.883-2.733,2.646-2.733h22.937
	c1.62,0,2.5,0.683,3.089,1.778c0.146,0.545,0.44,1.09,0.883,1.771c1.616,2.6,4.116,3.826,7.352,3.826
	c3.089,0,5.439-1.502,7.058-3.557c1.324-1.773,2.061-3.961,2.061-6.146c0.146-2.321-0.439-4.51-1.618-6.421
	c-1.469-2.186-3.968-3.691-7.498-3.691c-2.351,0-4.998,0.685-6.91,2.598c-1.026,1.095-2.058,1.64-3.526,1.64H80.193
	c-1.765,0-2.794-0.957-2.794-2.596V58.298c0-1.642,1.029-2.597,2.794-2.597h65.43c1.764,0,2.794,0.955,2.794,2.597v16.81
	c0,1.638-1.03,2.597-2.794,2.597h-39.407c-0.734,0-1.175,0.407-1.175,1.092v11.206c0,0.82,0.588,1.229,1.47,0.82
	c3.823-1.916,8.086-2.598,11.91-2.598c13.965,0,25.288,7.379,30.433,18.448C150.62,110.635,151.649,115.145,151.649,119.927z"/>
<path fill="#25182A" d="M230.307,119.927c0,5.33-1.177,9.839-2.938,13.529c-5.293,11.204-18.23,18.72-34.405,18.72
	c-15.879,0-28.819-7.105-34.405-18.72c-1.176-2.599-2.057-5.192-2.499-7.927c-0.294-1.775,0.882-2.733,2.646-2.733h22.937
	c1.617,0,2.5,0.683,3.089,1.778c0.146,0.545,0.439,1.09,0.881,1.771c1.618,2.6,4.118,3.826,7.353,3.826
	c3.088,0,5.438-1.502,7.058-3.557c1.323-1.773,2.062-3.961,2.062-6.146c0.145-2.321-0.441-4.51-1.619-6.421
	c-1.469-2.186-3.969-3.691-7.497-3.691c-2.354,0-4.999,0.685-6.91,2.598c-1.029,1.095-2.058,1.64-3.527,1.64H158.85
	c-1.764,0-2.792-0.957-2.792-2.596V58.298c-0.001-1.642,1.027-2.597,2.792-2.597h65.43c1.767,0,2.793,0.955,2.793,2.597v16.81
	c0,1.638-1.026,2.597-2.793,2.597h-39.403c-0.734,0-1.176,0.407-1.176,1.092v11.206c0,0.82,0.588,1.229,1.471,0.82
	c3.824-1.916,8.086-2.598,11.91-2.598c13.967,0,25.287,7.379,30.434,18.448C229.277,110.635,230.307,115.145,230.307,119.927z"/>
<path fill="#88CBB1" d="M301.303,123.313c0-1.793-1.046-2.84-2.841-2.84h-25.137c-0.746,0-1.195-0.449-1.195-1.195V57.753
	c0-1.793-1.047-2.84-2.84-2.84h-4.066c1.793,0,2.84,1.046,2.84,2.84v65.524c0,0.746,0.448,1.192,1.195,1.192h29.137
	c1.794,0,2.84,1.05,2.84,2.843v18.094c0.041-0.224,0.067-0.457,0.067-0.711V123.313z"/>
<path fill="#25182A" d="M298.396,124.473h-29.137c-0.747,0-1.195-0.449-1.195-1.195V57.753c0-1.793-1.047-2.84-2.84-2.84H244.87
	h-4.066c-1.793,0-2.84,1.046-2.84,2.84v90.942c0,1.795,1.047,2.84,2.84,2.84h57.592c1.794,0,2.84-1.045,2.84-2.84v-3.289v-18.094
	C301.235,125.52,300.189,124.473,298.396,124.473z"/>
</svg>
