<?xml version="1.0" encoding="utf-8"?>
<!-- Generator: Adobe Illustrator 16.0.0, SVG Export Plug-In . SVG Version: 6.00 Build 0)  -->
<!DOCTYPE svg PUBLIC "-//W3C//DTD SVG 1.1//EN" "http://www.w3.org/Graphics/SVG/1.1/DTD/svg11.dtd">
<svg version="1.1" id="Layer_1" xmlns="http://www.w3.org/2000/svg" xmlns:xlink="http://www.w3.org/1999/xlink" x="0px" y="0px"
	 width="542.504px" height="129.834px" viewBox="0 0 542.504 129.834" enable-background="new 0 0 542.504 129.834"
	 xml:space="preserve">
<g>
	<path fill="#00FFFF" d="M435.564,49.141V25.428c0-0.246,0.176-0.421,0.422-0.421h5.472c0.246,0,0.387,0.141,0.457,0.35
		l3.577,11.962c0.036,0.176,0.21,0.176,0.21,0l-0.035-11.891c0-0.246,0.176-0.421,0.421-0.421h4.911
		c0.246,0,0.421,0.176,0.421,0.421v23.713c0,0.246-0.175,0.421-0.421,0.421h-5.508c-0.245,0-0.386-0.141-0.455-0.351l-3.578-12.032
		c-0.035-0.141-0.21-0.141-0.21,0.034l0.069,11.928c0,0.245-0.176,0.421-0.422,0.421h-4.91
		C435.739,49.562,435.564,49.387,435.564,49.141z"/>
	<path fill="#00FFFF" d="M466.927,29.988h-7.051c-0.104,0-0.175,0.07-0.175,0.175v4.42c0,0.105,0.069,0.176,0.175,0.176h3.859
		c0.246,0,0.421,0.175,0.421,0.421v4.174c0,0.246-0.175,0.42-0.421,0.42h-3.859c-0.104,0-0.175,0.07-0.175,0.176v4.455
		c0,0.105,0.069,0.175,0.175,0.175h7.051c0.246,0,0.422,0.176,0.422,0.421v4.14c0,0.246-0.176,0.421-0.422,0.421h-12.628
		c-0.246,0-0.421-0.176-0.421-0.421V25.428c0-0.246,0.175-0.421,0.421-0.421h12.628c0.246,0,0.422,0.176,0.422,0.421v4.14
		C467.348,29.812,467.173,29.988,466.927,29.988z"/>
	<path fill="#00FFFF" d="M473.522,49.176l-4.771-23.714c-0.069-0.315,0.07-0.456,0.352-0.456h5.157c0.244,0,0.421,0.105,0.455,0.386
		l1.578,11.541c0.035,0.14,0.176,0.14,0.211,0l1.577-11.541c0.036-0.281,0.211-0.386,0.457-0.386h4.104
		c0.246,0,0.421,0.105,0.456,0.386l1.755,11.541c0.034,0.14,0.175,0.14,0.175,0l1.438-11.541c0.036-0.281,0.177-0.386,0.422-0.386
		h5.051c0.281,0,0.422,0.176,0.387,0.456l-4.525,23.714c-0.035,0.281-0.211,0.386-0.456,0.386h-4.49
		c-0.245,0-0.422-0.105-0.456-0.386l-1.754-11.997c-0.035-0.141-0.21-0.141-0.21,0l-1.544,11.997
		c-0.036,0.281-0.177,0.386-0.422,0.386h-4.49C473.733,49.562,473.559,49.421,473.522,49.176z"/>
</g>
<g>
	<g>
		<path fill="#6600FF" d="M163.842,75.231h-33.545v29.383h-8.493V75.231H86.179v-7.978h35.625V48.189h-19.85
			c-2.687,5.287-5.547,9.967-8.581,13.693c-1.733-1.211-5.547-3.293-7.628-4.161C92.506,50.615,97.88,39,100.829,27.299l8.321,1.647
			c-1.041,3.899-2.254,7.714-3.728,11.354h16.383V25.219h8.493v15.082h28.604v7.889h-28.603v19.065h33.545L163.842,75.231
			L163.842,75.231z"/>
	</g>
	<g>
		<path fill="#6600FF" d="M250.684,85.544h-30.424V104.7h-8.321V85.544H172.5v-7.799h13.955V54.862h25.483V42.901h-19.85
			c-3.727,6.415-8.061,12.136-12.481,16.469c-1.561-1.387-5.027-3.987-7.021-5.2c7.975-6.848,14.909-17.854,18.896-29.384
			l8.146,2.167c-1.04,2.687-2.253,5.547-3.38,8.148h50.187v7.8h-26.176v11.962h24.183v7.54h-24.183v15.344h30.424V85.544
			L250.684,85.544z M211.938,77.745V62.402h-17.421v15.343H211.938z"/>
	</g>
	<g>
		<path fill="#6600FF" d="M301.985,77.138c-1.039,4.939-3.207,9.533-7.193,13.607c11.097,4.334,25.656,5.289,44.031,5.461
			c-1.473,1.906-2.947,5.287-3.381,7.975c-19.414-0.693-35.189-2.168-47.324-8.146c-5.635,3.553-13.521,6.5-24.098,8.754
			c-0.953-1.822-3.12-5.289-4.94-7.106c9.448-1.646,16.296-3.813,21.497-6.326c-3.899-2.947-7.194-6.676-10.055-11.185l7.021-2.771
			c2.688,3.897,5.895,7.02,9.706,9.535c3.295-2.947,5.115-6.242,6.154-9.797H268.44v-34.15h26.264v-6.24h-33.891v-7.281h74.977
			v7.281h-32.678v6.24h27.214v34.15h-28.341V77.138z M276.069,56.943h18.635v-7.367h-18.635V56.943z M294.532,70.55
			c0.172-1.387,0.172-2.773,0.172-4.248v-3.118h-18.635v7.366H294.532z M322.354,63.184h-19.242v3.206c0,1.473,0,2.773-0.174,4.16
			h19.416V63.184L322.354,63.184z M303.112,49.575v7.367h19.242v-7.367H303.112z"/>
	</g>
	<g>
		<path fill="#6600FF" d="M378.685,92.913c-1.82-2.168-5.373-5.721-8.58-8.842v20.369h-7.801V84.938
			c-3.814,5.721-8.408,10.922-12.828,14.303c-1.213-1.734-3.641-4.334-5.287-5.721c6.066-4.076,12.566-11.443,16.729-18.638h-14.733
			v-6.848h16.122v-7.799h-16.385v-6.85h9.018c-0.348-3.207-1.563-7.714-3.034-11.095l6.241-1.646
			c1.73,3.553,3.207,8.319,3.467,11.526l-4.16,1.214h14.906l-2.688-0.779c1.301-3.38,3.033-8.494,3.9-11.961l7.02,1.905
			c-1.645,3.814-3.117,7.889-4.594,10.835h10.143v6.85h-16.035v7.799h15.516v6.848h-15.516v1.646
			c3.209,2.342,11.182,8.58,13.176,10.313L378.685,92.913z M347.048,40.648v-6.676h15.256v-8.146h7.801v8.146h15.256v6.676H347.048z
			 M424.886,61.277h-9.273v42.817h-7.801V61.277h-11.186v0.954c0,12.829-1.559,30.855-13.693,42.816
			c-0.953-1.646-3.814-4.508-5.635-5.635c10.574-10.574,11.703-25.31,11.703-37.269v-29.99l5.547,1.646
			c8.406-1.994,17.424-4.768,22.797-7.541l6.5,5.808c-7.539,3.381-17.768,6.154-27.219,8.062v13.695h28.26V61.277z"/>
	</g>
</g>
<path fill="#00FFFF" d="M67.858,29.88c0-4.97-1.072-8.651-3.919-11.961c-3.913-4.235-10.331-6.626-20.307-6.626
	c-8.906,0-14.964,2.579-18.887,6.439c-3.911,3.498-5.7,8.283-5.7,12.701c0,4.604,1.427,8.834,4.632,11.961
	c3.919,3.865,10.687,6.441,20.662,6.441c10.327,0,16.387-2.393,19.948-6.258C66.788,39.264,67.858,34.847,67.858,29.88z"/>
<path fill="#6600FF" d="M65.002,110.522c1.086-2.576,1.451-5.338,1.451-8.279c0-3.129-0.727-5.889-1.813-8.465
	c-3.268-6.627-10.548-10.859-22.902-10.859c-13.088,0-19.994,4.42-22.901,10.859c-1.46,2.576-1.819,5.521-1.819,8.465
	c0,2.945,0.364,5.703,1.451,8.279c3.275,6.996,10.548,11.781,23.271,11.781C54.814,122.304,62.085,117.333,65.002,110.522z"/>
<path fill="#FF6600" d="M35.117,69.624c0.75-1.775,1.002-3.684,1.002-5.712c0-2.16-0.502-4.065-1.251-5.843
	c-2.254-4.573-7.28-7.493-15.807-7.493c-9.033,0-13.798,3.049-15.805,7.493C2.247,59.846,2,61.879,2,63.912
	c0,2.031,0.25,3.937,1.002,5.712c2.261,4.83,7.28,8.131,16.06,8.131C28.085,77.755,33.104,74.325,35.117,69.624z"/>
</svg>
