<?xml version="1.0" encoding="utf-8"?>
<!-- Generator: Adobe Illustrator 16.0.0, SVG Export Plug-In . SVG Version: 6.00 Build 0)  -->
<!DOCTYPE svg PUBLIC "-//W3C//DTD SVG 1.1//EN" "http://www.w3.org/Graphics/SVG/1.1/DTD/svg11.dtd">
<svg version="1.1" id="Layer_1" xmlns="http://www.w3.org/2000/svg" xmlns:xlink="http://www.w3.org/1999/xlink" x="0px" y="0px"
	 width="420.631px" height="276.665px" viewBox="76.252 107.699 420.631 276.665"
	 enable-background="new 76.252 107.699 420.631 276.665" xml:space="preserve">
<path fill="#FFFF33" d="M248.936,200.301c0-15.261-3.293-26.567-12.036-36.734c-12.021-13.007-31.73-20.351-62.37-20.351
	c-27.357,0-45.961,7.92-58.012,19.775c-12.011,10.742-17.505,25.442-17.505,39.014c0,14.137,4.383,27.129,14.229,36.734
	c12.037,11.871,32.825,19.787,63.46,19.787c31.72,0,50.329-7.347,61.271-19.222C245.651,229.126,248.936,215.56,248.936,200.301z"/>
<path fill="#99FF00" d="M417.779,319.028c3.334-7.91,4.458-16.393,4.458-25.428c0-9.611-2.234-18.087-5.57-26.001
	c-10.033-20.351-32.396-33.349-70.345-33.349c-40.197,0-61.407,13.57-70.337,33.349c-4.484,7.914-5.586,16.958-5.586,26.001
	s1.117,17.518,4.458,25.428c10.058,21.49,32.395,36.185,71.472,36.185C386.486,355.213,408.821,339.949,417.779,319.028z"/>
<path fill="#99FF00" d="M419.84,185.509c1.664-3.946,2.224-8.178,2.224-12.685c0-4.795-1.114-9.023-2.778-12.971
	c-5.005-10.152-16.161-16.636-35.092-16.636c-20.053,0-30.633,6.77-35.088,16.636c-2.237,3.948-2.787,8.459-2.787,12.971
	c0,4.511,0.557,8.739,2.224,12.685c5.018,10.72,16.161,18.051,35.654,18.051C404.229,203.56,415.371,195.945,419.84,185.509z"/>
<path fill="#25192B" d="M2864.637,1052.938"/>
<path fill="#25192B" d="M-240.839,347.371c0,24.355-3.854,44.959-9.625,61.822c-17.334,51.198-59.703,85.542-112.668,85.542
	c-52.002,0-94.371-32.469-112.663-85.542c-3.86-11.874-6.739-23.727-8.19-36.221c-0.96-8.113,2.893-12.491,8.665-12.491h75.114
	c5.305,0,8.187,3.119,10.116,8.125c0.479,2.49,1.442,4.981,2.892,8.096c5.292,11.878,13.479,17.484,24.077,17.484
	c10.116,0,17.811-6.864,23.113-16.253c4.335-8.104,6.75-18.099,6.75-28.083c0.476-10.607-1.44-20.607-5.299-29.34
	c-4.811-9.99-12.995-16.866-24.555-16.866c-7.699,0-16.367,3.125-22.628,11.868c-3.359,5.002-6.74,7.493-11.546,7.493h-77.554
	c-5.779,0-9.149-4.374-9.149-11.862V65.752c0-7.499,3.37-11.868,9.149-11.868h214.271c5.777,0,9.149,4.369,9.149,11.868v76.811
	c0,7.486-3.372,11.867-9.149,11.867h-129.051c-2.404,0-3.848,1.863-3.848,4.989v51.207c0,3.747,1.926,5.616,4.815,3.747
	c12.518-8.751,26.479-11.868,39.001-11.868c45.734,0,82.813,33.716,99.662,84.3C-244.211,304.909-240.839,325.515-240.839,347.371z"
	/>
<path fill="#25192B" d="M1082.094,378.667c0,24.355-3.854,44.959-9.622,61.822c-17.333,51.198-59.7,85.542-112.667,85.542
	c-52.001,0-94.377-32.469-112.67-85.542c-3.852-11.874-6.736-23.727-8.184-36.221c-0.962-8.113,2.888-12.491,8.666-12.491h75.112
	c5.294,0,8.188,3.119,10.116,8.125c0.479,2.49,1.438,4.981,2.885,8.096c5.299,11.878,13.485,17.484,24.081,17.484
	c10.112,0,17.806-6.864,23.111-16.253c4.333-8.104,6.751-18.099,6.751-28.083c0.474-10.607-1.445-20.607-5.302-29.34
	c-4.81-9.99-12.997-16.866-24.552-16.866c-7.709,0-16.371,3.125-22.629,11.868c-3.371,5.002-6.74,7.493-11.551,7.493h-77.553
	c-5.777,0-9.143-4.374-9.143-11.862V97.049c-0.004-7.499,3.362-11.868,9.143-11.868h214.268c5.785,0,9.146,4.369,9.146,11.868
	v76.811c0,7.486-3.361,11.867-9.146,11.867H933.32c-2.403,0-3.852,1.863-3.852,4.989v51.207c0,3.747,1.926,5.616,4.817,3.747
	c12.522-8.751,26.479-11.868,39.003-11.868c45.737,0,82.809,33.716,99.662,84.3C1078.724,336.206,1082.094,356.812,1082.094,378.667
	z"/>
</svg>
