<?xml version="1.0" encoding="utf-8"?>
<!-- Generator: Adobe Illustrator 16.0.0, SVG Export Plug-In . SVG Version: 6.00 Build 0)  -->
<!DOCTYPE svg PUBLIC "-//W3C//DTD SVG 1.1//EN" "http://www.w3.org/Graphics/SVG/1.1/DTD/svg11.dtd">
<svg version="1.1" id="Layer_1" xmlns="http://www.w3.org/2000/svg" xmlns:xlink="http://www.w3.org/1999/xlink" x="0px" y="0px"
	 width="420.631px" height="276.665px" viewBox="0 0 420.631 276.665" enable-background="new 0 0 420.631 276.665"
	 xml:space="preserve">
<path fill="#25192B" d="M2864.637,1052.938"/>
<polygon opacity="0.8" fill="#2C87C9" enable-background="new    " points="280.053,97.283 316.629,21.937 363.593,91.286 
	410.558,160.635 327.018,166.627 243.48,172.625 "/>
<polygon opacity="0.8" fill="#F1E226" enable-background="new    " points="123.955,139.214 135.867,5.76 245.487,82.803 
	355.103,159.848 233.572,216.257 112.044,272.665 "/>
<polygon opacity="0.8" fill="#DC1424" enable-background="new    " points="29.732,139.213 8.834,58.109 89.524,80.561 
	170.21,103.01 110.424,161.664 50.638,220.315 "/>
<polygon opacity="0.8" fill="#EF8E12" enable-background="new    " points="228.315,48.984 273.543,36.394 261.832,81.859 
	250.121,127.324 216.605,94.447 183.088,61.574 "/>
<polygon opacity="0.8" fill="#9A63A6" enable-background="new    " points="188.619,184.1 211.841,203.894 183.088,214.108 
	154.335,224.322 159.867,194.314 165.398,164.307 "/>
</svg>
