<?xml version="1.0" encoding="utf-8"?>
<!-- Generator: Adobe Illustrator 16.0.0, SVG Export Plug-In . SVG Version: 6.00 Build 0)  -->
<!DOCTYPE svg PUBLIC "-//W3C//DTD SVG 1.1//EN" "http://www.w3.org/Graphics/SVG/1.1/DTD/svg11.dtd">
<svg version="1.1" id="Layer_1" xmlns="http://www.w3.org/2000/svg" xmlns:xlink="http://www.w3.org/1999/xlink" x="0px" y="0px"
	 width="542.504px" height="129.834px" viewBox="0 0 542.504 129.834" enable-background="new 0 0 542.504 129.834"
	 xml:space="preserve">
<g>
	<path d="M113.96,63.587c3.73-5.593,5.728-12.593,5.987-20.987H93.679v64.868h-8.884c0.512-5.091,0.772-9.408,0.772-12.974V52.139
		c0-5.085-0.133-10.428-0.386-16.026h35.152c0-6.868-0.133-11.954-0.386-15.263c4.117,0.256,7.339,0.381,9.657,0.381
		c-1.292,3.309-1.932,8.27-1.932,14.882h36.312c-0.519,5.342-0.772,10.684-0.772,16.026v46.552c0,3.816-1.545,6.166-4.635,7.06
		c-3.091,0.889-7.34,1.717-12.748,2.48c-0.772-2.546-2.577-5.343-5.408-8.395c6.181,0,10.17-0.19,11.975-0.572
		c1.799-0.382,2.704-1.587,2.704-3.625V42.6h-27.813c0,4.579-0.386,9.033-1.159,13.355c2.318,1.783,6.434,4.9,12.361,9.349
		c5.921,4.453,10.17,7.954,12.748,10.493c-2.837,2.29-5.022,4.329-6.567,6.105c-4.382-5.086-11.335-11.447-20.86-19.079
		c-4.636,7.889-10.689,15.264-18.156,22.132c-3.09-2.539-6.054-4.197-8.885-4.961C104.496,74.652,110.223,69.185,113.96,63.587z"/>
	<path d="M225.406,58.245c6.953,5.854,13.84,10.302,20.667,13.355c6.82,3.053,14.099,5.217,21.826,6.487
		c-2.318,1.782-3.863,4.197-4.637,7.25c-4.895-1.271-9.789-2.921-14.679-4.961c0,15.013,0.127,24.421,0.387,28.237h-7.34v-5.343
		h-36.312v6.487h-7.339c0.253-3.31,0.386-13.099,0.386-29.382c-4.895,2.29-10.303,4.579-16.225,6.869
		c-1.032-2.033-2.704-4.197-5.021-6.487c11.33-2.54,21.18-7.06,29.551-13.546c8.366-6.487,13.454-12.271,15.259-17.362
		c2.571,1.526,5.021,2.802,7.339,3.816L225.406,58.245z M262.489,33.442c-0.26,2.29-0.386,4.71-0.386,7.25
		c0,2.545,0.126,4.96,0.386,7.25h-7.726v-9.158h-62.579v9.539h-7.726c0.253-2.796,0.386-5.342,0.386-7.631
		c0-2.54-0.133-4.96-0.386-7.25H262.489z M209.568,43.363c0.772,1.276,2.444,3.184,5.021,5.724
		c-9.53,6.362-17.516,10.941-23.95,13.737c-1.292-2.033-2.964-3.815-5.022-5.342C196.947,52.902,204.932,48.198,209.568,43.363z
		 M245.106,78.469c-7.726-3.054-15.584-8.265-23.563-15.646c-5.927,5.854-12.88,11.066-20.86,15.646H245.106z M241.63,97.547V84.191
		h-36.312v13.355H241.63z M221.929,18.941c2.831,3.565,5.148,7.125,6.953,10.685c-3.609,1.276-6.181,2.421-7.726,3.434
		c-0.26-1.013-2.451-4.322-6.567-9.921C216.647,22.125,219.092,20.725,221.929,18.941z M259.399,56.336
		c-1.805,2.039-3.35,4.072-4.636,6.105c-8.758-5.849-16.61-10.553-23.563-14.119c2.058-2.033,3.477-3.816,4.249-5.342
		C247.551,49.599,255.536,54.047,259.399,56.336z"/>
	<path d="M318.115,26.573c5.921,0,10.43-0.125,13.521-0.381v6.487c-3.091-0.25-8.372-0.382-15.839-0.382h-10.43
		c-0.519,3.053-1.545,7.763-3.09,14.119h23.178c-1.292,10.178-2.964,18.506-5.022,24.994c-2.063,6.486-4.768,12.085-8.111,16.789
		c-3.351,4.711-7.086,8.651-11.203,11.829c-4.122,3.178-8.885,6.547-14.292,10.112c-2.064-3.054-4.382-5.724-6.953-8.013
		c6.693-2.798,12.228-5.784,16.61-8.968c4.376-3.178,7.979-7.185,10.815-12.02c-1.545-1.271-3.542-2.922-5.987-4.961
		c-2.451-2.033-4.828-3.941-7.146-5.724l5.408-6.105c1.799,1.276,3.604,2.736,5.408,4.388c1.799,1.658,3.863,3.626,6.181,5.915
		c1.545-3.816,2.764-7.31,3.67-10.493c0.898-3.178,1.605-7.059,2.125-11.638h-16.998c-1.805,4.579-3.995,8.967-6.566,13.165
		c-2.578,4.197-5.541,7.822-8.885,10.875c-1.805-1.527-4.122-3.179-6.953-4.961c2.831-2.796,5.408-5.914,7.726-9.349
		c2.318-3.434,4.249-6.803,5.795-10.112c1.545-3.303,2.703-6.612,3.477-9.921c0.772-3.303,1.412-6.612,1.932-9.921h-6.954
		c-5.408,0-9.144,0.131-11.202,0.382v-6.487c2.059,0.256,5.921,0.381,11.589,0.381H318.115z M344.769,47.179v27.474
		c0,4.578,0.127,8.651,0.387,12.211h-9.271c0.514-3.56,0.772-7.633,0.772-12.211v-29c0-4.323-0.259-8.138-0.772-11.447h9.657
		C345.022,37.257,344.769,41.586,344.769,47.179z M364.084,34.968v64.105c0,3.304-0.966,5.593-2.897,6.869
		c-1.931,1.27-6.247,2.414-12.94,3.434c-0.772-3.815-2.064-7.125-3.863-9.921c5.148,0.256,8.432,0.256,9.851,0
		c1.412-0.25,2.125-1.777,2.125-4.579V34.968c0-4.066-0.133-8.138-0.387-12.21h8.885C364.338,26.573,364.084,30.646,364.084,34.968z
		"/>
	<path d="M417.006,31.534c0-3.303-0.132-6.994-0.386-11.066h8.885c-0.52,3.052-0.773,6.743-0.773,11.066h23.565
		c3.603,0,7.466-0.126,11.588-0.382v7.25c-4.122-0.507-7.858-0.763-11.202-0.763h-23.951v7.25h18.929
		c4.117,0,8.112-0.125,11.976-0.382v6.869c-3.609-0.25-7.599-0.382-11.976-0.382h-18.929v8.395h27.428
		c4.636,0,9.012-0.125,13.134-0.381v7.25c-3.863-0.507-8.112-0.763-12.748-0.763h-33.606c-1.805,2.289-4.636,5.473-8.499,9.538
		v22.133c4.636-2.54,9.784-5.724,15.451-9.54c0.514,3.053,1.412,5.724,2.705,8.014c-4.896,2.289-9.338,4.704-13.327,7.249
		c-3.996,2.54-7.021,4.705-9.078,6.487c-2.064-2.546-3.863-4.835-5.408-6.868c1.799-1.276,2.571-4.198,2.317-8.776V81.521
		c-3.09,2.546-6.313,4.901-9.657,7.06c-3.35,2.164-6.827,4.263-10.43,6.296c-1.546-2.289-3.477-4.447-5.794-6.487
		c6.181-2.539,12.294-5.973,18.349-10.302c6.047-4.323,10.623-8.521,13.713-12.592h-18.155c-4.896,0-9.658,0.256-14.293,0.763v-7.25
		c3.09,0.256,8.238,0.381,15.452,0.381h24.722v-8.395h-17.383c-4.382,0-7.985,0.132-10.816,0.382v-6.869
		c4.117,0.257,7.727,0.382,10.816,0.382h17.383v-7.25h-19.313c-4.896,0-9.404,0.256-13.521,0.763v-7.632
		c3.862,0.513,9.011,0.764,15.451,0.764H417.006z M435.549,83.81c5.148-4.065,9.783-8.9,13.906-14.499
		c2.317,2.289,5.021,4.453,8.112,6.486c-2.317,0.764-4.896,2.355-7.726,4.771c-2.838,2.42-5.928,5.15-9.271,8.203
		c2.571,2.546,6.434,4.52,11.589,5.915c5.148,1.401,9.91,2.229,14.293,2.48c-2.317,2.796-3.736,5.849-4.25,9.158
		c-13.133-3.054-22.73-7.757-28.778-14.119c-6.054-6.355-10.497-13.736-13.327-22.132l6.181-2.671
		C428.076,72.744,431.167,78.218,435.549,83.81z"/>
</g>
<path fill="#628F33" d="M25.145,34.057c9.724,0,18.153,5.523,22.336,13.601c1.791-3.458,2.809-7.382,2.809-11.545
	c0-13.888-11.258-25.146-25.146-25.146S0,22.225,0,36.112c0,4.164,1.018,8.087,2.809,11.545
	C6.992,39.58,15.421,34.057,25.145,34.057z"/>
<path fill="#B8A212" d="M47.482,53.372c-4.183-8.077-12.612-13.601-22.336-13.601S6.992,45.295,2.809,53.372
	C1.018,56.831,0,60.753,0,64.917c0,4.164,1.018,8.086,2.809,11.545c4.183-8.076,12.612-13.6,22.336-13.6s18.153,5.524,22.336,13.6
	c1.791-3.459,2.809-7.381,2.809-11.545C50.291,60.753,49.273,56.831,47.482,53.372z"/>
<path fill="#4375BA" d="M25.145,68.576c-9.724,0-18.153,5.524-22.336,13.601C1.018,85.635,0,89.559,0,93.721
	c0,13.888,11.258,25.146,25.146,25.146s25.146-11.259,25.146-25.146c0-4.162-1.018-8.086-2.809-11.544
	C43.299,74.101,34.869,68.576,25.145,68.576z"/>
</svg>
