<?xml version="1.0" encoding="utf-8"?>
<!-- Generator: Adobe Illustrator 16.0.0, SVG Export Plug-In . SVG Version: 6.00 Build 0)  -->
<!DOCTYPE svg PUBLIC "-//W3C//DTD SVG 1.1//EN" "http://www.w3.org/Graphics/SVG/1.1/DTD/svg11.dtd">
<svg version="1.1" id="Layer_1" xmlns="http://www.w3.org/2000/svg" xmlns:xlink="http://www.w3.org/1999/xlink" x="0px" y="0px"
	 width="542.504px" height="129.834px" viewBox="0 0 542.504 129.834" enable-background="new 0 0 542.504 129.834"
	 xml:space="preserve">
<path fill="#FFFFFF" stroke="#000000" stroke-width="2" stroke-miterlimit="10" d="M427.239,80.944
	c0,18.697-15.153,33.854-33.854,33.854H33.854C15.156,114.798,0,99.644,0,80.944V52.803c0-18.696,15.157-33.854,33.854-33.854
	h359.532c18.698,0,33.854,15.157,33.854,33.854L427.239,80.944L427.239,80.944z"/>
<g>
	<path fill="#0E1440" d="M88.779,42.917c0-3.113-0.108-6.135-0.317-9.057h6.337c-0.213,2.73-0.317,5.747-0.317,9.057h19.646
		c2.957,0,6.547-0.096,10.772-0.291v5.549c-4.227-0.191-7.816-0.291-10.772-0.291h-11.406c2.321,3.117,5.806,5.842,10.456,8.18
		c4.645,2.336,9.927,4.189,15.844,5.55c-2.115,1.562-3.595,3.504-4.438,5.842c-6.551-2.141-12.096-4.769-16.636-7.886
		c-4.544-3.113-8.396-7.014-11.563-11.686H94.48V63.95h19.962c-0.211,3.506-0.315,7.404-0.315,11.684
		c0,4.092,0.104,8.184,0.315,12.273H69.449c0.208-3.699,0.315-7.691,0.315-11.979c0-4.479-0.106-8.475-0.315-11.979
		c-2.748,1.561-6.021,3.213-9.822,4.967c-1.27-2.142-2.749-3.895-4.438-5.26c4.646-0.972,9.293-2.921,13.941-5.843
		c4.644-2.92,8.343-6.229,11.09-9.932h-9.188c-3.802,0-7.815,0.1-12.04,0.291v-5.55c4.225,0.197,8.238,0.292,12.04,0.292h17.745
		L88.779,42.917L88.779,42.917z M116.028,94.044c3.59,0,7.075-0.098,10.457-0.293v5.258c-8.03-0.195-13.626-0.291-16.794-0.291
		H69.449c-3.804,0-7.604,0.096-11.407,0.291v-5.258c4.011,0.195,7.813,0.293,11.407,0.293H116.028z M88.779,63.952V47.884h-1.584
		c-2.326,3.314-4.861,6.235-7.604,8.765c-2.748,2.534-6.021,4.966-9.823,7.303H88.779L88.779,63.952z M108.423,73.593v-4.967H75.469
		v4.967H108.423z M108.423,83.235v-5.262H75.469v5.262H108.423z"/>
	<path fill="#0E1440" d="M190.49,39.849c-5.496,0.488-11.2,0.832-17.109,1.022c-0.427,2.146-0.849,4.091-1.271,5.843h17.744
		c3.378,0,7.288-0.097,11.725-0.293v4.967c-4.437-0.192-8.347-0.293-11.725-0.293h-19.011c-0.635,1.752-1.481,3.607-2.536,5.551
		h27.566c4.856,0,9.609-0.192,14.26-0.584v5.258c-5.283-0.191-10.035-0.291-14.26-0.291h-29.15
		c-1.479,2.337-2.748,4.089-3.802,5.257h38.022c-0.213,3.313-0.314,6.916-0.314,10.811v13.438c0,3.118,0.104,6.813,0.314,11.104
		h-6.338v-4.091h-33.586v4.091h-6.337c0.208-3.507,0.315-6.916,0.315-10.226V73.886c-3.382,3.506-8.237,7.207-14.575,11.102
		c-1.693-2.141-3.382-3.797-5.069-4.969c4.644-1.94,9.239-4.674,13.783-8.178c4.54-3.506,8.08-7.107,10.615-10.809h-12.04
		c-3.804,0-7.397,0.099-10.773,0.291v-4.966c3.588,0.195,7.18,0.292,10.773,0.292h14.575c0.842-1.753,1.583-3.601,2.218-5.552
		h-8.238c-3.169,0-6.548,0.102-10.139,0.293v-4.967c3.591,0.196,6.97,0.293,10.139,0.293h9.506c0.42-2.142,0.738-3.895,0.95-5.259
		c-2.748,0-6.074,0.101-9.98,0.292c-3.911,0.196-8.188,0.489-12.833,0.877c-0.635-1.557-1.479-3.406-2.535-5.551
		c5.911,0.195,15.26,0,28.042-0.584c12.776-0.585,23.289-1.752,31.527-3.506c1.27,1.949,2.742,3.992,4.437,6.135
		C200.946,39.121,195.981,39.367,190.49,39.849z M194.609,75.056v-4.383h-33.586v4.383H194.609z M194.609,84.11v-4.676h-33.586
		v4.676H194.609z M194.609,92.874V88.2h-33.586v4.674H194.609z"/>
	<path fill="#0E1440" d="M245.781,66.288c3.063-4.281,4.698-9.639,4.912-16.066h-21.547v49.664h-7.29
		c0.423-3.898,0.637-7.205,0.637-9.934V57.526c0-3.894-0.107-7.983-0.314-12.271h28.833c0-5.258-0.107-9.152-0.316-11.686
		c3.377,0.195,6.021,0.292,7.921,0.292c-1.059,2.534-1.583,6.332-1.583,11.394h29.782c-0.424,4.09-0.632,8.18-0.632,12.271v35.641
		c0,2.922-1.269,4.721-3.806,5.404c-2.532,0.68-6.021,1.313-10.454,1.897c-0.636-1.948-2.114-4.09-4.438-6.428
		c5.07,0,8.347-0.146,9.822-0.438c1.479-0.295,2.221-1.217,2.221-2.774V50.222h-22.813c0,3.506-0.315,6.916-0.948,10.224
		c1.898,1.366,5.276,3.752,10.139,7.157c4.856,3.41,8.343,6.09,10.456,8.033c-2.325,1.756-4.118,3.316-5.388,4.676
		c-3.593-3.895-9.298-8.764-17.107-14.604c-3.804,6.037-8.771,11.687-14.895,16.942c-2.535-1.944-4.965-3.215-7.287-3.799
		C238.021,74.761,242.717,70.577,245.781,66.288z"/>
	<path fill="#0E1440" d="M337.196,62.2c5.704,4.48,11.354,7.887,16.953,10.223c5.594,2.338,11.564,3.996,17.9,4.969
		c-1.898,1.363-3.168,3.213-3.803,5.551c-4.014-0.973-8.026-2.237-12.039-3.801c0,11.496,0.104,18.699,0.316,21.621h-6.021v-4.092
		h-29.785v4.967h-6.021c0.207-2.533,0.317-10.027,0.317-22.496c-4.017,1.754-8.451,3.508-13.309,5.262
		c-0.85-1.557-2.219-3.215-4.119-4.969c9.292-1.942,17.373-5.403,24.235-10.367c6.863-4.968,11.04-9.396,12.52-13.293
		c2.109,1.168,4.118,2.145,6.021,2.921L337.196,62.2z M367.615,43.21c-0.213,1.752-0.315,3.606-0.315,5.551
		c0,1.949,0.104,3.797,0.315,5.551h-6.339V47.3h-51.33v7.305h-6.336c0.207-2.143,0.315-4.09,0.315-5.842
		c0-1.945-0.108-3.799-0.315-5.551L367.615,43.21L367.615,43.21z M324.203,50.804c0.636,0.979,2.006,2.438,4.12,4.383
		c-7.815,4.871-14.369,8.375-19.646,10.519c-1.062-1.559-2.432-2.922-4.118-4.091C313.855,58.11,320.401,54.507,324.203,50.804z
		 M353.357,77.683c-6.336-2.338-12.784-6.326-19.329-11.977c-4.862,4.48-10.563,8.473-17.108,11.977H353.357z M350.503,92.29V82.067
		h-29.784V92.29H350.503L350.503,92.29z M334.344,32.108c2.321,2.729,4.226,5.454,5.704,8.18c-2.961,0.978-5.068,1.854-6.335,2.63
		c-0.216-0.775-2.014-3.31-5.389-7.596C330.011,34.546,332.017,33.474,334.344,32.108z M365.078,60.739
		c-1.479,1.562-2.748,3.12-3.804,4.674c-7.184-4.478-13.623-8.08-19.327-10.81c1.688-1.557,2.854-2.92,3.486-4.09
		C355.36,55.58,361.91,58.986,365.078,60.739z"/>
</g>
</svg>
