<?xml version="1.0" encoding="utf-8"?>
<!-- Generator: Adobe Illustrator 16.0.0, SVG Export Plug-In . SVG Version: 6.00 Build 0)  -->
<!DOCTYPE svg PUBLIC "-//W3C//DTD SVG 1.1//EN" "http://www.w3.org/Graphics/SVG/1.1/DTD/svg11.dtd">
<svg version="1.1" id="Layer_1" xmlns="http://www.w3.org/2000/svg" xmlns:xlink="http://www.w3.org/1999/xlink" x="0px" y="0px"
	 width="542.504px" height="129.834px" viewBox="0 0 542.504 129.834" enable-background="new 0 0 542.504 129.834"
	 xml:space="preserve">
<g>
	<path fill="#FF6600" d="M440.564,55.693V25.542c0-0.313,0.224-0.536,0.536-0.536h6.957c0.313,0,0.492,0.18,0.581,0.445
		l4.549,15.209c0.046,0.224,0.267,0.224,0.267,0l-0.045-15.119c0-0.313,0.224-0.536,0.535-0.536h6.245
		c0.313,0,0.535,0.225,0.535,0.536v30.151c0,0.313-0.223,0.535-0.535,0.535h-7.003c-0.313,0-0.491-0.18-0.579-0.446l-4.55-15.298
		c-0.044-0.179-0.267-0.179-0.267,0.043l0.088,15.167c0,0.311-0.225,0.535-0.537,0.535H441.1
		C440.787,56.229,440.564,56.006,440.564,55.693z"/>
	<path fill="#FF6600" d="M480.441,31.34h-8.965c-0.132,0-0.223,0.089-0.223,0.223v5.62c0,0.133,0.087,0.223,0.223,0.223h4.906
		c0.313,0,0.535,0.223,0.535,0.536v5.307c0,0.313-0.222,0.534-0.535,0.534h-4.906c-0.132,0-0.223,0.089-0.223,0.224v5.665
		c0,0.133,0.087,0.222,0.223,0.222h8.965c0.313,0,0.536,0.224,0.536,0.535v5.264c0,0.313-0.224,0.535-0.536,0.535h-16.057
		c-0.313,0-0.535-0.224-0.535-0.535V25.542c0-0.313,0.223-0.536,0.535-0.536h16.057c0.313,0,0.536,0.225,0.536,0.536v5.264
		C480.977,31.117,480.754,31.34,480.441,31.34z"/>
	<path fill="#FF6600" d="M488.827,55.737l-6.066-30.151c-0.089-0.401,0.089-0.58,0.446-0.58h6.558c0.311,0,0.535,0.133,0.579,0.491
		l2.006,14.674c0.045,0.178,0.224,0.178,0.269,0l2.005-14.674c0.047-0.358,0.269-0.491,0.582-0.491h5.217
		c0.313,0,0.535,0.133,0.58,0.491l2.231,14.674c0.043,0.178,0.224,0.178,0.224,0l1.827-14.674c0.046-0.358,0.226-0.491,0.537-0.491
		h6.423c0.356,0,0.536,0.224,0.492,0.58l-5.754,30.151c-0.045,0.358-0.269,0.491-0.58,0.491h-5.708c-0.312,0-0.538-0.133-0.58-0.491
		l-2.231-15.253c-0.043-0.179-0.267-0.179-0.267,0l-1.964,15.253c-0.044,0.358-0.225,0.491-0.536,0.491h-5.709
		C489.096,56.229,488.873,56.049,488.827,55.737z"/>
</g>
<g>
	<path fill="#00FFFF" d="M67.858,29.88c0-4.97-1.072-8.651-3.919-11.961c-3.913-4.235-10.331-6.626-20.307-6.626
		c-8.906,0-14.964,2.579-18.887,6.439c-3.911,3.498-5.7,8.283-5.7,12.701c0,4.604,1.427,8.834,4.632,11.961
		c3.919,3.865,10.687,6.441,20.662,6.441c10.327,0,16.387-2.393,19.948-6.258C66.788,39.264,67.858,34.847,67.858,29.88z"/>
	<path fill="#6600FF" d="M65.002,110.522c1.086-2.576,1.451-5.338,1.451-8.279c0-3.129-0.727-5.889-1.813-8.465
		c-3.268-6.627-10.548-10.859-22.902-10.859c-13.088,0-19.994,4.42-22.901,10.859c-1.46,2.576-1.819,5.521-1.819,8.465
		c0,2.945,0.364,5.703,1.451,8.279c3.275,6.996,10.548,11.78,23.271,11.78C54.814,122.304,62.085,117.333,65.002,110.522z"/>
	<path fill="#FF6600" d="M35.117,69.624c0.75-1.775,1.002-3.684,1.002-5.712c0-2.16-0.502-4.065-1.251-5.843
		c-2.254-4.573-7.28-7.493-15.807-7.493c-9.033,0-13.798,3.049-15.805,7.493C2.247,59.846,2,61.879,2,63.912
		c0,2.03,0.25,3.937,1.002,5.712c2.261,4.83,7.28,8.131,16.06,8.131C28.085,77.755,33.104,74.325,35.117,69.624z"/>
</g>
<g>
	<path d="M96.791,95.026V66.438c-2.952,0-6.014,0.116-9.189,0.341v-5.787c3.175,0.229,6.349,0.341,9.53,0.341h53.096
		c4.083,0,8.051-0.112,11.911-0.341v5.787c-3.86-0.225-7.828-0.341-11.911-0.341h-26.889v24.165l4.765-1.362
		c0,2.044,0.111,3.745,0.34,5.105c-1.819,0.458-3.52,0.799-5.105,1.022c0,4.084,0.111,8.052,0.34,11.912h-6.466
		c0.223-3.86,0.34-7.488,0.34-10.893c-2.499,0.457-6.186,1.191-11.062,2.212c-4.882,1.022-10.158,2.214-15.827,3.574
		c-0.681-2.494-1.479-4.535-2.383-6.126C90.096,95.824,92.93,95.483,96.791,95.026z M150.908,40.91v6.127
		c0,2.499,0.111,5.333,0.34,8.509H99.174c0.223-3.175,0.34-6.01,0.34-8.509V40.91c0-2.494-0.117-5.217-0.34-8.168h52.074
		C151.02,35.693,150.908,38.417,150.908,40.91z M117.553,72.223v-5.785h-14.976v5.785H117.553z M117.553,82.775v-5.787h-14.976
		v5.787H117.553z M117.553,91.964V87.2h-14.976v6.806L117.553,91.964z M144.44,41.932v-4.765h-38.8v4.765H144.44z M144.44,51.121
		v-4.424h-38.8v4.424H144.44z M126.742,71.883c4.084,0.228,7.829,0.34,11.232,0.34h17.017c-2.5,9.53-5.446,16.907-8.849,22.123
		c5.668,3.632,11.114,5.898,16.336,6.807c-2.042,1.587-3.291,3.405-3.743,5.447c-5.675-1.818-11.009-4.766-15.997-8.851
		c-2.952,3.176-6.924,6.467-11.913,9.871c-0.909-1.362-2.5-2.722-4.764-4.084c4.764-1.592,8.849-4.425,12.252-8.51
		c-3.862-3.854-6.808-9.869-8.85-18.038h-2.723V71.883z M141.719,91.284c2.722-3.857,4.764-8.621,6.126-14.296h-12.933
		C135.815,82.433,138.085,87.2,141.719,91.284z"/>
	<path d="M184.943,91.453c-1.818,2.383-4.425,5.732-7.829,10.041c-1.589-1.59-3.292-2.947-5.105-4.085
		c4.766-5.216,8.509-10.662,11.233-16.337c2.265,1.818,4.425,3.294,6.467,4.424C188.347,87.087,186.757,89.069,184.943,91.453z
		 M204.003,58.269c3.856,0,7.829-0.112,11.913-0.341v6.808c-3.861-0.224-9.647-0.34-17.358-0.34v8.508
		c7.03,0,12.592-0.112,16.677-0.34v6.807c-4.085-0.224-9.647-0.341-16.677-0.341v20.763c0,3.403-1.08,5.669-3.234,6.808
		c-2.159,1.133-4.935,1.7-8.339,1.7c-0.909-2.721-2.042-5.223-3.402-7.486c3.174,0.223,5.387,0.223,6.635,0
		c1.246-0.229,1.873-1.245,1.873-3.064v-18.72c-7.265,0-12.934,0.117-17.017,0.341v-6.807c4.307,0.228,9.98,0.34,17.017,0.34v-8.508
		c-8.398,0-14.636,0.117-18.72,0.34v-6.808c4.084,0.229,7.94,0.341,11.572,0.341h12.934c1.813-5.445,3.175-9.642,4.084-12.593
		c1.814,0.457,4.308,1.138,7.488,2.042C207.859,48.627,206.045,52.142,204.003,58.269z M199.919,37.848
		c5.216,0,10.093-0.112,14.635-0.34v6.807c-4.765-0.224-8.625-0.341-11.572-0.341h-16.337c-3.86,0-7.605,0.117-11.231,0.341v-6.807
		c3.855,0.229,7.601,0.34,11.231,0.34h6.127c-0.458-2.495-1.138-5.106-2.042-7.829c2.266-0.681,4.648-1.361,7.147-2.042
		C199.01,32.742,199.69,36.034,199.919,37.848z M190.39,55.546c-2.043,0.457-3.973,1.138-5.787,2.042
		c-1.137-3.403-2.382-6.467-3.744-9.189c1.585-0.904,3.404-1.702,5.445-2.382C187.889,49.195,189.251,52.371,190.39,55.546z
		 M213.533,93.326c-2.271,1.137-4.084,2.609-5.446,4.423c-1.818-4.084-4.201-8.05-7.147-11.911c1.585-1.362,3.287-2.607,5.105-3.745
		C208.769,85.726,211.262,89.47,213.533,93.326z M227.147,38.528v17.357h17.698c2.494,0,5.106-0.111,7.829-0.34v6.466
		c-3.18-0.223-5.903-0.339-8.168-0.339v35.056c0,3.856,0.112,7.939,0.34,12.253h-7.147c0.224-4.313,0.341-8.285,0.341-11.912V61.673
		h-10.892c0,5.675-0.229,11.118-0.681,16.336c-0.458,5.222-1.42,10.382-2.893,15.487c-1.479,5.104-3.691,10.38-6.637,15.826
		c-2.271-1.361-4.542-2.5-6.808-3.403c3.627-5.223,6.18-10.723,7.658-16.508c1.473-5.786,2.324-10.832,2.553-15.146
		c0.224-4.306,0.34-10.773,0.34-19.399c0-8.85-0.116-15.88-0.34-21.102c10.211-0.452,19.4-2.042,27.569-4.765
		c1.813,3.632,3.286,6.125,4.424,7.487C248.93,36.486,240.533,37.167,227.147,38.528z"/>
	<path d="M326.53,35.124c2.042,0,4.877-0.111,8.508-0.34v6.126c-2.95-0.223-5.784-0.34-8.508-0.34h-23.145v7.148h24.847
		c-0.229,3.86-0.34,9.078-0.34,15.657c0,6.354,0.111,11.46,0.34,15.316h-25.867c-0.681,4.764-2.27,9.188-4.765,13.273
		c3.402,2.042,8.339,3.86,14.806,5.445c6.466,1.59,11.455,2.495,14.975,2.723c3.516,0.224,6.978,0.341,10.382,0.341
		c-1.362,1.133-2.5,3.515-3.404,7.147c-6.126-0.458-12.933-1.53-20.422-3.234c-7.487-1.701-14.182-4.142-20.08-7.316
		c-2.271,2.042-5.615,4.138-10.041,6.296c-4.424,2.153-10.949,3.915-19.569,5.277c-0.91-2.502-2.042-4.655-3.404-6.469
		c6.578-0.229,12.307-1.19,17.188-2.894c4.878-1.701,8.451-3.573,10.721-5.615c-4.313-2.946-8.849-6.69-13.613-11.232
		c1.361-0.903,2.725-2.152,4.085-3.742h-8.17c0.225-4.308,0.342-9.642,0.342-15.997c0-6.579-0.117-11.573-0.342-14.976h25.868V40.57
		h-21.103c-3.631,0-7.487,0.118-11.571,0.34v-6.126c4.084,0.229,7.828,0.34,11.231,0.34H326.53z M296.92,59.97v-7.147H278.2v7.147
		H296.92z M296.579,72.903c0.224-2.494,0.341-4.987,0.341-7.487H278.2v7.487H296.579z M280.243,78.69
		c4.083,4.313,8.167,7.716,12.251,10.211c1.814-3.405,2.947-6.809,3.405-10.211H280.243z M321.085,72.903v-7.487h-17.699
		c0,1.591-0.116,4.084-0.339,7.487H321.085z M321.085,59.97v-7.147h-17.699v7.147H321.085z"/>
	<path d="M359.204,91.453c-1.818,2.383-4.425,5.732-7.828,10.041c-1.59-1.59-3.292-2.947-5.106-4.085
		c4.767-5.216,8.51-10.662,11.233-16.337c2.266,1.818,4.425,3.294,6.466,4.424C362.608,87.087,361.018,89.069,359.204,91.453z
		 M378.266,58.269c3.854,0,7.827-0.112,11.91-0.341v6.808c-3.859-0.224-9.646-0.34-17.357-0.34v8.508
		c7.031,0,12.594-0.112,16.678-0.34v6.807c-4.084-0.224-9.646-0.341-16.678-0.341v20.763c0,3.403-1.079,5.669-3.233,6.808
		c-2.159,1.133-4.935,1.7-8.338,1.7c-0.91-2.721-2.043-5.223-3.404-7.486c3.175,0.223,5.387,0.223,6.638,0
		c1.243-0.229,1.872-1.245,1.872-3.064v-18.72c-7.266,0-12.935,0.117-17.018,0.341v-6.807c4.306,0.228,9.981,0.34,17.018,0.34
		v-8.508c-8.398,0-14.637,0.117-18.721,0.34v-6.808c4.084,0.229,7.94,0.341,11.572,0.341h12.932
		c1.815-5.445,3.177-9.642,4.085-12.593c1.814,0.457,4.309,1.138,7.488,2.042C382.12,48.627,380.307,52.142,378.266,58.269z
		 M374.18,37.848c5.218,0,10.094-0.112,14.634-0.34v6.807c-4.764-0.224-8.626-0.341-11.569-0.341h-16.338
		c-3.861,0-7.606,0.117-11.231,0.341v-6.807c3.854,0.229,7.6,0.34,11.231,0.34h6.127c-0.458-2.495-1.139-5.106-2.043-7.829
		c2.266-0.681,4.649-1.361,7.146-2.042C373.271,32.742,373.951,36.034,374.18,37.848z M364.65,55.546
		c-2.042,0.457-3.974,1.138-5.787,2.042c-1.138-3.403-2.382-6.467-3.744-9.189c1.586-0.904,3.405-1.702,5.447-2.382
		C362.15,49.195,363.513,52.371,364.65,55.546z M387.794,93.326c-2.271,1.137-4.085,2.609-5.445,4.423
		c-1.819-4.084-4.201-8.05-7.147-11.911c1.585-1.362,3.288-2.607,5.105-3.745C383.03,85.726,385.523,89.47,387.794,93.326z
		 M401.408,38.528v17.357h17.698c2.495,0,5.104-0.111,7.828-0.34v6.466c-3.181-0.223-5.902-0.339-8.169-0.339v35.056
		c0,3.856,0.112,7.939,0.341,12.253h-7.147c0.224-4.313,0.341-8.285,0.341-11.912V61.673h-10.892c0,5.675-0.229,11.118-0.681,16.336
		c-0.457,5.222-1.42,10.382-2.892,15.487c-1.479,5.104-3.69,10.38-6.638,15.826c-2.272-1.361-4.544-2.5-6.808-3.403
		c3.626-5.223,6.18-10.723,7.659-16.508c1.472-5.786,2.322-10.832,2.553-15.146c0.224-4.306,0.339-10.773,0.339-19.399
		c0-8.85-0.115-15.88-0.339-21.102c10.21-0.452,19.399-2.042,27.568-4.765c1.813,3.632,3.286,6.125,4.424,7.487
		C423.19,36.486,414.795,37.167,401.408,38.528z"/>
</g>
</svg>
