<?xml version="1.0" encoding="utf-8"?>
<!-- Generator: Adobe Illustrator 16.0.0, SVG Export Plug-In . SVG Version: 6.00 Build 0)  -->
<!DOCTYPE svg PUBLIC "-//W3C//DTD SVG 1.1//EN" "http://www.w3.org/Graphics/SVG/1.1/DTD/svg11.dtd">
<svg version="1.1" id="Layer_1" xmlns="http://www.w3.org/2000/svg" xmlns:xlink="http://www.w3.org/1999/xlink" x="0px" y="0px"
	 width="637.333px" height="276.665px" viewBox="-32.167 107.699 637.333 276.665"
	 enable-background="new -32.167 107.699 637.333 276.665" xml:space="preserve">
<path fill="#25192B" d="M2864.637,1052.938"/>
<ellipse fill="#FFCC00" cx="10.473" cy="270.379" rx="36.364" ry="33.331"/>
<ellipse fill="#669966" cx="89.234" cy="258.379" rx="36.364" ry="33.331"/>
<path fill="#FF6633" d="M167.995,237.048c20.084,0,36.364,14.923,36.364,33.332c0,18.407-16.279,33.33-36.364,33.33
	c-20.081,0-36.363-14.923-36.363-33.33C131.632,251.971,147.914,237.048,167.995,237.048z"/>
<path fill="#3333FF" d="M246.756,225.048c20.085,0,36.365,14.923,36.365,33.332c0,18.407-16.279,33.33-36.364,33.33
	c-20.081,0-36.363-14.923-36.363-33.33C210.393,239.971,226.675,225.048,246.756,225.048z"/>
<ellipse fill="#FF66CC" cx="325.518" cy="270.379" rx="36.364" ry="33.331"/>
<ellipse fill="#FFFF00" cx="404.279" cy="258.379" rx="36.364" ry="33.331"/>
<path fill="#009933" d="M483.041,237.048c20.084,0,36.364,14.923,36.364,33.332c0,18.407-16.279,33.33-36.364,33.33
	c-20.081,0-36.363-14.923-36.363-33.33C446.677,251.971,462.959,237.048,483.041,237.048z"/>
<path fill="#33FFFF" d="M561.801,225.048c20.085,0,36.366,14.923,36.366,33.332c0,18.407-16.28,33.33-36.365,33.33
	c-20.081,0-36.363-14.923-36.363-33.33C525.438,239.971,541.721,225.048,561.801,225.048z"/>
</svg>
