<?xml version="1.0" encoding="utf-8"?>
<!-- Generator: Adobe Illustrator 16.0.0, SVG Export Plug-In . SVG Version: 6.00 Build 0)  -->
<!DOCTYPE svg PUBLIC "-//W3C//DTD SVG 1.1//EN" "http://www.w3.org/Graphics/SVG/1.1/DTD/svg11.dtd">
<svg version="1.1" id="Layer_1" xmlns="http://www.w3.org/2000/svg" xmlns:xlink="http://www.w3.org/1999/xlink" x="0px" y="0px"
	 width="542.504px" height="129.834px" viewBox="0 0 542.504 129.834" enable-background="new 0 0 542.504 129.834"
	 xml:space="preserve">
<path fill="#333333" d="M427.239,78.563c0,18.698-15.155,33.854-33.854,33.854H33.854C15.156,112.417,0,97.262,0,78.563V50.422
	c0-18.696,15.157-33.854,33.854-33.854h359.532c18.698,0,33.854,15.157,33.854,33.854V78.563z"/>
<path fill="none" stroke="#99CCCC" stroke-width="9" stroke-miterlimit="10" d="M519.201-158.28
	c0,25.584-24.039,46.322-53.693,46.322H75.302c-29.654,0-53.693-20.738-53.693-46.322v-9.979c0-25.585,24.039-46.324,53.693-46.324
	h390.206c29.654,0,53.693,20.739,53.693,46.324V-158.28z"/>
<g>
	<path fill="#FF0099" d="M88.265,40.858c0-3.114-0.108-6.135-0.317-9.057h6.337c-0.214,2.731-0.318,5.747-0.318,9.057h19.646
		c2.956,0,6.545-0.096,10.772-0.292v5.55c-4.227-0.191-7.817-0.293-10.772-0.293h-11.408c2.322,3.118,5.807,5.843,10.457,8.181
		c4.644,2.335,9.926,4.189,15.843,5.55c-2.115,1.562-3.594,3.505-4.436,5.842c-6.55-2.141-12.094-4.77-16.634-7.887
		c-4.545-3.113-8.397-7.012-11.566-11.687h-1.902v16.068h19.964c-0.213,3.505-0.317,7.403-0.317,11.687
		c0,4.089,0.104,8.179,0.317,12.27H68.937c0.208-3.696,0.316-7.692,0.316-11.979c0-4.478-0.108-8.473-0.316-11.978
		c-2.748,1.561-6.021,3.214-9.823,4.968c-1.268-2.142-2.749-3.895-4.437-5.259c4.645-0.973,9.294-2.923,13.943-5.842
		c4.644-2.923,8.342-6.231,11.09-9.935h-9.188c-3.803,0-7.818,0.101-12.042,0.293v-5.55c4.223,0.196,8.238,0.293,12.042,0.293
		L88.265,40.858L88.265,40.858z M115.515,91.984c3.589,0,7.075-0.097,10.457-0.293v5.258c-8.031-0.196-13.625-0.291-16.795-0.291
		h-40.24c-3.803,0-7.605,0.095-11.407,0.291v-5.258c4.009,0.196,7.812,0.293,11.407,0.293H115.515z M88.265,61.893V45.824h-1.584
		c-2.327,3.315-4.862,6.236-7.604,8.765c-2.748,2.533-6.021,4.967-9.823,7.304H88.265L88.265,61.893z M107.91,71.533v-4.966H74.956
		v4.966H107.91z M107.91,81.174v-5.257H74.956v5.257H107.91z"/>
	<path fill="#FF9933" d="M189.977,37.791c-5.495,0.488-11.199,0.831-17.11,1.023c-0.424,2.144-0.845,4.089-1.267,5.842h17.743
		c3.378,0,7.29-0.096,11.725-0.293v4.966c-4.435-0.19-8.345-0.292-11.725-0.292h-19.011c-0.633,1.752-1.48,3.606-2.535,5.551h27.567
		c4.857,0,9.609-0.193,14.259-0.584v5.258c-5.282-0.191-10.036-0.292-14.259-0.292h-29.152c-1.479,2.337-2.747,4.089-3.801,5.258
		h38.023c-0.212,3.314-0.316,6.915-0.316,10.81v13.438c0,3.118,0.104,6.814,0.316,11.103h-6.337v-4.091H160.51v4.091h-6.336
		c0.207-3.507,0.316-6.916,0.316-10.226V71.824c-3.382,3.508-8.238,7.208-14.576,11.103c-1.694-2.141-3.382-3.796-5.07-4.965
		c4.643-1.945,9.24-4.675,13.783-8.181c4.541-3.506,8.081-7.108,10.615-10.809H147.2c-3.802,0-7.396,0.1-10.774,0.292v-4.967
		c3.59,0.196,7.181,0.293,10.774,0.293h14.577c0.841-1.754,1.583-3.602,2.217-5.551h-8.237c-3.17,0-6.55,0.101-10.141,0.292v-4.966
		c3.59,0.197,6.971,0.292,10.141,0.292h9.506c0.42-2.141,0.738-3.893,0.95-5.258c-2.748,0-6.075,0.101-9.981,0.292
		c-3.911,0.197-8.189,0.488-12.833,0.876c-0.634-1.558-1.48-3.405-2.534-5.551c5.912,0.196,15.259,0,28.042-0.584
		c12.777-0.585,23.29-1.752,31.527-3.505c1.268,1.949,2.742,3.993,4.437,6.134C200.433,37.061,195.467,37.307,189.977,37.791z
		 M194.096,72.994v-4.383H160.51v4.383H194.096z M194.096,82.051v-4.675H160.51v4.675H194.096z M194.096,90.816v-4.676H160.51v4.676
		H194.096z"/>
	<path fill="#33FF00" d="M245.27,64.229c3.059-4.281,4.698-9.64,4.91-16.067h-21.546v49.667h-7.288
		c0.421-3.9,0.634-7.206,0.634-9.935V55.466c0-3.894-0.108-7.984-0.316-12.27h28.833c0-5.259-0.108-9.153-0.316-11.687
		c3.378,0.197,6.021,0.292,7.922,0.292c-1.06,2.534-1.585,6.332-1.585,11.395h29.785c-0.425,4.089-0.634,8.179-0.634,12.27v35.642
		c0,2.923-1.268,4.72-3.801,5.405c-2.536,0.68-6.022,1.315-10.459,1.899c-0.634-1.95-2.114-4.091-4.435-6.428
		c5.068,0,8.343-0.146,9.822-0.44c1.474-0.29,2.219-1.213,2.219-2.772v-40.61H256.2c0,3.505-0.315,6.916-0.949,10.225
		c1.901,1.366,5.278,3.752,10.142,7.159c4.854,3.409,8.34,6.089,10.454,8.035c-2.327,1.751-4.118,3.312-5.387,4.673
		c-3.595-3.895-9.299-8.765-17.109-14.607c-3.803,6.037-8.77,11.686-14.892,16.943c-2.535-1.943-4.967-3.215-7.29-3.798
		C237.508,72.703,242.207,68.515,245.27,64.229z"/>
	<path fill="#FFCC00" d="M336.686,60.14c5.702,4.483,11.351,7.888,16.95,10.223c5.595,2.34,11.564,3.995,17.901,4.968
		c-1.899,1.363-3.169,3.213-3.801,5.551c-4.016-0.974-8.029-2.236-12.04-3.8c0,11.495,0.104,18.699,0.315,21.62h-6.021v-4.091
		h-29.784v4.967h-6.022c0.21-2.533,0.319-10.029,0.319-22.496c-4.015,1.754-8.45,3.507-13.309,5.259
		c-0.845-1.556-2.218-3.213-4.118-4.967c9.294-1.943,17.372-5.402,24.24-10.371c6.858-4.965,11.035-9.393,12.515-13.292
		c2.11,1.168,4.121,2.145,6.02,2.922L336.686,60.14z M367.101,41.151c-0.21,1.752-0.317,3.605-0.317,5.55
		c0,1.95,0.107,3.798,0.317,5.551h-6.335v-7.011h-51.331v7.304h-6.337c0.208-2.142,0.315-4.09,0.315-5.844
		c0-1.944-0.107-3.797-0.315-5.55H367.101z M323.693,48.747c0.634,0.976,2.005,2.437,4.119,4.381
		c-7.818,4.871-14.366,8.375-19.646,10.518c-1.058-1.557-2.428-2.922-4.12-4.09C313.342,56.05,319.89,52.448,323.693,48.747z
		 M352.844,75.623c-6.338-2.338-12.783-6.326-19.329-11.977c-4.861,4.483-10.565,8.472-17.109,11.977H352.844z M349.992,90.23
		V80.006h-29.785V90.23H349.992z M333.831,30.049c2.325,2.73,4.225,5.455,5.705,8.18c-2.962,0.977-5.07,1.854-6.335,2.63
		c-0.214-0.776-2.012-3.31-5.389-7.596C329.502,32.486,331.506,31.415,333.831,30.049z M364.57,58.679
		c-1.482,1.562-2.749,3.118-3.804,4.674c-7.187-4.478-13.623-8.079-19.329-10.809c1.688-1.556,2.852-2.921,3.484-4.09
		C354.849,53.521,361.399,56.925,364.57,58.679z"/>
	<path fill="#FFFFFF" d="M86.514,39.781c0-3.113-0.109-6.135-0.318-9.057h6.336c-0.212,2.73-0.317,5.747-0.317,9.057h19.646
		c2.957,0,6.546-0.096,10.773-0.292v5.55c-4.227-0.192-7.817-0.292-10.773-0.292h-11.407c2.322,3.117,5.806,5.842,10.456,8.18
		c4.645,2.336,9.927,4.189,15.844,5.55c-2.115,1.562-3.595,3.505-4.437,5.843c-6.551-2.141-12.095-4.77-16.635-7.887
		c-4.544-3.113-8.398-7.013-11.565-11.686h-1.902v16.067h19.962c-0.211,3.505-0.316,7.404-0.316,11.684
		c0,4.092,0.105,8.183,0.316,12.272H67.185c0.208-3.698,0.316-7.691,0.316-11.978c0-4.479-0.107-8.474-0.316-11.979
		c-2.748,1.562-6.021,3.213-9.822,4.967c-1.269-2.14-2.749-3.894-4.437-5.259c4.645-0.972,9.293-2.922,13.941-5.843
		c4.644-2.921,8.343-6.23,11.09-9.933h-9.189c-3.801,0-7.816,0.1-12.04,0.292v-5.55c4.224,0.197,8.239,0.292,12.04,0.292H86.514z
		 M113.763,90.907c3.589,0,7.075-0.097,10.457-0.293v5.258c-8.031-0.195-13.626-0.291-16.794-0.291H67.185
		c-3.803,0-7.605,0.096-11.407,0.291v-5.258c4.01,0.196,7.813,0.293,11.407,0.293H113.763z M86.514,60.815V44.748H84.93
		c-2.327,3.314-4.862,6.235-7.605,8.764c-2.748,2.534-6.02,4.966-9.823,7.304H86.514z M106.158,70.456V65.49H73.204v4.966H106.158z
		 M106.158,80.099v-5.261H73.204v5.261H106.158z"/>
	<path fill="#FFFFFF" d="M188.226,36.713c-5.496,0.488-11.2,0.831-17.11,1.022c-0.426,2.146-0.848,4.09-1.269,5.842h17.744
		c3.378,0,7.288-0.096,11.724-0.292v4.967c-4.436-0.193-8.346-0.293-11.724-0.293H168.58c-0.634,1.752-1.481,3.607-2.536,5.551
		h27.567c4.857,0,9.61-0.193,14.259-0.585v5.258c-5.283-0.191-10.035-0.291-14.259-0.291H164.46
		c-1.479,2.337-2.748,4.089-3.802,5.257h38.024c-0.213,3.314-0.316,6.916-0.316,10.811v13.438c0,3.119,0.104,6.815,0.316,11.104
		h-6.338v-4.09h-33.586v4.09h-6.337c0.208-3.507,0.316-6.916,0.316-10.226V70.749c-3.382,3.506-8.238,7.207-14.576,11.102
		c-1.693-2.141-3.381-3.797-5.069-4.968c4.643-1.942,9.239-4.674,13.783-8.178c4.54-3.507,8.08-7.108,10.615-10.81h-12.04
		c-3.803,0-7.397,0.099-10.773,0.291V53.22c3.588,0.196,7.179,0.292,10.773,0.292h14.576c0.841-1.752,1.583-3.601,2.217-5.551
		h-8.238c-3.169,0-6.548,0.101-10.139,0.293v-4.967c3.591,0.196,6.97,0.292,10.139,0.292h9.506c0.42-2.141,0.738-3.894,0.95-5.258
		c-2.748,0-6.074,0.101-9.981,0.292c-3.911,0.196-8.189,0.489-12.833,0.877c-0.634-1.557-1.48-3.407-2.535-5.551
		c5.911,0.196,15.259,0,28.042-0.584c12.777-0.585,23.289-1.752,31.528-3.506c1.268,1.949,2.742,3.993,4.435,6.135
		C198.681,35.984,193.716,36.23,188.226,36.713z M192.344,71.919v-4.383h-33.586v4.383H192.344z M192.344,80.973v-4.674h-33.586
		v4.674H192.344z M192.344,89.738v-4.674h-33.586v4.674H192.344z"/>
	<path fill="#FFFFFF" d="M243.517,63.152c3.061-4.281,4.698-9.64,4.912-16.067h-21.547v49.664h-7.29
		c0.423-3.898,0.636-7.204,0.636-9.933V54.389c0-3.894-0.108-7.984-0.315-12.271h28.833c0-5.257-0.107-9.151-0.316-11.685
		c3.377,0.196,6.019,0.292,7.92,0.292c-1.058,2.534-1.583,6.332-1.583,11.393h29.783c-0.424,4.09-0.632,8.181-0.632,12.271V90.03
		c0,2.923-1.268,4.721-3.805,5.404c-2.533,0.68-6.021,1.315-10.455,1.899c-0.635-1.949-2.114-4.089-4.438-6.427
		c5.07,0,8.346-0.146,9.822-0.438c1.479-0.294,2.221-1.217,2.221-2.776V47.085h-22.815c0,3.506-0.315,6.916-0.948,10.224
		c1.899,1.366,5.277,3.753,10.139,7.158c4.856,3.41,8.342,6.088,10.456,8.033c-2.326,1.755-4.119,3.315-5.388,4.676
		c-3.593-3.895-9.298-8.765-17.108-14.607c-3.803,6.038-8.77,11.686-14.894,16.944c-2.535-1.945-4.965-3.214-7.287-3.798
		C235.756,71.624,240.452,67.44,243.517,63.152z"/>
	<path fill="#FFFFFF" d="M334.931,59.063c5.704,4.481,11.354,7.887,16.953,10.224c5.594,2.338,11.565,3.995,17.901,4.968
		c-1.899,1.363-3.168,3.213-3.802,5.55c-4.014-0.972-8.027-2.237-12.039-3.799c0,11.496,0.103,18.698,0.316,21.621h-6.021v-4.092
		h-29.785v4.967h-6.021c0.207-2.533,0.317-10.029,0.317-22.496c-4.015,1.754-8.451,3.507-13.307,5.26
		c-0.85-1.556-2.219-3.214-4.12-4.967c9.292-1.945,17.373-5.405,24.236-10.369c6.863-4.967,11.04-9.396,12.519-13.294
		c2.11,1.168,4.118,2.145,6.021,2.921L334.931,59.063z M365.35,40.074c-0.213,1.752-0.316,3.606-0.316,5.55
		c0,1.949,0.104,3.797,0.316,5.551h-6.339v-7.012h-51.33v7.305h-6.336c0.207-2.142,0.316-4.09,0.316-5.842
		c0-1.945-0.109-3.798-0.316-5.551L365.35,40.074L365.35,40.074z M321.94,47.668c0.635,0.978,2.005,2.437,4.12,4.382
		c-7.816,4.872-14.369,8.376-19.646,10.519c-1.061-1.558-2.431-2.922-4.119-4.091C311.59,54.973,318.136,51.371,321.94,47.668z
		 M351.092,74.547c-6.336-2.338-12.784-6.327-19.329-11.978c-4.862,4.482-10.564,8.473-17.109,11.978H351.092z M348.239,89.153
		V78.931h-29.784v10.223H348.239z M332.08,28.971c2.322,2.73,4.225,5.455,5.704,8.18c-2.961,0.977-5.069,1.854-6.335,2.629
		c-0.215-0.775-2.013-3.309-5.388-7.595C327.747,31.409,329.752,30.337,332.08,28.971z M362.815,57.602
		c-1.48,1.562-2.748,3.12-3.804,4.674c-7.183-4.478-13.623-8.079-19.327-10.809c1.688-1.557,2.853-2.921,3.486-4.09
		C353.095,52.443,359.647,55.849,362.815,57.602z"/>
</g>
<g>
	<path fill="#33CCCC" d="M182.796,106.327l-1.494-3.465h0.855l0.777,2.001l0.29,0.743c0.013-0.037,0.096-0.276,0.253-0.714
		l0.778-2.03h0.851l0.732,2.011l0.245,0.662l0.279-0.669l0.837-2.004h0.805l-1.527,3.465h-0.86l-0.777-2.075l-0.188-0.591
		l-0.989,2.666H182.796z"/>
	<path fill="#33CCCC" d="M189.6,106.327l-1.494-3.465h0.855l0.778,2.001l0.289,0.743c0.013-0.037,0.096-0.276,0.253-0.714
		l0.778-2.03h0.851l0.731,2.011l0.245,0.662l0.28-0.669l0.837-2.004h0.805l-1.526,3.465h-0.861l-0.778-2.075l-0.188-0.591
		l-0.99,2.666H189.6z"/>
	<path fill="#33CCCC" d="M196.405,106.327l-1.494-3.465h0.856l0.777,2.001l0.29,0.743c0.012-0.037,0.096-0.276,0.253-0.714
		l0.777-2.03h0.852l0.731,2.011l0.245,0.662l0.281-0.669l0.836-2.004h0.804l-1.526,3.465h-0.861l-0.777-2.075l-0.189-0.591
		l-0.989,2.666H196.405z"/>
	<path fill="#33CCCC" d="M202.023,106.327v-0.67h0.943v0.67H202.023z"/>
	<path fill="#33CCCC" d="M204.176,105.076l0.869-0.054c0.064,0.301,0.214,0.527,0.448,0.677c0.235,0.151,0.518,0.227,0.849,0.227
		c0.399,0,0.737-0.106,1.013-0.319s0.413-0.496,0.413-0.847c0-0.337-0.132-0.6-0.398-0.794c-0.265-0.192-0.611-0.29-1.041-0.29
		c-0.269,0-0.508,0.044-0.723,0.128c-0.215,0.087-0.383,0.198-0.507,0.336l-0.777-0.072l0.653-2.456h3.354v0.562h-2.692
		l-0.364,1.284c0.406-0.2,0.831-0.301,1.274-0.301c0.589,0,1.086,0.146,1.492,0.436c0.404,0.288,0.605,0.66,0.605,1.116
		c0,0.432-0.177,0.806-0.534,1.121c-0.432,0.387-1.022,0.581-1.771,0.581c-0.613,0-1.114-0.121-1.502-0.365
		S204.231,105.477,204.176,105.076z"/>
	<path fill="#33CCCC" d="M209.417,105.076l0.869-0.054c0.064,0.301,0.213,0.527,0.447,0.677c0.235,0.151,0.518,0.227,0.85,0.227
		c0.397,0,0.736-0.106,1.012-0.319c0.276-0.213,0.414-0.496,0.414-0.847c0-0.337-0.132-0.6-0.398-0.794
		c-0.265-0.192-0.613-0.29-1.042-0.29c-0.266,0-0.507,0.044-0.721,0.128c-0.215,0.087-0.384,0.198-0.507,0.336l-0.777-0.072
		l0.653-2.456h3.354v0.562h-2.692l-0.363,1.284c0.405-0.2,0.829-0.301,1.274-0.301c0.589,0,1.086,0.146,1.49,0.436
		c0.404,0.288,0.608,0.66,0.608,1.116c0,0.432-0.18,0.806-0.535,1.121c-0.433,0.387-1.023,0.581-1.771,0.581
		c-0.614,0-1.114-0.121-1.502-0.365C209.69,105.801,209.472,105.477,209.417,105.076z"/>
	<path fill="#33CCCC" d="M214.868,106.327v-4.783h0.829v4.783H214.868z"/>
	<path fill="#33CCCC" d="M216.672,104.595c0-0.641,0.25-1.115,0.754-1.425c0.421-0.256,0.933-0.385,1.537-0.385
		c0.671,0,1.221,0.156,1.647,0.469s0.639,0.742,0.639,1.292c0,0.446-0.095,0.798-0.282,1.053c-0.189,0.255-0.464,0.453-0.824,0.596
		c-0.359,0.142-0.753,0.212-1.18,0.212c-0.684,0-1.237-0.155-1.658-0.466C216.883,105.628,216.672,105.182,216.672,104.595z
		 M217.523,104.595c0,0.444,0.137,0.775,0.408,0.998c0.273,0.219,0.616,0.331,1.031,0.331c0.41,0,0.753-0.112,1.026-0.334
		s0.409-0.56,0.409-1.015c0-0.428-0.137-0.753-0.412-0.974c-0.272-0.22-0.615-0.331-1.023-0.331c-0.414,0-0.758,0.11-1.031,0.33
		C217.66,103.819,217.523,104.151,217.523,104.595z"/>
	<path fill="#33CCCC" d="M222.068,106.615l0.805,0.085c0.034,0.176,0.127,0.304,0.281,0.383c0.205,0.11,0.485,0.164,0.842,0.164
		c0.382,0,0.679-0.054,0.888-0.164c0.208-0.108,0.349-0.26,0.423-0.455c0.043-0.12,0.063-0.372,0.06-0.753
		c-0.362,0.301-0.813,0.452-1.354,0.452c-0.671,0-1.191-0.173-1.559-0.516c-0.369-0.343-0.552-0.755-0.552-1.236
		c0-0.331,0.084-0.635,0.253-0.914s0.412-0.495,0.733-0.647c0.321-0.151,0.697-0.229,1.129-0.229c0.577,0,1.053,0.166,1.426,0.495
		v-0.417h0.765v2.995c0,0.539-0.078,0.921-0.233,1.146c-0.154,0.226-0.399,0.402-0.735,0.534c-0.336,0.131-0.748,0.195-1.24,0.195
		c-0.582,0-1.053-0.093-1.412-0.278C222.229,107.269,222.056,106.987,222.068,106.615z M222.754,104.534
		c0,0.453,0.128,0.785,0.381,0.994c0.255,0.209,0.574,0.313,0.958,0.313c0.38,0,0.699-0.104,0.958-0.312
		c0.258-0.206,0.386-0.533,0.386-0.976c0-0.425-0.132-0.744-0.398-0.961c-0.265-0.214-0.585-0.322-0.96-0.322
		c-0.367,0-0.681,0.107-0.938,0.318C222.883,103.801,222.754,104.116,222.754,104.534z"/>
	<path fill="#33CCCC" d="M227.152,104.595c0-0.641,0.251-1.115,0.755-1.425c0.42-0.256,0.933-0.385,1.536-0.385
		c0.671,0,1.221,0.156,1.646,0.469c0.429,0.313,0.641,0.742,0.641,1.292c0,0.446-0.095,0.798-0.283,1.053s-0.464,0.453-0.823,0.596
		c-0.36,0.142-0.755,0.212-1.181,0.212c-0.685,0-1.236-0.155-1.658-0.466C227.363,105.628,227.152,105.182,227.152,104.595z
		 M228.004,104.595c0,0.444,0.137,0.775,0.409,0.998c0.273,0.219,0.616,0.331,1.03,0.331c0.411,0,0.754-0.112,1.026-0.334
		c0.273-0.222,0.409-0.56,0.409-1.015c0-0.428-0.137-0.753-0.411-0.974c-0.274-0.22-0.615-0.331-1.024-0.331
		c-0.413,0-0.757,0.11-1.03,0.33C228.14,103.819,228.004,104.151,228.004,104.595z"/>
	<path fill="#33CCCC" d="M232.935,106.327v-0.67h0.943v0.67H232.935z"/>
	<path fill="#33CCCC" d="M238.507,105.059l0.815,0.075c-0.09,0.398-0.316,0.708-0.684,0.934s-0.817,0.339-1.351,0.339
		c-0.669,0-1.206-0.155-1.611-0.466c-0.408-0.311-0.61-0.754-0.61-1.332c0-0.375,0.087-0.702,0.262-0.981s0.441-0.49,0.798-0.631
		c0.358-0.142,0.746-0.212,1.167-0.212c0.53,0,0.965,0.095,1.303,0.286c0.336,0.19,0.553,0.46,0.647,0.809l-0.805,0.09
		c-0.076-0.233-0.212-0.408-0.407-0.525c-0.196-0.118-0.43-0.178-0.706-0.178c-0.417,0-0.756,0.106-1.017,0.317
		c-0.262,0.213-0.392,0.548-0.392,1.008c0,0.465,0.126,0.803,0.377,1.014s0.579,0.316,0.984,0.316c0.325,0,0.598-0.07,0.814-0.212
		C238.31,105.57,238.449,105.352,238.507,105.059z"/>
	<path fill="#33CCCC" d="M239.721,104.595c0-0.641,0.252-1.115,0.756-1.425c0.419-0.256,0.932-0.385,1.536-0.385
		c0.672,0,1.221,0.156,1.647,0.469c0.426,0.313,0.639,0.742,0.639,1.292c0,0.446-0.095,0.798-0.282,1.053
		c-0.188,0.255-0.464,0.453-0.823,0.596c-0.36,0.142-0.754,0.212-1.181,0.212c-0.684,0-1.237-0.155-1.658-0.466
		C239.932,105.628,239.721,105.182,239.721,104.595z M240.573,104.595c0,0.444,0.138,0.775,0.409,0.998
		c0.272,0.219,0.617,0.331,1.031,0.331c0.411,0,0.753-0.112,1.026-0.334c0.272-0.222,0.408-0.56,0.408-1.015
		c0-0.428-0.137-0.753-0.411-0.974c-0.272-0.22-0.615-0.331-1.023-0.331c-0.414,0-0.759,0.11-1.031,0.33
		C240.711,103.819,240.573,104.151,240.573,104.595z"/>
	<path fill="#33CCCC" d="M245.27,106.327v-3.465h0.74v0.487c0.153-0.17,0.358-0.308,0.611-0.409c0.254-0.104,0.544-0.155,0.87-0.155
		c0.361,0,0.658,0.053,0.89,0.16s0.396,0.256,0.49,0.446c0.386-0.405,0.89-0.606,1.509-0.606c0.484,0,0.858,0.095,1.118,0.285
		c0.261,0.191,0.392,0.483,0.392,0.879v2.378h-0.824v-2.183c0-0.235-0.026-0.404-0.08-0.506c-0.055-0.104-0.151-0.188-0.292-0.25
		c-0.142-0.063-0.308-0.095-0.498-0.095c-0.343,0-0.63,0.08-0.854,0.242c-0.228,0.163-0.343,0.422-0.343,0.779v2.013h-0.827v-2.25
		c0-0.262-0.067-0.456-0.202-0.587c-0.136-0.131-0.355-0.196-0.664-0.196c-0.232,0-0.446,0.044-0.646,0.131
		c-0.196,0.085-0.342,0.214-0.431,0.381s-0.133,0.409-0.133,0.724v1.798L245.27,106.327L245.27,106.327z"/>
</g>
</svg>
