<?xml version="1.0" encoding="utf-8"?>
<!-- Generator: Adobe Illustrator 16.0.0, SVG Export Plug-In . SVG Version: 6.00 Build 0)  -->
<!DOCTYPE svg PUBLIC "-//W3C//DTD SVG 1.1//EN" "http://www.w3.org/Graphics/SVG/1.1/DTD/svg11.dtd">
<svg version="1.1" id="Layer_1" xmlns="http://www.w3.org/2000/svg" xmlns:xlink="http://www.w3.org/1999/xlink" x="0px" y="0px"
	 width="611.57px" height="129.834px" viewBox="0 0 611.57 129.834" enable-background="new 0 0 611.57 129.834"
	 xml:space="preserve">
<path fill="#25192B" d="M268.261,76.321c-1.027-3.412-1.474-7.104-1.474-10.931c0-4.372,0.589-8.471,1.766-12.16
	c4.56-14.895,17.793-24.325,36.17-24.325c18.523,0,31.315,9.563,35.875,24.05c1.179,3.826,1.767,7.789,1.767,12.163
	c0,3.689-0.442,7.105-1.18,10.386c-3.968,16.125-17.351,26.646-36.606,26.646C285.757,102.151,272.378,91.905,268.261,76.321z"/>
<path fill="#FF0066" d="M313.986,71.403c0.438-1.912,0.589-3.963,0.589-6.147c0-2.323-0.295-4.373-0.735-6.286
	c-1.321-4.92-4.265-8.063-9.263-8.063c-5.293,0-8.087,3.281-9.264,8.063c-0.589,1.913-0.735,4.1-0.735,6.286
	c0,2.187,0.146,4.235,0.589,6.147c1.323,5.195,4.267,8.748,9.41,8.748C309.87,80.151,312.811,76.461,313.986,71.403z"/>
<path fill="#25192B" d="M396.615,30.001h22.054c1.767,0,2.796,0.957,2.796,2.594v59.172c0,35.118-33.311,39.02-60.636,38.064
	c-1.619-0.271-2.503-1.362-2.354-2.865l0.885-18.576c0.146-1.914,1.319-2.601,3.23-2.053c12.792,2.73,28.287-0.498,30.786-10.336
	c0.295-0.958-1.025-1.504-1.908-0.958c-3.091,2.188-7.354,3.556-13.23,3.556c-10.146,0-24.408-2.461-29.994-17.767
	c-2.06-5.604-2.499-11.752-2.499-15.989c0-5.603,0.734-11.751,3.087-17.216c4.705-11.206,15.146-18.721,28.523-18.721
	c6.908,0,11.762,1.913,15.145,5.192c0.734,0.682,1.322,0.546,1.322-0.41v-1.095C393.82,30.958,394.85,30.001,396.615,30.001z"/>
<path fill="#FFFF33" d="M393.82,64.71c0-3.69-0.442-6.423-1.617-8.881c-1.615-3.144-4.264-4.92-8.381-4.92
	c-3.675,0-6.175,1.915-7.794,4.782c-1.615,2.596-2.354,6.15-2.354,9.431c0,3.418,0.589,6.559,1.912,8.881
	c1.617,2.87,4.411,4.783,8.527,4.783c4.263,0,6.763-1.775,8.231-4.646C393.379,71.679,393.82,68.399,393.82,64.71z"/>
<path fill="#25192B" d="M428.074,76.321c-1.028-3.412-1.472-7.104-1.472-10.931c0-4.372,0.589-8.471,1.766-12.16
	c4.561-14.895,17.79-24.325,36.168-24.325c18.528,0,31.319,9.563,35.876,24.05c1.177,3.826,1.766,7.789,1.766,12.163
	c0,3.689-0.438,7.105-1.175,10.386c-3.971,16.125-17.353,26.646-36.611,26.646C445.569,102.151,432.192,91.905,428.074,76.321z"/>
<path fill="#99FF00" d="M473.802,71.403c0.439-1.912,0.587-3.963,0.587-6.147c0-2.323-0.294-4.373-0.732-6.286
	c-1.321-4.92-4.267-8.063-9.264-8.063c-5.293,0-8.086,3.281-9.262,8.063c-0.591,1.913-0.733,4.1-0.733,6.286
	c0,2.187,0.146,4.235,0.586,6.147c1.323,5.195,4.266,8.748,9.41,8.748C469.682,80.151,472.622,76.461,473.802,71.403z"/>
<path fill="#25192B" d="M503.47,87.802"/>
<linearGradient id="SVGID_1_" gradientUnits="userSpaceOnUse" x1="31.0371" y1="-303.3091" x2="105.3301" y2="-303.3091" gradientTransform="matrix(1 0 0 -0.5 8.3398 -98.0142)">
	<stop  offset="0" style="stop-color:#942D00"/>
	<stop  offset="1" style="stop-color:#25192B"/>
</linearGradient>
<path fill="url(#SVGID_1_)" d="M113.67,69.629c0,5.33-1.177,9.839-2.939,13.529c-5.293,11.204-18.231,18.72-34.405,18.72
	c-15.879,0-28.817-7.105-34.403-18.72c-1.179-2.599-2.058-5.192-2.501-7.927c-0.293-1.775,0.883-2.733,2.646-2.733h22.937
	c1.62,0,2.5,0.683,3.089,1.778c0.146,0.545,0.44,1.09,0.883,1.771c1.616,2.601,4.116,3.826,7.352,3.826
	c3.089,0,5.439-1.502,7.058-3.558c1.324-1.772,2.061-3.961,2.061-6.146c0.146-2.321-0.439-4.51-1.618-6.421
	c-1.469-2.186-3.968-3.691-7.498-3.691c-2.351,0-4.998,0.684-6.91,2.597c-1.026,1.095-2.058,1.64-3.526,1.64H42.214
	c-1.765,0-2.794-0.957-2.794-2.596V8c0-1.641,1.029-2.597,2.794-2.597h65.43c1.764,0,2.794,0.956,2.794,2.597v16.809
	c0,1.638-1.03,2.597-2.794,2.597H68.237c-0.734,0-1.175,0.408-1.175,1.092v11.206c0,0.82,0.588,1.229,1.47,0.82
	c3.823-1.915,8.086-2.597,11.91-2.597c13.965,0,25.288,7.378,30.433,18.448C112.64,60.337,113.67,64.846,113.67,69.629z"/>
<radialGradient id="SVGID_2_" cx="146.8413" cy="52.2339" r="43.0506" gradientTransform="matrix(1 0 0 -1 8.3398 105.874)" gradientUnits="userSpaceOnUse">
	<stop  offset="0" style="stop-color:#942D00"/>
	<stop  offset="1" style="stop-color:#25192B"/>
</radialGradient>
<path fill="url(#SVGID_2_)" d="M192.327,69.629c0,5.33-1.177,9.839-2.938,13.529c-5.293,11.204-18.231,18.72-34.405,18.72
	c-15.879,0-28.819-7.105-34.405-18.72c-1.176-2.599-2.057-5.192-2.499-7.927c-0.294-1.775,0.882-2.733,2.646-2.733h22.937
	c1.617,0,2.5,0.683,3.089,1.778c0.146,0.545,0.439,1.09,0.881,1.771c1.618,2.601,4.118,3.826,7.353,3.826
	c3.088,0,5.438-1.502,7.058-3.558c1.323-1.772,2.061-3.961,2.061-6.146c0.145-2.321-0.441-4.51-1.618-6.421
	c-1.47-2.186-3.97-3.691-7.498-3.691c-2.354,0-4.999,0.684-6.91,2.597c-1.029,1.095-2.058,1.64-3.527,1.64H120.87
	c-1.764,0-2.792-0.957-2.792-2.596V8c-0.001-1.641,1.027-2.597,2.792-2.597h65.43c1.767,0,2.793,0.956,2.793,2.597v16.809
	c0,1.638-1.027,2.597-2.793,2.597h-39.403c-0.734,0-1.176,0.408-1.176,1.092v11.206c0,0.82,0.588,1.229,1.471,0.82
	c3.824-1.915,8.086-2.597,11.909-2.597c13.967,0,25.288,7.378,30.434,18.448C191.298,60.337,192.327,64.846,192.327,69.629z"/>
<path fill="#66FFCC" d="M263.323,73.015c0-1.793-1.046-2.84-2.84-2.84h-25.137c-0.747,0-1.195-0.449-1.195-1.195V7.455
	c0-1.793-1.047-2.84-2.84-2.84h-4.067c1.793,0,2.84,1.046,2.84,2.84v65.524c0,0.746,0.448,1.191,1.195,1.191h29.137
	c1.794,0,2.84,1.051,2.84,2.844v18.094c0.041-0.225,0.067-0.457,0.067-0.711V73.015z"/>
<path fill="#25192B" d="M260.416,74.175h-29.137c-0.747,0-1.195-0.449-1.195-1.195V7.455c0-1.793-1.047-2.84-2.84-2.84h-20.353
	h-4.067c-1.793,0-2.839,1.046-2.839,2.84v90.942c0,1.795,1.046,2.84,2.839,2.84h57.592c1.794,0,2.84-1.045,2.84-2.84v-3.289V77.015
	C263.256,75.222,262.21,74.175,260.416,74.175z"/>
</svg>
