<?xml version="1.0" encoding="utf-8"?>
<!-- Generator: Adobe Illustrator 16.0.0, SVG Export Plug-In . SVG Version: 6.00 Build 0)  -->
<!DOCTYPE svg PUBLIC "-//W3C//DTD SVG 1.1//EN" "http://www.w3.org/Graphics/SVG/1.1/DTD/svg11.dtd">
<svg version="1.1" id="Layer_1" xmlns="http://www.w3.org/2000/svg" xmlns:xlink="http://www.w3.org/1999/xlink" x="0px" y="0px"
	 width="542.504px" height="129.834px" viewBox="0 0 542.504 129.834" enable-background="new 0 0 542.504 129.834"
	 xml:space="preserve">
<path fill="#231815" d="M429.237,80.944c0,18.697-15.149,33.854-33.854,33.854H35.853C17.156,114.799,2,99.646,2,80.944V52.803
	c0-18.696,15.157-33.854,33.854-33.854h359.532c18.699,0,33.854,15.157,33.854,33.854L429.237,80.944L429.237,80.944z"/>
<path fill="#00FFCC" d="M395.385,117.798H35.854C15.532,117.798-1,101.267-1,80.944V52.803c0-20.321,16.532-36.854,36.854-36.854
	h359.532c20.321,0,36.854,16.532,36.854,36.854l-0.001,28.142C432.239,101.267,415.704,117.798,395.385,117.798z M35.854,21.949
	C18.841,21.949,5,35.79,5,52.803v28.142c0,17.015,13.841,30.854,30.854,30.854h359.531c17.013,0,30.854-13.841,30.854-30.854
	l0.001-28.142c0-17.013-13.841-30.854-30.854-30.854H35.854z"/>
<g>
	<path d="M625.338,59.447c3.941,4.734,6.213,9.073,6.805,13.018c0.592,3.947-0.25,7.202-2.515,9.763
		c-2.271,2.565-5.08,4.342-8.434,5.325c-0.198-2.561-1.087-4.831-2.663-6.805c3.553,0,5.816-0.688,6.807-2.07
		c0.982-1.378,1.378-3.597,1.184-6.657c-0.199-3.056-2.564-7.146-7.1-12.275c3.15-8.875,5.126-15.282,5.916-19.23h-8.875v59.761
		h-5.621c0.191-5.523,0.295-10.945,0.295-16.271V49.389c0-3.55-0.104-8.085-0.295-13.609h21.893
		C629.185,47.419,626.716,55.306,625.338,59.447z M668.531,50.572c0,6.116,0.099,10.946,0.295,14.497h-13.902
		c0,3.749,0.982,7.692,2.958,11.833c5.126-3.352,8.478-6.405,10.06-9.172c1.576,2.367,3.055,4.145,4.438,5.326
		c-3.553,1.774-7.893,4.34-13.02,7.691c2.168,2.959,4.438,5.523,6.805,7.691c2.367,2.174,5.814,4.045,10.354,5.621
		c-2.366,1.185-4.143,3.057-5.325,5.621c-4.732-2.957-8.432-5.964-11.094-9.022c-2.664-3.056-4.836-6.605-6.51-10.65
		c-1.68-4.04-2.813-9.022-3.402-14.94h-6.805V91.99c3.151-1.576,6.015-3.448,8.58-5.621c0.192,1.774,0.592,3.847,1.184,6.213
		c-1.775,0.989-4.096,2.267-6.953,3.847c-2.859,1.576-5.278,3.152-7.248,4.733c-0.791-1.581-1.877-3.356-3.254-5.325
		c1.186-1.184,1.969-2.959,2.367-5.324V48.797c0-3.943-0.104-8.284-0.297-13.018h31.063C668.63,39.33,668.531,44.262,668.531,50.572
		z M663.205,47.909v-7.396h-19.82v7.396H663.205z M663.205,60.335v-7.988h-19.82v7.988H663.205z"/>
	<path d="M709.804,65.66c-2.469,1.581-4.489,2.958-6.065,4.142l-2.958-4.142c1.186-1.577,1.774-3.254,1.774-5.03v-5.62h-4.438
		c-1.184,5.524-2.713,9.37-4.586,11.538c-1.876,2.172-4.096,4.243-6.655,6.213c-1.383-1.378-2.959-2.76-4.732-4.143
		c3.153-1.377,5.52-3.006,7.101-4.881c1.576-1.872,2.662-4.779,3.255-8.727c-1.383,0-3.946,0.102-7.69,0.296v-4.734
		c3.152,0.199,7.987,0.296,14.496,0.296v-6.213h-7.102c-0.791,1.382-1.679,2.958-2.661,4.734c-1.581-0.786-3.453-1.378-5.622-1.775
		c1.773-2.168,3.202-4.484,4.291-6.953c1.081-2.464,1.724-4.683,1.922-6.656c1.773,0.79,3.745,1.479,5.918,2.071
		c-0.99,1.382-1.775,2.861-2.367,4.438h5.621c0-3.351-0.104-6.014-0.296-7.988h6.213c-0.198,1.974-0.296,4.637-0.296,7.988
		c2.76,0,5.621-0.097,8.58-0.295v4.733c-2.767-0.194-5.621-0.296-8.58-0.296v6.213c2.76,0,5.52-0.097,8.284-0.296v4.734
		c-2.565-0.194-4.343-0.296-5.325-0.296v6.508c1.575-1.183,3.55-2.367,5.917-3.55c0.192,1.382,0.591,2.958,1.183,4.733
		C713.99,63.099,712.268,64.083,709.804,65.66z M713.204,93.026c-2.173,2.265-5.177,4.188-9.021,5.769
		c-3.847,1.576-9.421,2.663-16.716,3.255c-0.592-1.975-1.68-3.847-3.254-5.621c5.52,0,10.059-0.443,13.607-1.332
		c3.55-0.887,6.702-2.412,9.467-4.585c2.762-2.168,4.438-6.11,5.029-11.834c2.168,0.198,4.535,0.494,7.102,0.888
		C717.446,86.272,715.372,90.761,713.204,93.026z M740.721,79.269c0,2.367,0.191,5.133,0.592,8.284H735.1V76.312h-37.277v12.723
		h-6.51c0.195-3.152,0.297-6.016,0.297-8.58c0-2.762-0.102-5.621-0.297-8.579h50C740.912,74.438,740.721,76.901,740.721,79.269z
		 M723.266,40.513h6.508c0-3.152-0.199-5.815-0.592-7.988h6.213c-0.198,3.157-0.295,5.82-0.295,7.988
		c3.744,0,7.59-0.097,11.537-0.295v4.733c-3.55-0.194-7.396-0.296-11.537-0.296v6.213c6.702,0,11.436-0.097,14.2-0.296v4.734
		c-3.356-0.194-6.807-0.296-10.354-0.296v5.621c0,1.581,0.49,2.469,1.479,2.663c0.983,0.199,2.219,0.199,3.698,0
		c1.479-0.194,2.22-1.775,2.22-4.733c1.773,1.183,3.55,2.173,5.323,2.958c-0.592,2.565-1.382,4.291-2.365,5.177
		c-0.989,0.888-2.366,1.33-4.144,1.33h-6.213c-2.564,0-4.096-0.394-4.586-1.185c-0.494-0.784-0.74-2.07-0.74-3.845V55.01h-4.73
		c-0.592,3.948-1.775,7.151-3.552,9.615c-1.774,2.468-3.946,4.489-6.51,6.065c-1.581-1.186-3.255-2.367-5.027-3.551
		c3.351-1.185,5.769-2.812,7.248-4.882c1.479-2.071,2.313-4.484,2.515-7.249c-1.58,0-3.947,0.102-7.1,0.296v-4.734
		c2.958,0.199,7.396,0.296,13.313,0.296v-6.213h-7.988c-0.79,1.382-1.382,2.861-1.772,4.438c-1.775-0.786-3.453-1.378-5.03-1.775
		c1.185-1.775,2.117-3.647,2.812-5.621c0.688-1.969,1.229-4.535,1.629-7.692c2.168,0.591,4.039,0.989,5.62,1.183
		C724.051,36.963,723.459,38.738,723.266,40.513z M733.472,91.251c3.448,1.086,7.642,2.714,12.573,4.882
		c-1.384,1.576-2.564,3.254-3.552,5.029c-3.155-1.775-6.56-3.356-10.206-4.733c-3.65-1.383-7.742-2.662-12.276-3.847
		c1.183-1.576,2.168-3.056,2.958-4.438C726.52,89.134,730.019,90.169,733.472,91.251z"/>
	<path d="M784.063,90.513c-2.662,0.592-5.325,1.233-7.988,1.922c-2.662,0.693-5.427,1.479-8.283,2.366
		c-2.859,0.888-5.573,1.821-8.137,2.812c-0.396-1.773-1.086-4.143-2.07-7.101c2.17-0.394,4.145-0.786,5.919-1.184V51.164
		c0-4.142-0.104-8.182-0.298-12.13h24.558c-0.198,3.55-0.296,7.498-0.296,11.834v34.023c0.786-0.194,2.069-0.49,3.846-0.89v5.029
		C789.139,89.431,786.726,89.92,784.063,90.513z M781.548,55.01V43.767H769.12V55.01H781.548z M781.548,71.281V59.447H769.12v11.834
		H781.548z M775.483,87.257c1.873-0.393,3.893-0.785,6.065-1.184V76.015H769.12V88.44C771.49,88.048,773.607,87.653,775.483,87.257z
		 M794.862,87.701c1.969-3.449,3.402-7.05,4.29-10.8c0.888-3.743,1.525-7.59,1.923-11.537c0.395-3.943,0.592-7.692,0.592-11.243
		c-3.354,0-6.41,0.102-9.172,0.296v-5.325c2.563,0.199,5.621,0.296,9.172,0.296v-6.805c0-2.168-0.102-5.126-0.296-8.875
		c2.168,0.199,4.733,0.296,7.692,0.296c-0.592,2.565-0.939,5.131-1.035,7.692c-0.103,2.565-0.146,5.131-0.146,7.692h16.565
		c-0.591,3.157-0.888,7.003-0.888,11.538l-1.775,30.177c-0.197,3.744-1.479,5.963-3.846,6.656c-2.367,0.688-5.427,1.229-9.172,1.627
		c-0.396-2.563-1.086-4.933-2.07-7.101c3.744,0,6.313-0.046,7.692-0.147c1.378-0.098,2.069-2.021,2.069-5.77l1.479-32.247h-10.06
		c-0.396,8.284-1.087,14.991-2.07,20.116c-0.989,5.133-2.219,9.173-3.698,12.131c-1.479,2.959-2.958,5.574-4.438,7.841
		c-1.479,2.265-3.208,4.483-5.18,6.656c-1.58-1.581-3.748-2.861-6.508-3.847C789.929,94.261,792.887,91.153,794.862,87.701z"/>
	<path d="M852.256,89.328c4.337-3.744,7.887-6.901,10.649-9.468c0.592,2.367,1.377,4.341,2.366,5.916
		c-2.958,2.367-6.019,4.883-9.171,7.546c-3.157,2.661-5.82,5.177-7.988,7.544c-1.183-1.775-2.563-3.356-4.142-4.733
		c1.969-1.581,2.854-3.745,2.662-6.509V62.11h-4.144c-3.354,0-6.213,0.102-8.579,0.296v-5.621c2.366,0.199,5.225,0.296,8.579,0.296
		h10.061c0,3.749-0.104,7.299-0.296,10.65L852.256,89.328L852.256,89.328z M855.807,45.838c-1.581,1.382-3.255,2.958-5.029,4.733
		c-3.354-4.535-7.101-8.677-11.242-12.426c1.774-1.576,3.254-3.056,4.438-4.438C846.932,36.473,850.872,40.513,855.807,45.838z
		 M892.49,38.146c2.168,0,5.621-0.097,10.354-0.296v5.622c-4.341-0.194-9.666-0.296-15.978-0.296v49.998
		c0,3.552-1.528,5.771-4.586,6.657c-3.061,0.887-6.167,1.428-9.317,1.627c-0.198-2.564-0.989-5.229-2.367-7.988
		c3.352,0.397,5.918,0.495,7.69,0.297c1.775-0.193,2.762-1.185,2.959-2.959V43.176h-12.722c-2.959,0-6.019,0.102-9.172,0.296V37.85
		c4.928,0.199,8.085,0.296,9.468,0.296H892.49z"/>
	<path d="M919.711,100.274h-5.917c0.192-4.935,0.296-9.662,0.296-14.201V58.856c0-4.336-0.104-8.478-0.296-12.426h5.917V100.274z
		 M919.711,35.188l4.142-2.958c2.168,1.974,4.535,4.734,7.101,8.284c-0.592,0.592-1.974,1.775-4.142,3.55
		C924.445,40.513,922.075,37.554,919.711,35.188z M950.776,56.489h8.875c-0.198,2.566-0.296,5.325-0.296,8.284
		c0,2.764,0.098,5.426,0.296,7.988h-8.579v10.946c0,2.765,0.245,4.29,0.739,4.585c0.49,0.296,1.378,0.398,2.663,0.296
		c1.28-0.097,2.219-0.638,2.811-1.627c0.594-0.983,1.185-2.662,1.774-5.028c1.775,1.185,3.646,1.975,5.621,2.366
		c-1.382,4.539-2.958,7.101-4.733,7.691c-1.772,0.592-4.243,0.888-7.396,0.888c-3.157,0-5.08-0.443-5.771-1.331
		c-0.691-0.888-1.035-2.116-1.035-3.698V72.761h-5.028c-0.592,7.299-1.825,12.573-3.698,15.827
		c-1.876,3.255-4.881,6.162-9.023,8.729c-1.183-2.174-2.563-3.647-4.142-4.438c4.535-1.969,7.642-4.881,9.319-8.728
		c1.674-3.846,2.515-7.644,2.515-11.392h-7.396c0.396-2.76,0.594-5.52,0.594-8.284c0-2.959-0.198-5.621-0.594-7.988h17.754
		c1.183-2.367,3.055-6.605,5.619-12.722c0.984,0.592,2.856,1.581,5.621,2.958C955.701,48.501,953.533,51.755,950.776,56.489z
		 M930.951,46.726c1.971-1.377,3.354-2.265,4.144-2.663l5.325,8.284c-1.774,0.791-3.254,1.678-4.438,2.663
		C934.799,52.051,933.119,49.292,930.951,46.726z M954.03,68.322V60.63h-20.118v7.692H954.03z M975.329,37.85
		c-0.396,3.749-0.592,7.891-0.592,12.426v39.348c0,5.917-1.382,9.218-4.142,9.911c-2.767,0.688-5.726,1.229-8.876,1.627
		c0-2.565-0.495-4.733-1.479-6.509c3.744,0,6.213-0.297,7.396-0.889c1.183-0.593,1.773-2.07,1.773-4.438v-47.04H948.7
		c-3.55,0-7.202,0.102-10.944,0.296v-5.03c3.941,0.199,7.396,0.296,10.354,0.296L975.329,37.85L975.329,37.85z"/>
</g>
<g>
	<path fill="#FFFFFF" d="M130.536,50.729c5.174,5.236,12.904,9.662,20.321,12.031c-1.184,1.06-2.992,3.241-3.802,4.675
		c-8.228-3.055-16.644-8.976-22.317-15.833v11.283h-5.734V51.602c-5.485,7.044-13.901,13.028-22.13,16.332
		c-0.811-1.371-2.494-3.491-3.678-4.675c7.231-2.369,14.836-7.169,19.885-12.53H94.63V45.68h24.374v-7.48h5.734v7.48h24.811v5.049
		H130.536z M95.503,88.38h53.36v5.173h-53.36V88.38z M139.387,64.755v20.321h-34.909V64.755H139.387z M133.403,68.744h-23.189v4.176
		h23.189V68.744z M133.403,76.784h-23.189v4.24h23.189V76.784z"/>
	<path fill="#FFFFFF" d="M177.721,61.949c-0.685,1.247-1.309,2.431-2.057,3.615h30.046V95.61h-5.797v-2.368h-24.935v2.368h-5.548
		V73.73c-2.992,3.179-6.483,6.047-10.472,8.354c-0.749-1.372-2.432-3.491-3.553-4.551c6.732-3.803,11.906-9.288,15.708-15.584
		h-14.025v-4.613h16.519c0.623-1.184,1.184-2.493,1.746-3.74h-13.839v-4.55h15.397c0.436-1.185,0.748-2.369,1.06-3.554
		c-5.486,0.188-10.972,0.312-16.146,0.312c-0.063-1.309-0.561-3.241-1.122-4.426c15.085-0.062,33.475-0.935,43.573-2.806
		l3.491,4.177c-6.421,1.123-14.712,1.934-23.376,2.432c-0.375,1.31-0.811,2.556-1.247,3.865h25.06v4.55h-26.618
		c-0.499,1.247-1.06,2.557-1.621,3.74h31.729v4.613H177.721z M199.913,70.052h-24.935v3.554h24.935V70.052z M174.978,81.024h24.935
		v-3.554h-24.935V81.024z M199.913,88.691v-3.803h-24.935v3.803H199.913z"/>
	<path fill="#FFFFFF" d="M271.908,88.316c0,3.43-0.81,5.175-3.117,6.109c-2.306,0.997-6.171,1.061-11.657,1.061
		c-0.249-1.621-1.184-4.302-1.995-5.859c4.052,0.186,8.291,0.186,9.475,0.124c1.185-0.063,1.559-0.375,1.559-1.496V54.282h-16.457
		c-0.125,2.431-0.436,4.987-0.997,7.667c5.734,5.174,12.904,12.03,16.519,16.456l-4.737,3.803
		c-2.868-3.803-8.416-9.662-13.589-14.648c-2.431,5.673-6.795,11.158-14.462,15.646c-0.748-1.246-2.743-3.304-4.114-4.363
		c12.965-6.856,15.085-16.581,15.396-24.56h-16.207v41.267h-5.797V48.672h22.067V38.199h5.984v10.473h22.129V88.316z"/>
	<path fill="#FFFFFF" d="M311.864,57.96c6.545,8.166,16.707,15.085,26.182,18.451c-1.434,1.496-2.805,3.554-3.74,5.299
		c-2.557-1.186-5.236-2.556-7.855-4.177v18.016h-5.859v-2.058h-23.002v2.058h-5.611V78.095c-2.43,1.495-4.986,2.93-7.604,4.113
		c-0.748-1.371-2.244-3.554-3.43-4.862c10.35-4.364,20.26-12.467,24.998-19.386H311.864z M288.674,55.777h-5.611V43.436h22.816
		v-5.299h5.922v5.299h23.189v12.342h-5.859v-6.981h-40.457V55.777z M303.883,52.973c-3.926,5.423-10.285,10.723-15.895,13.901
		c-0.873-1.185-2.93-3.491-4.178-4.613c5.486-2.618,11.283-6.795,14.525-11.221L303.883,52.973z M321.588,74.416
		c-4.926-3.429-9.352-7.23-12.404-10.846c-2.807,3.553-6.857,7.355-11.658,10.846H321.588z M320.59,88.316V79.59h-23.002v8.727
		H320.59z M317.66,50.854c5.361,3.241,12.404,8.166,15.896,11.719l-4.303,3.99c-3.24-3.491-10.035-8.728-15.584-12.218
		L317.66,50.854z"/>
</g>
</svg>
